<svg xmlns="http://www.w3.org/2000/svg" xmlns:xlink="http://www.w3.org/1999/xlink" width="600" height="400" viewBox="0 0 2400 1600">
<defs>
  <clipPath id="clip730">
    <rect x="0" y="0" width="2400" height="1600"></rect>
  </clipPath>
</defs>
<path clip-path="url(#clip730)" d="M0 1600 L2400 1600 L2400 0 L0 0  Z" fill="#ffffff" fill-rule="evenodd" fill-opacity="1"></path>
<defs>
  <clipPath id="clip731">
    <rect x="480" y="0" width="1681" height="1600"></rect>
  </clipPath>
</defs>
<path clip-path="url(#clip730)" d="M257.204 1423.18 L2352.76 1423.18 L2352.76 123.472 L257.204 123.472  Z" fill="#ffffff" fill-rule="evenodd" fill-opacity="1"></path>
<defs>
  <clipPath id="clip732">
    <rect x="257" y="123" width="2097" height="1301"></rect>
  </clipPath>
</defs>
<polyline clip-path="url(#clip732)" style="stroke:#000000; stroke-linecap:round; stroke-linejoin:round; stroke-width:2; stroke-opacity:0.1; fill:none" points="257.204,1423.18 257.204,123.472 "></polyline>
<polyline clip-path="url(#clip732)" style="stroke:#000000; stroke-linecap:round; stroke-linejoin:round; stroke-width:2; stroke-opacity:0.1; fill:none" points="676.314,1423.18 676.314,123.472 "></polyline>
<polyline clip-path="url(#clip732)" style="stroke:#000000; stroke-linecap:round; stroke-linejoin:round; stroke-width:2; stroke-opacity:0.1; fill:none" points="1095.42,1423.18 1095.42,123.472 "></polyline>
<polyline clip-path="url(#clip732)" style="stroke:#000000; stroke-linecap:round; stroke-linejoin:round; stroke-width:2; stroke-opacity:0.1; fill:none" points="1514.54,1423.18 1514.54,123.472 "></polyline>
<polyline clip-path="url(#clip732)" style="stroke:#000000; stroke-linecap:round; stroke-linejoin:round; stroke-width:2; stroke-opacity:0.1; fill:none" points="1933.65,1423.18 1933.65,123.472 "></polyline>
<polyline clip-path="url(#clip732)" style="stroke:#000000; stroke-linecap:round; stroke-linejoin:round; stroke-width:2; stroke-opacity:0.1; fill:none" points="2352.76,1423.18 2352.76,123.472 "></polyline>
<polyline clip-path="url(#clip730)" style="stroke:#000000; stroke-linecap:round; stroke-linejoin:round; stroke-width:4; stroke-opacity:1; fill:none" points="257.204,1423.18 2352.76,1423.18 "></polyline>
<polyline clip-path="url(#clip730)" style="stroke:#000000; stroke-linecap:round; stroke-linejoin:round; stroke-width:4; stroke-opacity:1; fill:none" points="257.204,1423.18 257.204,1404.28 "></polyline>
<polyline clip-path="url(#clip730)" style="stroke:#000000; stroke-linecap:round; stroke-linejoin:round; stroke-width:4; stroke-opacity:1; fill:none" points="676.314,1423.18 676.314,1404.28 "></polyline>
<polyline clip-path="url(#clip730)" style="stroke:#000000; stroke-linecap:round; stroke-linejoin:round; stroke-width:4; stroke-opacity:1; fill:none" points="1095.42,1423.18 1095.42,1404.28 "></polyline>
<polyline clip-path="url(#clip730)" style="stroke:#000000; stroke-linecap:round; stroke-linejoin:round; stroke-width:4; stroke-opacity:1; fill:none" points="1514.54,1423.18 1514.54,1404.28 "></polyline>
<polyline clip-path="url(#clip730)" style="stroke:#000000; stroke-linecap:round; stroke-linejoin:round; stroke-width:4; stroke-opacity:1; fill:none" points="1933.65,1423.18 1933.65,1404.28 "></polyline>
<polyline clip-path="url(#clip730)" style="stroke:#000000; stroke-linecap:round; stroke-linejoin:round; stroke-width:4; stroke-opacity:1; fill:none" points="2352.76,1423.18 2352.76,1404.28 "></polyline>
<path clip-path="url(#clip730)" d="M257.204 1454.1 Q253.593 1454.1 251.764 1457.66 Q249.959 1461.2 249.959 1468.33 Q249.959 1475.44 251.764 1479.01 Q253.593 1482.55 257.204 1482.55 Q260.838 1482.55 262.644 1479.01 Q264.473 1475.44 264.473 1468.33 Q264.473 1461.2 262.644 1457.66 Q260.838 1454.1 257.204 1454.1 M257.204 1450.39 Q263.014 1450.39 266.07 1455 Q269.148 1459.58 269.148 1468.33 Q269.148 1477.06 266.07 1481.67 Q263.014 1486.25 257.204 1486.25 Q251.394 1486.25 248.315 1481.67 Q245.26 1477.06 245.26 1468.33 Q245.26 1459.58 248.315 1455 Q251.394 1450.39 257.204 1450.39 Z" fill="#000000" fill-rule="nonzero" fill-opacity="1"></path><path clip-path="url(#clip730)" d="M655.088 1481.64 L671.407 1481.64 L671.407 1485.58 L649.463 1485.58 L649.463 1481.64 Q652.125 1478.89 656.708 1474.26 Q661.314 1469.61 662.495 1468.27 Q664.74 1465.74 665.62 1464.01 Q666.523 1462.25 666.523 1460.56 Q666.523 1457.8 664.578 1456.07 Q662.657 1454.33 659.555 1454.33 Q657.356 1454.33 654.902 1455.09 Q652.472 1455.86 649.694 1457.41 L649.694 1452.69 Q652.518 1451.55 654.972 1450.97 Q657.426 1450.39 659.463 1450.39 Q664.833 1450.39 668.027 1453.08 Q671.222 1455.77 671.222 1460.26 Q671.222 1462.39 670.412 1464.31 Q669.625 1466.2 667.518 1468.8 Q666.939 1469.47 663.838 1472.69 Q660.736 1475.88 655.088 1481.64 Z" fill="#000000" fill-rule="nonzero" fill-opacity="1"></path><path clip-path="url(#clip730)" d="M691.222 1454.1 Q687.611 1454.1 685.782 1457.66 Q683.976 1461.2 683.976 1468.33 Q683.976 1475.44 685.782 1479.01 Q687.611 1482.55 691.222 1482.55 Q694.856 1482.55 696.662 1479.01 Q698.49 1475.44 698.49 1468.33 Q698.49 1461.2 696.662 1457.66 Q694.856 1454.1 691.222 1454.1 M691.222 1450.39 Q697.032 1450.39 700.087 1455 Q703.166 1459.58 703.166 1468.33 Q703.166 1477.06 700.087 1481.67 Q697.032 1486.25 691.222 1486.25 Q685.412 1486.25 682.333 1481.67 Q679.277 1477.06 679.277 1468.33 Q679.277 1459.58 682.333 1455 Q685.412 1450.39 691.222 1450.39 Z" fill="#000000" fill-rule="nonzero" fill-opacity="1"></path><path clip-path="url(#clip730)" d="M1083.6 1455.09 L1071.79 1473.54 L1083.6 1473.54 L1083.6 1455.09 M1082.37 1451.02 L1088.25 1451.02 L1088.25 1473.54 L1093.18 1473.54 L1093.18 1477.43 L1088.25 1477.43 L1088.25 1485.58 L1083.6 1485.58 L1083.6 1477.43 L1067.99 1477.43 L1067.99 1472.92 L1082.37 1451.02 Z" fill="#000000" fill-rule="nonzero" fill-opacity="1"></path><path clip-path="url(#clip730)" d="M1110.91 1454.1 Q1107.3 1454.1 1105.47 1457.66 Q1103.67 1461.2 1103.67 1468.33 Q1103.67 1475.44 1105.47 1479.01 Q1107.3 1482.55 1110.91 1482.55 Q1114.55 1482.55 1116.35 1479.01 Q1118.18 1475.44 1118.18 1468.33 Q1118.18 1461.2 1116.35 1457.66 Q1114.55 1454.1 1110.91 1454.1 M1110.91 1450.39 Q1116.72 1450.39 1119.78 1455 Q1122.86 1459.58 1122.86 1468.33 Q1122.86 1477.06 1119.78 1481.67 Q1116.72 1486.25 1110.91 1486.25 Q1105.1 1486.25 1102.02 1481.67 Q1098.97 1477.06 1098.97 1468.33 Q1098.97 1459.58 1102.02 1455 Q1105.1 1450.39 1110.91 1450.39 Z" fill="#000000" fill-rule="nonzero" fill-opacity="1"></path><path clip-path="url(#clip730)" d="M1499.94 1466.44 Q1496.79 1466.44 1494.94 1468.59 Q1493.11 1470.74 1493.11 1474.49 Q1493.11 1478.22 1494.94 1480.39 Q1496.79 1482.55 1499.94 1482.55 Q1503.09 1482.55 1504.92 1480.39 Q1506.77 1478.22 1506.77 1474.49 Q1506.77 1470.74 1504.92 1468.59 Q1503.09 1466.44 1499.94 1466.44 M1509.22 1451.78 L1509.22 1456.04 Q1507.46 1455.21 1505.66 1454.77 Q1503.88 1454.33 1502.12 1454.33 Q1497.49 1454.33 1495.03 1457.45 Q1492.6 1460.58 1492.26 1466.9 Q1493.62 1464.89 1495.68 1463.82 Q1497.74 1462.73 1500.22 1462.73 Q1505.43 1462.73 1508.44 1465.9 Q1511.47 1469.05 1511.47 1474.49 Q1511.47 1479.82 1508.32 1483.03 Q1505.17 1486.25 1499.94 1486.25 Q1493.94 1486.25 1490.77 1481.67 Q1487.6 1477.06 1487.6 1468.33 Q1487.6 1460.14 1491.49 1455.28 Q1495.38 1450.39 1501.93 1450.39 Q1503.69 1450.39 1505.47 1450.74 Q1507.28 1451.09 1509.22 1451.78 Z" fill="#000000" fill-rule="nonzero" fill-opacity="1"></path><path clip-path="url(#clip730)" d="M1529.52 1454.1 Q1525.91 1454.1 1524.08 1457.66 Q1522.28 1461.2 1522.28 1468.33 Q1522.28 1475.44 1524.08 1479.01 Q1525.91 1482.55 1529.52 1482.55 Q1533.16 1482.55 1534.96 1479.01 Q1536.79 1475.44 1536.79 1468.33 Q1536.79 1461.2 1534.96 1457.66 Q1533.16 1454.1 1529.52 1454.1 M1529.52 1450.39 Q1535.33 1450.39 1538.39 1455 Q1541.47 1459.58 1541.47 1468.33 Q1541.47 1477.06 1538.39 1481.67 Q1535.33 1486.25 1529.52 1486.25 Q1523.71 1486.25 1520.63 1481.67 Q1517.58 1477.06 1517.58 1468.33 Q1517.58 1459.58 1520.63 1455 Q1523.71 1450.39 1529.52 1450.39 Z" fill="#000000" fill-rule="nonzero" fill-opacity="1"></path><path clip-path="url(#clip730)" d="M1918.52 1469.17 Q1915.18 1469.17 1913.26 1470.95 Q1911.37 1472.73 1911.37 1475.86 Q1911.37 1478.98 1913.26 1480.77 Q1915.18 1482.55 1918.52 1482.55 Q1921.85 1482.55 1923.77 1480.77 Q1925.69 1478.96 1925.69 1475.86 Q1925.69 1472.73 1923.77 1470.95 Q1921.87 1469.17 1918.52 1469.17 M1913.84 1467.18 Q1910.83 1466.44 1909.14 1464.38 Q1907.48 1462.32 1907.48 1459.35 Q1907.48 1455.21 1910.42 1452.8 Q1913.38 1450.39 1918.52 1450.39 Q1923.68 1450.39 1926.62 1452.8 Q1929.56 1455.21 1929.56 1459.35 Q1929.56 1462.32 1927.87 1464.38 Q1926.2 1466.44 1923.22 1467.18 Q1926.6 1467.96 1928.47 1470.26 Q1930.37 1472.55 1930.37 1475.86 Q1930.37 1480.88 1927.29 1483.57 Q1924.24 1486.25 1918.52 1486.25 Q1912.8 1486.25 1909.72 1483.57 Q1906.67 1480.88 1906.67 1475.86 Q1906.67 1472.55 1908.56 1470.26 Q1910.46 1467.96 1913.84 1467.18 M1912.13 1459.79 Q1912.13 1462.48 1913.8 1463.98 Q1915.49 1465.49 1918.52 1465.49 Q1921.53 1465.49 1923.22 1463.98 Q1924.93 1462.48 1924.93 1459.79 Q1924.93 1457.11 1923.22 1455.6 Q1921.53 1454.1 1918.52 1454.1 Q1915.49 1454.1 1913.8 1455.6 Q1912.13 1457.11 1912.13 1459.79 Z" fill="#000000" fill-rule="nonzero" fill-opacity="1"></path><path clip-path="url(#clip730)" d="M1948.68 1454.1 Q1945.07 1454.1 1943.24 1457.66 Q1941.43 1461.2 1941.43 1468.33 Q1941.43 1475.44 1943.24 1479.01 Q1945.07 1482.55 1948.68 1482.55 Q1952.31 1482.55 1954.12 1479.01 Q1955.95 1475.44 1955.95 1468.33 Q1955.95 1461.2 1954.12 1457.66 Q1952.31 1454.1 1948.68 1454.1 M1948.68 1450.39 Q1954.49 1450.39 1957.55 1455 Q1960.62 1459.58 1960.62 1468.33 Q1960.62 1477.06 1957.55 1481.67 Q1954.49 1486.25 1948.68 1486.25 Q1942.87 1486.25 1939.79 1481.67 Q1936.74 1477.06 1936.74 1468.33 Q1936.74 1459.58 1939.79 1455 Q1942.87 1450.39 1948.68 1450.39 Z" fill="#000000" fill-rule="nonzero" fill-opacity="1"></path><path clip-path="url(#clip730)" d="M2312.36 1481.64 L2320 1481.64 L2320 1455.28 L2311.69 1456.95 L2311.69 1452.69 L2319.96 1451.02 L2324.63 1451.02 L2324.63 1481.64 L2332.27 1481.64 L2332.27 1485.58 L2312.36 1485.58 L2312.36 1481.64 Z" fill="#000000" fill-rule="nonzero" fill-opacity="1"></path><path clip-path="url(#clip730)" d="M2351.71 1454.1 Q2348.1 1454.1 2346.27 1457.66 Q2344.47 1461.2 2344.47 1468.33 Q2344.47 1475.44 2346.27 1479.01 Q2348.1 1482.55 2351.71 1482.55 Q2355.35 1482.55 2357.15 1479.01 Q2358.98 1475.44 2358.98 1468.33 Q2358.98 1461.2 2357.15 1457.66 Q2355.35 1454.1 2351.71 1454.1 M2351.71 1450.39 Q2357.52 1450.39 2360.58 1455 Q2363.66 1459.58 2363.66 1468.33 Q2363.66 1477.06 2360.58 1481.67 Q2357.52 1486.25 2351.71 1486.25 Q2345.9 1486.25 2342.83 1481.67 Q2339.77 1477.06 2339.77 1468.33 Q2339.77 1459.58 2342.83 1455 Q2345.9 1450.39 2351.71 1450.39 Z" fill="#000000" fill-rule="nonzero" fill-opacity="1"></path><path clip-path="url(#clip730)" d="M2381.88 1454.1 Q2378.27 1454.1 2376.44 1457.66 Q2374.63 1461.2 2374.63 1468.33 Q2374.63 1475.44 2376.44 1479.01 Q2378.27 1482.55 2381.88 1482.55 Q2385.51 1482.55 2387.32 1479.01 Q2389.14 1475.44 2389.14 1468.33 Q2389.14 1461.2 2387.32 1457.66 Q2385.51 1454.1 2381.88 1454.1 M2381.88 1450.39 Q2387.69 1450.39 2390.74 1455 Q2393.82 1459.58 2393.82 1468.33 Q2393.82 1477.06 2390.74 1481.67 Q2387.69 1486.25 2381.88 1486.25 Q2376.07 1486.25 2372.99 1481.67 Q2369.93 1477.06 2369.93 1468.33 Q2369.93 1459.58 2372.99 1455 Q2376.07 1450.39 2381.88 1450.39 Z" fill="#000000" fill-rule="nonzero" fill-opacity="1"></path><path clip-path="url(#clip730)" d="M1047.98 1520.52 L1088.18 1520.52 L1088.18 1525.93 L1071.31 1525.93 L1071.31 1568.04 L1064.85 1568.04 L1064.85 1525.93 L1047.98 1525.93 L1047.98 1520.52 Z" fill="#000000" fill-rule="nonzero" fill-opacity="1"></path><path clip-path="url(#clip730)" d="M1092.13 1532.4 L1097.98 1532.4 L1097.98 1568.04 L1092.13 1568.04 L1092.13 1532.4 M1092.13 1518.52 L1097.98 1518.52 L1097.98 1525.93 L1092.13 1525.93 L1092.13 1518.52 Z" fill="#000000" fill-rule="nonzero" fill-opacity="1"></path><path clip-path="url(#clip730)" d="M1137.99 1539.24 Q1140.19 1535.29 1143.24 1533.41 Q1146.3 1531.54 1150.44 1531.54 Q1156.01 1531.54 1159.03 1535.45 Q1162.05 1539.33 1162.05 1546.53 L1162.05 1568.04 L1156.17 1568.04 L1156.17 1546.72 Q1156.17 1541.59 1154.35 1539.11 Q1152.54 1536.63 1148.81 1536.63 Q1144.26 1536.63 1141.62 1539.65 Q1138.98 1542.68 1138.98 1547.9 L1138.98 1568.04 L1133.09 1568.04 L1133.09 1546.72 Q1133.09 1541.56 1131.28 1539.11 Q1129.46 1536.63 1125.67 1536.63 Q1121.19 1536.63 1118.54 1539.68 Q1115.9 1542.71 1115.9 1547.9 L1115.9 1568.04 L1110.01 1568.04 L1110.01 1532.4 L1115.9 1532.4 L1115.9 1537.93 Q1117.91 1534.66 1120.71 1533.1 Q1123.51 1531.54 1127.36 1531.54 Q1131.24 1531.54 1133.95 1533.51 Q1136.69 1535.48 1137.99 1539.24 Z" fill="#000000" fill-rule="nonzero" fill-opacity="1"></path><path clip-path="url(#clip730)" d="M1204.23 1548.76 L1204.23 1551.62 L1177.3 1551.62 Q1177.68 1557.67 1180.93 1560.85 Q1184.21 1564 1190.03 1564 Q1193.41 1564 1196.56 1563.17 Q1199.74 1562.35 1202.86 1560.69 L1202.86 1566.23 Q1199.71 1567.57 1196.4 1568.27 Q1193.09 1568.97 1189.68 1568.97 Q1181.15 1568.97 1176.15 1564 Q1171.19 1559.04 1171.19 1550.57 Q1171.19 1541.82 1175.9 1536.69 Q1180.64 1531.54 1188.66 1531.54 Q1195.86 1531.54 1200.03 1536.18 Q1204.23 1540.8 1204.23 1548.76 M1198.37 1547.04 Q1198.31 1542.23 1195.66 1539.37 Q1193.05 1536.5 1188.73 1536.5 Q1183.82 1536.5 1180.86 1539.27 Q1177.94 1542.04 1177.49 1547.07 L1198.37 1547.04 Z" fill="#000000" fill-rule="nonzero" fill-opacity="1"></path><path clip-path="url(#clip730)" d="M1234.56 1532.4 L1240.42 1532.4 L1240.42 1568.04 L1234.56 1568.04 L1234.56 1532.4 M1234.56 1518.52 L1240.42 1518.52 L1240.42 1525.93 L1234.56 1525.93 L1234.56 1518.52 Z" fill="#000000" fill-rule="nonzero" fill-opacity="1"></path><path clip-path="url(#clip730)" d="M1282.3 1546.53 L1282.3 1568.04 L1276.45 1568.04 L1276.45 1546.72 Q1276.45 1541.66 1274.47 1539.14 Q1272.5 1536.63 1268.55 1536.63 Q1263.81 1536.63 1261.07 1539.65 Q1258.34 1542.68 1258.34 1547.9 L1258.34 1568.04 L1252.45 1568.04 L1252.45 1532.4 L1258.34 1532.4 L1258.34 1537.93 Q1260.44 1534.72 1263.27 1533.13 Q1266.13 1531.54 1269.86 1531.54 Q1276 1531.54 1279.15 1535.36 Q1282.3 1539.14 1282.3 1546.53 Z" fill="#000000" fill-rule="nonzero" fill-opacity="1"></path><path clip-path="url(#clip730)" d="M1314.96 1520.52 L1324.54 1520.52 L1336.67 1552.86 L1348.86 1520.52 L1358.44 1520.52 L1358.44 1568.04 L1352.17 1568.04 L1352.17 1526.32 L1339.91 1558.91 L1333.45 1558.91 L1321.2 1526.32 L1321.2 1568.04 L1314.96 1568.04 L1314.96 1520.52 Z" fill="#000000" fill-rule="nonzero" fill-opacity="1"></path><path clip-path="url(#clip730)" d="M1370.94 1532.4 L1376.8 1532.4 L1376.8 1568.04 L1370.94 1568.04 L1370.94 1532.4 M1370.94 1518.52 L1376.8 1518.52 L1376.8 1525.93 L1370.94 1525.93 L1370.94 1518.52 Z" fill="#000000" fill-rule="nonzero" fill-opacity="1"></path><path clip-path="url(#clip730)" d="M1418.69 1546.53 L1418.69 1568.04 L1412.83 1568.04 L1412.83 1546.72 Q1412.83 1541.66 1410.86 1539.14 Q1408.88 1536.63 1404.94 1536.63 Q1400.2 1536.63 1397.46 1539.65 Q1394.72 1542.68 1394.72 1547.9 L1394.72 1568.04 L1388.83 1568.04 L1388.83 1532.4 L1394.72 1532.4 L1394.72 1537.93 Q1396.82 1534.72 1399.65 1533.13 Q1402.52 1531.54 1406.24 1531.54 Q1412.39 1531.54 1415.54 1535.36 Q1418.69 1539.14 1418.69 1546.53 Z" fill="#000000" fill-rule="nonzero" fill-opacity="1"></path><path clip-path="url(#clip730)" d="M1429.76 1553.98 L1429.76 1532.4 L1435.62 1532.4 L1435.62 1553.75 Q1435.62 1558.81 1437.59 1561.36 Q1439.57 1563.87 1443.51 1563.87 Q1448.26 1563.87 1450.99 1560.85 Q1453.76 1557.83 1453.76 1552.61 L1453.76 1532.4 L1459.62 1532.4 L1459.62 1568.04 L1453.76 1568.04 L1453.76 1562.57 Q1451.63 1565.82 1448.8 1567.41 Q1446 1568.97 1442.27 1568.97 Q1436.13 1568.97 1432.95 1565.15 Q1429.76 1561.33 1429.76 1553.98 M1444.5 1531.54 L1444.5 1531.54 Z" fill="#000000" fill-rule="nonzero" fill-opacity="1"></path><path clip-path="url(#clip730)" d="M1477.47 1522.27 L1477.47 1532.4 L1489.54 1532.4 L1489.54 1536.95 L1477.47 1536.95 L1477.47 1556.3 Q1477.47 1560.66 1478.65 1561.9 Q1479.86 1563.14 1483.52 1563.14 L1489.54 1563.14 L1489.54 1568.04 L1483.52 1568.04 Q1476.74 1568.04 1474.16 1565.53 Q1471.59 1562.98 1471.59 1556.3 L1471.59 1536.95 L1467.29 1536.95 L1467.29 1532.4 L1471.59 1532.4 L1471.59 1522.27 L1477.47 1522.27 Z" fill="#000000" fill-rule="nonzero" fill-opacity="1"></path><path clip-path="url(#clip730)" d="M1527.73 1548.76 L1527.73 1551.62 L1500.81 1551.62 Q1501.19 1557.67 1504.43 1560.85 Q1507.71 1564 1513.54 1564 Q1516.91 1564 1520.06 1563.17 Q1523.24 1562.35 1526.36 1560.69 L1526.36 1566.23 Q1523.21 1567.57 1519.9 1568.27 Q1516.59 1568.97 1513.19 1568.97 Q1504.66 1568.97 1499.66 1564 Q1494.69 1559.04 1494.69 1550.57 Q1494.69 1541.82 1499.4 1536.69 Q1504.15 1531.54 1512.17 1531.54 Q1519.36 1531.54 1523.53 1536.18 Q1527.73 1540.8 1527.73 1548.76 M1521.88 1547.04 Q1521.81 1542.23 1519.17 1539.37 Q1516.56 1536.5 1512.23 1536.5 Q1507.33 1536.5 1504.37 1539.27 Q1501.44 1542.04 1501 1547.07 L1521.88 1547.04 Z" fill="#000000" fill-rule="nonzero" fill-opacity="1"></path><path clip-path="url(#clip730)" d="M1560.07 1533.45 L1560.07 1538.98 Q1557.59 1537.71 1554.91 1537.07 Q1552.24 1536.44 1549.38 1536.44 Q1545.01 1536.44 1542.82 1537.77 Q1540.65 1539.11 1540.65 1541.79 Q1540.65 1543.82 1542.21 1545 Q1543.77 1546.15 1548.48 1547.2 L1550.49 1547.64 Q1556.73 1548.98 1559.34 1551.43 Q1561.98 1553.85 1561.98 1558.21 Q1561.98 1563.17 1558.03 1566.07 Q1554.12 1568.97 1547.24 1568.97 Q1544.38 1568.97 1541.26 1568.39 Q1538.17 1567.85 1534.73 1566.74 L1534.73 1560.69 Q1537.98 1562.38 1541.13 1563.24 Q1544.28 1564.07 1547.37 1564.07 Q1551.51 1564.07 1553.74 1562.66 Q1555.96 1561.23 1555.96 1558.65 Q1555.96 1556.27 1554.34 1554.99 Q1552.75 1553.72 1547.31 1552.54 L1545.27 1552.07 Q1539.83 1550.92 1537.41 1548.56 Q1534.99 1546.18 1534.99 1542.04 Q1534.99 1537.01 1538.55 1534.27 Q1542.12 1531.54 1548.68 1531.54 Q1551.92 1531.54 1554.79 1532.01 Q1557.65 1532.49 1560.07 1533.45 Z" fill="#000000" fill-rule="nonzero" fill-opacity="1"></path><polyline clip-path="url(#clip732)" style="stroke:#000000; stroke-linecap:round; stroke-linejoin:round; stroke-width:2; stroke-opacity:0.1; fill:none" points="257.204,1423.18 2352.76,1423.18 "></polyline>
<polyline clip-path="url(#clip732)" style="stroke:#000000; stroke-linecap:round; stroke-linejoin:round; stroke-width:2; stroke-opacity:0.1; fill:none" points="257.204,1098.25 2352.76,1098.25 "></polyline>
<polyline clip-path="url(#clip732)" style="stroke:#000000; stroke-linecap:round; stroke-linejoin:round; stroke-width:2; stroke-opacity:0.1; fill:none" points="257.204,773.326 2352.76,773.326 "></polyline>
<polyline clip-path="url(#clip732)" style="stroke:#000000; stroke-linecap:round; stroke-linejoin:round; stroke-width:2; stroke-opacity:0.1; fill:none" points="257.204,448.399 2352.76,448.399 "></polyline>
<polyline clip-path="url(#clip732)" style="stroke:#000000; stroke-linecap:round; stroke-linejoin:round; stroke-width:2; stroke-opacity:0.1; fill:none" points="257.204,123.472 2352.76,123.472 "></polyline>
<polyline clip-path="url(#clip730)" style="stroke:#000000; stroke-linecap:round; stroke-linejoin:round; stroke-width:4; stroke-opacity:1; fill:none" points="257.204,1423.18 257.204,123.472 "></polyline>
<polyline clip-path="url(#clip730)" style="stroke:#000000; stroke-linecap:round; stroke-linejoin:round; stroke-width:4; stroke-opacity:1; fill:none" points="257.204,1423.18 276.102,1423.18 "></polyline>
<polyline clip-path="url(#clip730)" style="stroke:#000000; stroke-linecap:round; stroke-linejoin:round; stroke-width:4; stroke-opacity:1; fill:none" points="257.204,1098.25 276.102,1098.25 "></polyline>
<polyline clip-path="url(#clip730)" style="stroke:#000000; stroke-linecap:round; stroke-linejoin:round; stroke-width:4; stroke-opacity:1; fill:none" points="257.204,773.326 276.102,773.326 "></polyline>
<polyline clip-path="url(#clip730)" style="stroke:#000000; stroke-linecap:round; stroke-linejoin:round; stroke-width:4; stroke-opacity:1; fill:none" points="257.204,448.399 276.102,448.399 "></polyline>
<polyline clip-path="url(#clip730)" style="stroke:#000000; stroke-linecap:round; stroke-linejoin:round; stroke-width:4; stroke-opacity:1; fill:none" points="257.204,123.472 276.102,123.472 "></polyline>
<path clip-path="url(#clip730)" d="M114.26 1423.63 L143.936 1423.63 L143.936 1427.57 L114.26 1427.57 L114.26 1423.63 Z" fill="#000000" fill-rule="nonzero" fill-opacity="1"></path><path clip-path="url(#clip730)" d="M154.075 1405.9 L172.431 1405.9 L172.431 1409.84 L158.357 1409.84 L158.357 1418.31 Q159.376 1417.96 160.394 1417.8 Q161.413 1417.61 162.431 1417.61 Q168.218 1417.61 171.598 1420.78 Q174.977 1423.96 174.977 1429.37 Q174.977 1434.95 171.505 1438.05 Q168.033 1441.13 161.714 1441.13 Q159.538 1441.13 157.269 1440.76 Q155.024 1440.39 152.616 1439.65 L152.616 1434.95 Q154.7 1436.08 156.922 1436.64 Q159.144 1437.2 161.621 1437.2 Q165.626 1437.2 167.964 1435.09 Q170.302 1432.98 170.302 1429.37 Q170.302 1425.76 167.964 1423.65 Q165.626 1421.55 161.621 1421.55 Q159.746 1421.55 157.871 1421.96 Q156.019 1422.38 154.075 1423.26 L154.075 1405.9 Z" fill="#000000" fill-rule="nonzero" fill-opacity="1"></path><path clip-path="url(#clip730)" d="M184.19 1434.58 L189.075 1434.58 L189.075 1440.46 L184.19 1440.46 L184.19 1434.58 Z" fill="#000000" fill-rule="nonzero" fill-opacity="1"></path><path clip-path="url(#clip730)" d="M209.26 1408.98 Q205.649 1408.98 203.82 1412.54 Q202.014 1416.08 202.014 1423.21 Q202.014 1430.32 203.82 1433.89 Q205.649 1437.43 209.26 1437.43 Q212.894 1437.43 214.699 1433.89 Q216.528 1430.32 216.528 1423.21 Q216.528 1416.08 214.699 1412.54 Q212.894 1408.98 209.26 1408.98 M209.26 1405.27 Q215.07 1405.27 218.125 1409.88 Q221.204 1414.46 221.204 1423.21 Q221.204 1431.94 218.125 1436.55 Q215.07 1441.13 209.26 1441.13 Q203.449 1441.13 200.371 1436.55 Q197.315 1431.94 197.315 1423.21 Q197.315 1414.46 200.371 1409.88 Q203.449 1405.27 209.26 1405.27 Z" fill="#000000" fill-rule="nonzero" fill-opacity="1"></path><path clip-path="url(#clip730)" d="M115.256 1098.7 L144.931 1098.7 L144.931 1102.64 L115.256 1102.64 L115.256 1098.7 Z" fill="#000000" fill-rule="nonzero" fill-opacity="1"></path><path clip-path="url(#clip730)" d="M159.052 1111.6 L175.371 1111.6 L175.371 1115.53 L153.427 1115.53 L153.427 1111.6 Q156.089 1108.84 160.672 1104.21 Q165.278 1099.56 166.459 1098.22 Q168.704 1095.7 169.584 1093.96 Q170.487 1092.2 170.487 1090.51 Q170.487 1087.76 168.542 1086.02 Q166.621 1084.28 163.519 1084.28 Q161.32 1084.28 158.866 1085.05 Q156.436 1085.81 153.658 1087.36 L153.658 1082.64 Q156.482 1081.51 158.936 1080.93 Q161.39 1080.35 163.427 1080.35 Q168.797 1080.35 171.991 1083.03 Q175.186 1085.72 175.186 1090.21 Q175.186 1092.34 174.376 1094.26 Q173.589 1096.16 171.482 1098.75 Q170.903 1099.42 167.802 1102.64 Q164.7 1105.83 159.052 1111.6 Z" fill="#000000" fill-rule="nonzero" fill-opacity="1"></path><path clip-path="url(#clip730)" d="M185.186 1109.65 L190.07 1109.65 L190.07 1115.53 L185.186 1115.53 L185.186 1109.65 Z" fill="#000000" fill-rule="nonzero" fill-opacity="1"></path><path clip-path="url(#clip730)" d="M200.301 1080.97 L218.658 1080.97 L218.658 1084.91 L204.584 1084.91 L204.584 1093.38 Q205.602 1093.03 206.621 1092.87 Q207.639 1092.69 208.658 1092.69 Q214.445 1092.69 217.824 1095.86 Q221.204 1099.03 221.204 1104.45 Q221.204 1110.02 217.732 1113.13 Q214.26 1116.2 207.94 1116.2 Q205.764 1116.2 203.496 1115.83 Q201.25 1115.46 198.843 1114.72 L198.843 1110.02 Q200.926 1111.16 203.149 1111.71 Q205.371 1112.27 207.848 1112.27 Q211.852 1112.27 214.19 1110.16 Q216.528 1108.06 216.528 1104.45 Q216.528 1100.83 214.19 1098.73 Q211.852 1096.62 207.848 1096.62 Q205.973 1096.62 204.098 1097.04 Q202.246 1097.45 200.301 1098.33 L200.301 1080.97 Z" fill="#000000" fill-rule="nonzero" fill-opacity="1"></path><path clip-path="url(#clip730)" d="M164.028 759.125 Q160.417 759.125 158.589 762.689 Q156.783 766.231 156.783 773.361 Q156.783 780.467 158.589 784.032 Q160.417 787.574 164.028 787.574 Q167.663 787.574 169.468 784.032 Q171.297 780.467 171.297 773.361 Q171.297 766.231 169.468 762.689 Q167.663 759.125 164.028 759.125 M164.028 755.421 Q169.839 755.421 172.894 760.027 Q175.973 764.611 175.973 773.361 Q175.973 782.088 172.894 786.694 Q169.839 791.277 164.028 791.277 Q158.218 791.277 155.14 786.694 Q152.084 782.088 152.084 773.361 Q152.084 764.611 155.14 760.027 Q158.218 755.421 164.028 755.421 Z" fill="#000000" fill-rule="nonzero" fill-opacity="1"></path><path clip-path="url(#clip730)" d="M184.19 784.726 L189.075 784.726 L189.075 790.606 L184.19 790.606 L184.19 784.726 Z" fill="#000000" fill-rule="nonzero" fill-opacity="1"></path><path clip-path="url(#clip730)" d="M209.26 759.125 Q205.649 759.125 203.82 762.689 Q202.014 766.231 202.014 773.361 Q202.014 780.467 203.82 784.032 Q205.649 787.574 209.26 787.574 Q212.894 787.574 214.699 784.032 Q216.528 780.467 216.528 773.361 Q216.528 766.231 214.699 762.689 Q212.894 759.125 209.26 759.125 M209.26 755.421 Q215.07 755.421 218.125 760.027 Q221.204 764.611 221.204 773.361 Q221.204 782.088 218.125 786.694 Q215.07 791.277 209.26 791.277 Q203.449 791.277 200.371 786.694 Q197.315 782.088 197.315 773.361 Q197.315 764.611 200.371 760.027 Q203.449 755.421 209.26 755.421 Z" fill="#000000" fill-rule="nonzero" fill-opacity="1"></path><path clip-path="url(#clip730)" d="M159.052 461.744 L175.371 461.744 L175.371 465.679 L153.427 465.679 L153.427 461.744 Q156.089 458.989 160.672 454.36 Q165.278 449.707 166.459 448.364 Q168.704 445.841 169.584 444.105 Q170.487 442.346 170.487 440.656 Q170.487 437.901 168.542 436.165 Q166.621 434.429 163.519 434.429 Q161.32 434.429 158.866 435.193 Q156.436 435.957 153.658 437.508 L153.658 432.786 Q156.482 431.651 158.936 431.073 Q161.39 430.494 163.427 430.494 Q168.797 430.494 171.991 433.179 Q175.186 435.864 175.186 440.355 Q175.186 442.485 174.376 444.406 Q173.589 446.304 171.482 448.897 Q170.903 449.568 167.802 452.786 Q164.7 455.98 159.052 461.744 Z" fill="#000000" fill-rule="nonzero" fill-opacity="1"></path><path clip-path="url(#clip730)" d="M185.186 459.799 L190.07 459.799 L190.07 465.679 L185.186 465.679 L185.186 459.799 Z" fill="#000000" fill-rule="nonzero" fill-opacity="1"></path><path clip-path="url(#clip730)" d="M200.301 431.119 L218.658 431.119 L218.658 435.054 L204.584 435.054 L204.584 443.526 Q205.602 443.179 206.621 443.017 Q207.639 442.832 208.658 442.832 Q214.445 442.832 217.824 446.003 Q221.204 449.175 221.204 454.591 Q221.204 460.17 217.732 463.272 Q214.26 466.35 207.94 466.35 Q205.764 466.35 203.496 465.98 Q201.25 465.61 198.843 464.869 L198.843 460.17 Q200.926 461.304 203.149 461.86 Q205.371 462.415 207.848 462.415 Q211.852 462.415 214.19 460.309 Q216.528 458.202 216.528 454.591 Q216.528 450.98 214.19 448.874 Q211.852 446.767 207.848 446.767 Q205.973 446.767 204.098 447.184 Q202.246 447.6 200.301 448.48 L200.301 431.119 Z" fill="#000000" fill-rule="nonzero" fill-opacity="1"></path><path clip-path="url(#clip730)" d="M154.075 106.192 L172.431 106.192 L172.431 110.127 L158.357 110.127 L158.357 118.599 Q159.376 118.252 160.394 118.09 Q161.413 117.905 162.431 117.905 Q168.218 117.905 171.598 121.076 Q174.977 124.248 174.977 129.664 Q174.977 135.243 171.505 138.345 Q168.033 141.423 161.714 141.423 Q159.538 141.423 157.269 141.053 Q155.024 140.683 152.616 139.942 L152.616 135.243 Q154.7 136.377 156.922 136.933 Q159.144 137.488 161.621 137.488 Q165.626 137.488 167.964 135.382 Q170.302 133.275 170.302 129.664 Q170.302 126.053 167.964 123.947 Q165.626 121.84 161.621 121.84 Q159.746 121.84 157.871 122.257 Q156.019 122.674 154.075 123.553 L154.075 106.192 Z" fill="#000000" fill-rule="nonzero" fill-opacity="1"></path><path clip-path="url(#clip730)" d="M184.19 134.873 L189.075 134.873 L189.075 140.752 L184.19 140.752 L184.19 134.873 Z" fill="#000000" fill-rule="nonzero" fill-opacity="1"></path><path clip-path="url(#clip730)" d="M209.26 109.271 Q205.649 109.271 203.82 112.836 Q202.014 116.377 202.014 123.507 Q202.014 130.613 203.82 134.178 Q205.649 137.72 209.26 137.72 Q212.894 137.72 214.699 134.178 Q216.528 130.613 216.528 123.507 Q216.528 116.377 214.699 112.836 Q212.894 109.271 209.26 109.271 M209.26 105.567 Q215.07 105.567 218.125 110.174 Q221.204 114.757 221.204 123.507 Q221.204 132.234 218.125 136.84 Q215.07 141.423 209.26 141.423 Q203.449 141.423 200.371 136.84 Q197.315 132.234 197.315 123.507 Q197.315 114.757 200.371 110.174 Q203.449 105.567 209.26 105.567 Z" fill="#000000" fill-rule="nonzero" fill-opacity="1"></path><path clip-path="url(#clip730)" d="M16.4842 943.625 L16.4842 934.044 L48.8219 921.917 L16.4842 909.727 L16.4842 900.147 L64.0042 900.147 L64.0042 906.417 L22.277 906.417 L54.8694 918.671 L54.8694 925.132 L22.277 937.386 L64.0042 937.386 L64.0042 943.625 L16.4842 943.625 Z" fill="#000000" fill-rule="nonzero" fill-opacity="1"></path><path clip-path="url(#clip730)" d="M32.4621 873.825 Q32.4621 878.535 36.1542 881.272 Q39.8145 884.01 46.212 884.01 Q52.6095 884.01 56.3017 881.304 Q59.9619 878.567 59.9619 873.825 Q59.9619 869.146 56.2698 866.409 Q52.5777 863.671 46.212 863.671 Q39.8781 863.671 36.186 866.409 Q32.4621 869.146 32.4621 873.825 M27.4968 873.825 Q27.4968 866.186 32.4621 861.825 Q37.4273 857.465 46.212 857.465 Q54.9649 857.465 59.9619 861.825 Q64.9272 866.186 64.9272 873.825 Q64.9272 881.495 59.9619 885.856 Q54.9649 890.184 46.212 890.184 Q37.4273 890.184 32.4621 885.856 Q27.4968 881.495 27.4968 873.825 Z" fill="#000000" fill-rule="nonzero" fill-opacity="1"></path><path clip-path="url(#clip730)" d="M32.4621 833.943 Q32.4621 838.654 36.1542 841.391 Q39.8145 844.129 46.212 844.129 Q52.6095 844.129 56.3017 841.423 Q59.9619 838.686 59.9619 833.943 Q59.9619 829.265 56.2698 826.527 Q52.5777 823.79 46.212 823.79 Q39.8781 823.79 36.186 826.527 Q32.4621 829.265 32.4621 833.943 M27.4968 833.943 Q27.4968 826.305 32.4621 821.944 Q37.4273 817.584 46.212 817.584 Q54.9649 817.584 59.9619 821.944 Q64.9272 826.305 64.9272 833.943 Q64.9272 841.614 59.9619 845.975 Q54.9649 850.303 46.212 850.303 Q37.4273 850.303 32.4621 845.975 Q27.4968 841.614 27.4968 833.943 Z" fill="#000000" fill-rule="nonzero" fill-opacity="1"></path><path clip-path="url(#clip730)" d="M33.7671 784.418 L14.479 784.418 L14.479 778.562 L64.0042 778.562 L64.0042 784.418 L58.657 784.418 Q61.8398 786.264 63.3994 789.097 Q64.9272 791.898 64.9272 795.845 Q64.9272 802.306 59.771 806.38 Q54.6147 810.422 46.212 810.422 Q37.8093 810.422 32.6531 806.38 Q27.4968 802.306 27.4968 795.845 Q27.4968 791.898 29.0564 789.097 Q30.5842 786.264 33.7671 784.418 M46.212 804.375 Q52.6732 804.375 56.3653 801.733 Q60.0256 799.059 60.0256 794.412 Q60.0256 789.765 56.3653 787.092 Q52.6732 784.418 46.212 784.418 Q39.7508 784.418 36.0905 787.092 Q32.3984 789.765 32.3984 794.412 Q32.3984 799.059 36.0905 801.733 Q39.7508 804.375 46.212 804.375 Z" fill="#000000" fill-rule="nonzero" fill-opacity="1"></path><path clip-path="url(#clip730)" d="M14.479 745.778 L14.479 739.922 L64.0042 739.922 L64.0042 745.778 L14.479 745.778 Z" fill="#000000" fill-rule="nonzero" fill-opacity="1"></path><path clip-path="url(#clip730)" d="M44.7161 697.176 L47.5806 697.176 L47.5806 724.103 Q53.6281 723.721 56.8109 720.475 Q59.9619 717.196 59.9619 711.372 Q59.9619 707.998 59.1344 704.847 Q58.3069 701.664 56.6518 698.545 L62.1899 698.545 Q63.5267 701.696 64.227 705.006 Q64.9272 708.316 64.9272 711.722 Q64.9272 720.252 59.9619 725.249 Q54.9967 730.214 46.5303 730.214 Q37.7774 730.214 32.6531 725.504 Q27.4968 720.761 27.4968 712.74 Q27.4968 705.547 32.1438 701.378 Q36.7589 697.176 44.7161 697.176 M42.9973 703.033 Q38.1912 703.096 35.3266 705.738 Q32.4621 708.348 32.4621 712.677 Q32.4621 717.578 35.2312 720.538 Q38.0002 723.467 43.0292 723.912 L42.9973 703.033 Z" fill="#000000" fill-rule="nonzero" fill-opacity="1"></path><path clip-path="url(#clip730)" d="M28.3562 691.765 L28.3562 685.559 L58.275 674.419 L28.3562 663.279 L28.3562 657.072 L64.0042 670.44 L64.0042 678.397 L28.3562 691.765 Z" fill="#000000" fill-rule="nonzero" fill-opacity="1"></path><path clip-path="url(#clip730)" d="M44.7161 618.496 L47.5806 618.496 L47.5806 645.423 Q53.6281 645.041 56.8109 641.795 Q59.9619 638.516 59.9619 632.692 Q59.9619 629.318 59.1344 626.167 Q58.3069 622.984 56.6518 619.865 L62.1899 619.865 Q63.5267 623.016 64.227 626.326 Q64.9272 629.636 64.9272 633.042 Q64.9272 641.572 59.9619 646.569 Q54.9967 651.534 46.5303 651.534 Q37.7774 651.534 32.6531 646.823 Q27.4968 642.081 27.4968 634.06 Q27.4968 626.867 32.1438 622.697 Q36.7589 618.496 44.7161 618.496 M42.9973 624.353 Q38.1912 624.416 35.3266 627.058 Q32.4621 629.668 32.4621 633.997 Q32.4621 638.898 35.2312 641.858 Q38.0002 644.786 43.0292 645.232 L42.9973 624.353 Z" fill="#000000" fill-rule="nonzero" fill-opacity="1"></path><path clip-path="url(#clip730)" d="M14.479 608.884 L14.479 603.027 L64.0042 603.027 L64.0042 608.884 L14.479 608.884 Z" fill="#000000" fill-rule="nonzero" fill-opacity="1"></path><path clip-path="url(#clip730)" d="M972.36 12.096 L984.553 12.096 L999.987 53.2532 L1015.5 12.096 L1027.7 12.096 L1027.7 72.576 L1019.72 72.576 L1019.72 19.4686 L1004.12 60.9499 L995.896 60.9499 L980.3 19.4686 L980.3 72.576 L972.36 72.576 L972.36 12.096 Z" fill="#000000" fill-rule="nonzero" fill-opacity="1"></path><path clip-path="url(#clip730)" d="M1061.2 32.4315 Q1055.2 32.4315 1051.72 37.1306 Q1048.23 41.7891 1048.23 49.9314 Q1048.23 58.0738 1051.68 62.7728 Q1055.16 67.4314 1061.2 67.4314 Q1067.15 67.4314 1070.64 62.7323 Q1074.12 58.0333 1074.12 49.9314 Q1074.12 41.8701 1070.64 37.1711 Q1067.15 32.4315 1061.2 32.4315 M1061.2 26.1121 Q1070.92 26.1121 1076.47 32.4315 Q1082.02 38.7509 1082.02 49.9314 Q1082.02 61.0714 1076.47 67.4314 Q1070.92 73.7508 1061.2 73.7508 Q1051.43 73.7508 1045.88 67.4314 Q1040.37 61.0714 1040.37 49.9314 Q1040.37 38.7509 1045.88 32.4315 Q1051.43 26.1121 1061.2 26.1121 Z" fill="#000000" fill-rule="nonzero" fill-opacity="1"></path><path clip-path="url(#clip730)" d="M1111.95 32.4315 Q1105.96 32.4315 1102.48 37.1306 Q1098.99 41.7891 1098.99 49.9314 Q1098.99 58.0738 1102.43 62.7728 Q1105.92 67.4314 1111.95 67.4314 Q1117.91 67.4314 1121.39 62.7323 Q1124.88 58.0333 1124.88 49.9314 Q1124.88 41.8701 1121.39 37.1711 Q1117.91 32.4315 1111.95 32.4315 M1111.95 26.1121 Q1121.68 26.1121 1127.23 32.4315 Q1132.78 38.7509 1132.78 49.9314 Q1132.78 61.0714 1127.23 67.4314 Q1121.68 73.7508 1111.95 73.7508 Q1102.19 73.7508 1096.64 67.4314 Q1091.13 61.0714 1091.13 49.9314 Q1091.13 38.7509 1096.64 32.4315 Q1102.19 26.1121 1111.95 26.1121 Z" fill="#000000" fill-rule="nonzero" fill-opacity="1"></path><path clip-path="url(#clip730)" d="M1174.99 34.0924 L1174.99 9.54393 L1182.44 9.54393 L1182.44 72.576 L1174.99 72.576 L1174.99 65.7705 Q1172.64 69.8214 1169.03 71.8063 Q1165.47 73.7508 1160.44 73.7508 Q1152.22 73.7508 1147.04 67.1883 Q1141.89 60.6258 1141.89 49.9314 Q1141.89 39.2371 1147.04 32.6746 Q1152.22 26.1121 1160.44 26.1121 Q1165.47 26.1121 1169.03 28.0971 Q1172.64 30.0415 1174.99 34.0924 M1149.59 49.9314 Q1149.59 58.1548 1152.95 62.8538 Q1156.35 67.5124 1162.27 67.5124 Q1168.18 67.5124 1171.58 62.8538 Q1174.99 58.1548 1174.99 49.9314 Q1174.99 41.7081 1171.58 37.0496 Q1168.18 32.3505 1162.27 32.3505 Q1156.35 32.3505 1152.95 37.0496 Q1149.59 41.7081 1149.59 49.9314 Z" fill="#000000" fill-rule="nonzero" fill-opacity="1"></path><path clip-path="url(#clip730)" d="M1224.16 9.54393 L1231.62 9.54393 L1231.62 72.576 L1224.16 72.576 L1224.16 9.54393 Z" fill="#000000" fill-rule="nonzero" fill-opacity="1"></path><path clip-path="url(#clip730)" d="M1286.02 48.0275 L1286.02 51.6733 L1251.75 51.6733 Q1252.24 59.3701 1256.37 63.421 Q1260.54 67.4314 1267.95 67.4314 Q1272.25 67.4314 1276.26 66.3781 Q1280.31 65.3249 1284.28 63.2184 L1284.28 70.267 Q1280.27 71.9684 1276.06 72.8596 Q1271.84 73.7508 1267.51 73.7508 Q1256.65 73.7508 1250.29 67.4314 Q1243.97 61.1119 1243.97 50.3365 Q1243.97 39.1965 1249.97 32.6746 Q1256 26.1121 1266.21 26.1121 Q1275.37 26.1121 1280.67 32.0264 Q1286.02 37.9003 1286.02 48.0275 M1278.57 45.84 Q1278.49 39.7232 1275.12 36.0774 Q1271.8 32.4315 1266.29 32.4315 Q1260.06 32.4315 1256.29 35.9558 Q1252.56 39.4801 1251.99 45.8805 L1278.57 45.84 Z" fill="#000000" fill-rule="nonzero" fill-opacity="1"></path><path clip-path="url(#clip730)" d="M1292.91 27.2059 L1300.81 27.2059 L1314.99 65.2844 L1329.16 27.2059 L1337.06 27.2059 L1320.05 72.576 L1309.92 72.576 L1292.91 27.2059 Z" fill="#000000" fill-rule="nonzero" fill-opacity="1"></path><path clip-path="url(#clip730)" d="M1386.16 48.0275 L1386.16 51.6733 L1351.89 51.6733 Q1352.38 59.3701 1356.51 63.421 Q1360.68 67.4314 1368.09 67.4314 Q1372.39 67.4314 1376.4 66.3781 Q1380.45 65.3249 1384.42 63.2184 L1384.42 70.267 Q1380.41 71.9684 1376.19 72.8596 Q1371.98 73.7508 1367.65 73.7508 Q1356.79 73.7508 1350.43 67.4314 Q1344.11 61.1119 1344.11 50.3365 Q1344.11 39.1965 1350.11 32.6746 Q1356.14 26.1121 1366.35 26.1121 Q1375.51 26.1121 1380.81 32.0264 Q1386.16 37.9003 1386.16 48.0275 M1378.71 45.84 Q1378.63 39.7232 1375.26 36.0774 Q1371.94 32.4315 1366.43 32.4315 Q1360.19 32.4315 1356.43 35.9558 Q1352.7 39.4801 1352.13 45.8805 L1378.71 45.84 Z" fill="#000000" fill-rule="nonzero" fill-opacity="1"></path><path clip-path="url(#clip730)" d="M1398.39 9.54393 L1405.85 9.54393 L1405.85 72.576 L1398.39 72.576 L1398.39 9.54393 Z" fill="#000000" fill-rule="nonzero" fill-opacity="1"></path><path clip-path="url(#clip730)" d="M1450.37 28.5427 L1450.37 35.5912 Q1447.21 33.9709 1443.8 33.1607 Q1440.4 32.3505 1436.76 32.3505 Q1431.21 32.3505 1428.41 34.0519 Q1425.66 35.7533 1425.66 39.156 Q1425.66 41.7486 1427.64 43.2475 Q1429.63 44.7058 1435.62 46.0426 L1438.17 46.6097 Q1446.11 48.3111 1449.44 51.4303 Q1452.8 54.509 1452.8 60.0587 Q1452.8 66.3781 1447.77 70.0644 Q1442.79 73.7508 1434.04 73.7508 Q1430.4 73.7508 1426.43 73.0216 Q1422.5 72.3329 1418.12 70.9151 L1418.12 63.2184 Q1422.25 65.3654 1426.26 66.4591 Q1430.27 67.5124 1434.2 67.5124 Q1439.47 67.5124 1442.31 65.73 Q1445.14 63.9071 1445.14 60.6258 Q1445.14 57.5877 1443.08 55.9673 Q1441.05 54.3469 1434.12 52.8481 L1431.53 52.2405 Q1424.6 50.7821 1421.52 47.7845 Q1418.45 44.7463 1418.45 39.4801 Q1418.45 33.0797 1422.98 29.5959 Q1427.52 26.1121 1435.86 26.1121 Q1440 26.1121 1443.64 26.7198 Q1447.29 27.3274 1450.37 28.5427 Z" fill="#000000" fill-rule="nonzero" fill-opacity="1"></path><path clip-path="url(#clip730)" d="M1499.54 18.8205 L1499.54 41.5461 L1509.83 41.5461 Q1515.55 41.5461 1518.67 38.5889 Q1521.78 35.6318 1521.78 30.163 Q1521.78 24.7348 1518.67 21.7777 Q1515.55 18.8205 1509.83 18.8205 L1499.54 18.8205 M1491.36 12.096 L1509.83 12.096 Q1520 12.096 1525.19 16.714 Q1530.41 21.2916 1530.41 30.163 Q1530.41 39.1155 1525.19 43.6931 Q1520 48.2706 1509.83 48.2706 L1499.54 48.2706 L1499.54 72.576 L1491.36 72.576 L1491.36 12.096 Z" fill="#000000" fill-rule="nonzero" fill-opacity="1"></path><path clip-path="url(#clip730)" d="M1541.07 9.54393 L1548.52 9.54393 L1548.52 72.576 L1541.07 72.576 L1541.07 9.54393 Z" fill="#000000" fill-rule="nonzero" fill-opacity="1"></path><path clip-path="url(#clip730)" d="M1581.7 32.4315 Q1575.7 32.4315 1572.22 37.1306 Q1568.73 41.7891 1568.73 49.9314 Q1568.73 58.0738 1572.18 62.7728 Q1575.66 67.4314 1581.7 67.4314 Q1587.65 67.4314 1591.14 62.7323 Q1594.62 58.0333 1594.62 49.9314 Q1594.62 41.8701 1591.14 37.1711 Q1587.65 32.4315 1581.7 32.4315 M1581.7 26.1121 Q1591.42 26.1121 1596.97 32.4315 Q1602.52 38.7509 1602.52 49.9314 Q1602.52 61.0714 1596.97 67.4314 Q1591.42 73.7508 1581.7 73.7508 Q1571.93 73.7508 1566.38 67.4314 Q1560.88 61.0714 1560.88 49.9314 Q1560.88 38.7509 1566.38 32.4315 Q1571.93 26.1121 1581.7 26.1121 Z" fill="#000000" fill-rule="nonzero" fill-opacity="1"></path><path clip-path="url(#clip730)" d="M1622.25 14.324 L1622.25 27.2059 L1637.6 27.2059 L1637.6 32.9987 L1622.25 32.9987 L1622.25 57.6282 Q1622.25 63.1779 1623.75 64.7578 Q1625.28 66.3376 1629.94 66.3376 L1637.6 66.3376 L1637.6 72.576 L1629.94 72.576 Q1621.32 72.576 1618.03 69.3758 Q1614.75 66.1351 1614.75 57.6282 L1614.75 32.9987 L1609.28 32.9987 L1609.28 27.2059 L1614.75 27.2059 L1614.75 14.324 L1622.25 14.324 Z" fill="#000000" fill-rule="nonzero" fill-opacity="1"></path><polyline clip-path="url(#clip732)" style="stroke:#009af9; stroke-linecap:round; stroke-linejoin:round; stroke-width:8; stroke-opacity:1; fill:none" points="257.204,188.458 259.302,191.377 261.399,194.283 263.497,197.174 265.595,200.05 267.692,202.912 269.79,205.76 271.888,208.594 273.985,211.413 276.083,214.218 278.181,217.01 280.278,219.787 282.376,222.551 284.473,225.3 286.571,228.036 288.669,230.759 290.766,233.468 292.864,236.163 294.962,238.845 297.059,241.513 299.157,244.168 301.255,246.81 303.352,249.439 305.45,252.054 307.548,254.657 309.645,257.246 311.743,259.823 313.841,262.386 315.938,264.937 318.036,267.475 320.134,270.001 322.231,272.514 324.329,275.014 326.426,277.502 328.524,279.977 330.622,282.44 332.719,284.891 334.817,287.329 336.915,289.756 339.012,292.17 341.11,294.572 343.208,296.962 345.305,299.341 347.403,301.707 349.501,304.061 351.598,306.404 353.696,308.735 355.794,311.055 357.891,313.363 359.989,315.659 362.087,317.944 364.184,320.217 366.282,322.48 368.379,324.73 370.477,326.97 372.575,329.198 374.672,331.416 376.77,333.622 378.868,335.817 380.965,338.001 383.063,340.175 385.161,342.337 387.258,344.489 389.356,346.63 391.454,348.76 393.551,350.88 395.649,352.989 397.747,355.088 399.844,357.176 401.942,359.253 404.039,361.321 406.137,363.377 408.235,365.424 410.332,367.461 412.43,369.487 414.528,371.503 416.625,373.509 418.723,375.505 420.821,377.491 422.918,379.468 425.016,381.434 427.114,383.391 429.211,385.337 431.309,387.274 433.407,389.202 435.504,391.12 437.602,393.028 439.7,394.926 441.797,396.816 443.895,398.695 445.992,400.566 448.09,402.427 450.188,404.278 452.285,406.121 454.383,407.954 456.481,409.778 458.578,411.593 460.676,413.399 462.774,415.196 464.871,416.984 466.969,418.763 469.067,420.533 471.164,422.295 473.262,424.047 475.36,425.791 477.457,427.526 479.555,429.252 481.653,430.97 483.75,432.679 485.848,434.38 487.945,436.072 490.043,437.756 492.141,439.431 494.238,441.098 496.336,442.757 498.434,444.407 500.531,446.049 502.629,447.683 504.727,449.309 506.824,450.926 508.922,452.536 511.02,454.138 513.117,455.731 515.215,457.317 517.313,458.894 519.41,460.464 521.508,462.026 523.606,463.58 525.703,465.127 527.801,466.665 529.898,468.196 531.996,469.72 534.094,471.236 536.191,472.744 538.289,474.244 540.387,475.738 542.484,477.223 544.582,478.702 546.68,480.173 548.777,481.636 550.875,483.093 552.973,484.542 555.07,485.983 557.168,487.418 559.266,488.845 561.363,490.266 563.461,491.679 565.559,493.085 567.656,494.484 569.754,495.876 571.851,497.261 573.949,498.64 576.047,500.011 578.144,501.376 580.242,502.733 582.34,504.084 584.437,505.429 586.535,506.766 588.633,508.097 590.73,509.421 592.828,510.739 594.926,512.049 597.023,513.354 599.121,514.652 601.219,515.943 603.316,517.228 605.414,518.507 607.511,519.779 609.609,521.045 611.707,522.304 613.804,523.557 615.902,524.804 618,526.045 620.097,527.28 622.195,528.508 624.293,529.73 626.39,530.946 628.488,532.156 630.586,533.36 632.683,534.558 634.781,535.751 636.879,536.937 638.976,538.117 641.074,539.291 643.172,540.459 645.269,541.622 647.367,542.779 649.464,543.93 651.562,545.075 653.66,546.214 655.757,547.348 657.855,548.476 659.953,549.599 662.05,550.716 664.148,551.827 666.246,552.933 668.343,554.033 670.441,555.128 672.539,556.218 674.636,557.302 676.734,558.38 678.832,559.453 680.929,560.521 683.027,561.583 685.125,562.64 687.222,563.692 689.32,564.739 691.417,565.78 693.515,566.817 695.613,567.848 697.71,568.873 699.808,569.894 701.906,570.91 704.003,571.92 706.101,572.926 708.199,573.927 710.296,574.922 712.394,575.913 714.492,576.898 716.589,577.879 718.687,578.855 720.785,579.826 722.882,580.792 724.98,581.753 727.078,582.71 729.175,583.661 731.273,584.608 733.37,585.55 735.468,586.488 737.566,587.421 739.663,588.349 741.761,589.272 743.859,590.191 745.956,591.106 748.054,592.015 750.152,592.921 752.249,593.821 754.347,594.718 756.445,595.609 758.542,596.496 760.64,597.379 762.738,598.258 764.835,599.132 766.933,600.001 769.031,600.867 771.128,601.728 773.226,602.584 775.323,603.437 777.421,604.285 779.519,605.129 781.616,605.969 783.714,606.804 785.812,607.635 787.909,608.463 790.007,609.286 792.105,610.105 794.202,610.919 796.3,611.73 798.398,612.537 800.495,613.34 802.593,614.138 804.691,614.933 806.788,615.724 808.886,616.511 810.984,617.294 813.081,618.072 815.179,618.848 817.276,619.619 819.374,620.386 821.472,621.15 823.569,621.909 825.667,622.665 827.765,623.417 829.862,624.166 831.96,624.91 834.058,625.651 836.155,626.389 838.253,627.122 840.351,627.852 842.448,628.578 844.546,629.301 846.644,630.02 848.741,630.735 850.839,631.447 852.936,632.156 855.034,632.86 857.132,633.562 859.229,634.259 861.327,634.954 863.425,635.645 865.522,636.332 867.62,637.016 869.718,637.696 871.815,638.374 873.913,639.047 876.011,639.718 878.108,640.385 880.206,641.049 882.304,641.709 884.401,642.366 886.499,643.02 888.597,643.671 890.694,644.318 892.792,644.962 894.889,645.603 896.987,646.241 899.085,646.875 901.182,647.507 903.28,648.135 905.378,648.76 907.475,649.382 909.573,650.001 911.671,650.616 913.768,651.229 915.866,651.839 917.964,652.445 920.061,653.049 922.159,653.649 924.257,654.247 926.354,654.841 928.452,655.433 930.55,656.021 932.647,656.607 934.745,657.19 936.842,657.77 938.94,658.347 941.038,658.921 943.135,659.492 945.233,660.06 947.331,660.626 949.428,661.188 951.526,661.748 953.624,662.305 955.721,662.86 957.819,663.411 959.917,663.96 962.014,664.506 964.112,665.049 966.21,665.59 968.307,666.128 970.405,666.663 972.503,667.195 974.6,667.725 976.698,668.252 978.795,668.777 980.893,669.299 982.991,669.818 985.088,670.335 987.186,670.849 989.284,671.361 991.381,671.87 993.479,672.376 995.577,672.88 997.674,673.381 999.772,673.88 1001.87,674.377 1003.97,674.871 1006.06,675.362 1008.16,675.851 1010.26,676.338 1012.36,676.822 1014.46,677.304 1016.55,677.783 1018.65,678.26 1020.75,678.735 1022.85,679.207 1024.94,679.677 1027.04,680.144 1029.14,680.61 1031.24,681.072 1033.33,681.533 1035.43,681.991 1037.53,682.447 1039.63,682.901 1041.72,683.352 1043.82,683.801 1045.92,684.248 1048.02,684.693 1050.12,685.136 1052.21,685.576 1054.31,686.014 1056.41,686.45 1058.51,686.883 1060.6,687.315 1062.7,687.744 1064.8,688.172 1066.9,688.597 1068.99,689.02 1071.09,689.441 1073.19,689.86 1075.29,690.276 1077.38,690.691 1079.48,691.103 1081.58,691.514 1083.68,691.922 1085.78,692.329 1087.87,692.733 1089.97,693.136 1092.07,693.536 1094.17,693.934 1096.26,694.331 1098.36,694.725 1100.46,695.118 1102.56,695.508 1104.65,695.897 1106.75,696.283 1108.85,696.668 1110.95,697.051 1113.05,697.432 1115.14,697.811 1117.24,698.188 1119.34,698.563 1121.44,698.936 1123.53,699.308 1125.63,699.677 1127.73,700.045 1129.83,700.411 1131.92,700.775 1134.02,701.137 1136.12,701.498 1138.22,701.856 1140.31,702.213 1142.41,702.568 1144.51,702.921 1146.61,703.273 1148.71,703.623 1150.8,703.971 1152.9,704.317 1155,704.662 1157.1,705.004 1159.19,705.345 1161.29,705.685 1163.39,706.023 1165.49,706.359 1167.58,706.693 1169.68,707.026 1171.78,707.357 1173.88,707.686 1175.97,708.014 1178.07,708.34 1180.17,708.664 1182.27,708.987 1184.37,709.308 1186.46,709.628 1188.56,709.946 1190.66,710.262 1192.76,710.577 1194.85,710.89 1196.95,711.202 1199.05,711.512 1201.15,711.821 1203.24,712.128 1205.34,712.433 1207.44,712.737 1209.54,713.04 1211.63,713.341 1213.73,713.64 1215.83,713.938 1217.93,714.234 1220.03,714.529 1222.12,714.823 1224.22,715.115 1226.32,715.406 1228.42,715.695 1230.51,715.982 1232.61,716.269 1234.71,716.553 1236.81,716.837 1238.9,717.119 1241,717.399 1243.1,717.679 1245.2,717.956 1247.29,718.233 1249.39,718.508 1251.49,718.781 1253.59,719.054 1255.69,719.325 1257.78,719.594 1259.88,719.862 1261.98,720.129 1264.08,720.395 1266.17,720.659 1268.27,720.922 1270.37,721.184 1272.47,721.444 1274.56,721.703 1276.66,721.961 1278.76,722.217 1280.86,722.472 1282.95,722.726 1285.05,722.979 1287.15,723.23 1289.25,723.48 1291.35,723.729 1293.44,723.977 1295.54,724.223 1297.64,724.468 1299.74,724.712 1301.83,724.955 1303.93,725.196 1306.03,725.437 1308.13,725.676 1310.22,725.914 1312.32,726.15 1314.42,726.386 1316.52,726.62 1318.61,726.853 1320.71,727.085 1322.81,727.316 1324.91,727.546 1327.01,727.775 1329.1,728.002 1331.2,728.228 1333.3,728.454 1335.4,728.678 1337.49,728.901 1339.59,729.122 1341.69,729.343 1343.79,729.563 1345.88,729.781 1347.98,729.999 1350.08,730.215 1352.18,730.43 1354.27,730.645 1356.37,730.858 1358.47,731.07 1360.57,731.281 1362.67,731.491 1364.76,731.7 1366.86,731.907 1368.96,732.114 1371.06,732.32 1373.15,732.525 1375.25,732.729 1377.35,732.931 1379.45,733.133 1381.54,733.334 1383.64,733.533 1385.74,733.732 1387.84,733.93 1389.93,734.126 1392.03,734.322 1394.13,734.517 1396.23,734.711 1398.33,734.903 1400.42,735.095 1402.52,735.286 1404.62,735.476 1406.72,735.665 1408.81,735.853 1410.91,736.04 1413.01,736.226 1415.11,736.411 1417.2,736.596 1419.3,736.779 1421.4,736.962 1423.5,737.143 1425.59,737.324 1427.69,737.503 1429.79,737.682 1431.89,737.86 1433.99,738.037 1436.08,738.213 1438.18,738.389 1440.28,738.563 1442.38,738.737 1444.47,738.909 1446.57,739.081 1448.67,739.252 1450.77,739.422 1452.86,739.591 1454.96,739.76 1457.06,739.927 1459.16,740.094 1461.25,740.26 1463.35,740.425 1465.45,740.589 1467.55,740.753 1469.65,740.915 1471.74,741.077 1473.84,741.238 1475.94,741.398 1478.04,741.558 1480.13,741.716 1482.23,741.874 1484.33,742.031 1486.43,742.187 1488.52,742.342 1490.62,742.497 1492.72,742.651 1494.82,742.804 1496.91,742.956 1499.01,743.108 1501.11,743.259 1503.21,743.409 1505.31,743.558 1507.4,743.707 1509.5,743.855 1511.6,744.002 1513.7,744.148 1515.79,744.294 1517.89,744.439 1519.99,744.583 1522.09,744.727 1524.18,744.869 1526.28,745.011 1528.38,745.153 1530.48,745.293 1532.57,745.433 1534.67,745.573 1536.77,745.711 1538.87,745.849 1540.97,745.986 1543.06,746.123 1545.16,746.258 1547.26,746.394 1549.36,746.528 1551.45,746.662 1553.55,746.795 1555.65,746.927 1557.75,747.059 1559.84,747.19 1561.94,747.321 1564.04,747.451 1566.14,747.58 1568.23,747.708 1570.33,747.836 1572.43,747.964 1574.53,748.09 1576.63,748.216 1578.72,748.342 1580.82,748.466 1582.92,748.591 1585.02,748.714 1587.11,748.837 1589.21,748.959 1591.31,749.081 1593.41,749.202 1595.5,749.323 1597.6,749.442 1599.7,749.562 1601.8,749.68 1603.9,749.798 1605.99,749.916 1608.09,750.033 1610.19,750.149 1612.29,750.265 1614.38,750.38 1616.48,750.495 1618.58,750.609 1620.68,750.722 1622.77,750.835 1624.87,750.947 1626.97,751.059 1629.07,751.17 1631.16,751.281 1633.26,751.391 1635.36,751.5 1637.46,751.609 1639.56,751.718 1641.65,751.826 1643.75,751.933 1645.85,752.04 1647.95,752.146 1650.04,752.252 1652.14,752.357 1654.24,752.462 1656.34,752.566 1658.43,752.67 1660.53,752.773 1662.63,752.875 1664.73,752.978 1666.82,753.079 1668.92,753.18 1671.02,753.281 1673.12,753.381 1675.22,753.48 1677.31,753.579 1679.41,753.678 1681.51,753.776 1683.61,753.874 1685.7,753.971 1687.8,754.067 1689.9,754.164 1692,754.259 1694.09,754.354 1696.19,754.449 1698.29,754.543 1700.39,754.637 1702.48,754.73 1704.58,754.823 1706.68,754.916 1708.78,755.007 1710.88,755.099 1712.97,755.19 1715.07,755.28 1717.17,755.37 1719.27,755.46 1721.36,755.549 1723.46,755.638 1725.56,755.726 1727.66,755.814 1729.75,755.901 1731.85,755.988 1733.95,756.075 1736.05,756.161 1738.14,756.247 1740.24,756.332 1742.34,756.417 1744.44,756.501 1746.54,756.585 1748.63,756.669 1750.73,756.752 1752.83,756.835 1754.93,756.917 1757.02,756.999 1759.12,757.08 1761.22,757.161 1763.32,757.242 1765.41,757.322 1767.51,757.402 1769.61,757.482 1771.71,757.561 1773.8,757.64 1775.9,757.718 1778,757.796 1780.1,757.873 1782.2,757.95 1784.29,758.027 1786.39,758.103 1788.49,758.179 1790.59,758.255 1792.68,758.33 1794.78,758.405 1796.88,758.48 1798.98,758.554 1801.07,758.628 1803.17,758.701 1805.27,758.774 1807.37,758.847 1809.46,758.919 1811.56,758.991 1813.66,759.062 1815.76,759.134 1817.86,759.204 1819.95,759.275 1822.05,759.345 1824.15,759.415 1826.25,759.484 1828.34,759.554 1830.44,759.622 1832.54,759.691 1834.64,759.759 1836.73,759.827 1838.83,759.894 1840.93,759.961 1843.03,760.028 1845.12,760.094 1847.22,760.16 1849.32,760.226 1851.42,760.291 1853.52,760.357 1855.61,760.421 1857.71,760.486 1859.81,760.55 1861.91,760.614 1864,760.677 1866.1,760.74 1868.2,760.803 1870.3,760.866 1872.39,760.928 1874.49,760.99 1876.59,761.051 1878.69,761.113 1880.78,761.174 1882.88,761.234 1884.98,761.295 1887.08,761.355 1889.18,761.415 1891.27,761.474 1893.37,761.533 1895.47,761.592 1897.57,761.651 1899.66,761.709 1901.76,761.767 1903.86,761.825 1905.96,761.882 1908.05,761.939 1910.15,761.996 1912.25,762.053 1914.35,762.109 1916.44,762.165 1918.54,762.221 1920.64,762.276 1922.74,762.332 1924.84,762.386 1926.93,762.441 1929.03,762.495 1931.13,762.549 1933.23,762.603 1935.32,762.657 1937.42,762.71 1939.52,762.763 1941.62,762.816 1943.71,762.868 1945.81,762.92 1947.91,762.972 1950.01,763.024 1952.1,763.075 1954.2,763.127 1956.3,763.178 1958.4,763.228 1960.5,763.279 1962.59,763.329 1964.69,763.379 1966.79,763.428 1968.89,763.478 1970.98,763.527 1973.08,763.576 1975.18,763.624 1977.28,763.673 1979.37,763.721 1981.47,763.769 1983.57,763.817 1985.67,763.864 1987.76,763.911 1989.86,763.958 1991.96,764.005 1994.06,764.052 1996.16,764.098 1998.25,764.144 2000.35,764.19 2002.45,764.235 2004.55,764.281 2006.64,764.326 2008.74,764.371 2010.84,764.416 2012.94,764.46 2015.03,764.504 2017.13,764.548 2019.23,764.592 2021.33,764.636 2023.42,764.679 2025.52,764.722 2027.62,764.765 2029.72,764.808 2031.82,764.85 2033.91,764.893 2036.01,764.935 2038.11,764.977 2040.21,765.018 2042.3,765.06 2044.4,765.101 2046.5,765.142 2048.6,765.183 2050.69,765.224 2052.79,765.264 2054.89,765.304 2056.99,765.344 2059.08,765.384 2061.18,765.424 2063.28,765.463 2065.38,765.502 2067.48,765.542 2069.57,765.58 2071.67,765.619 2073.77,765.658 2075.87,765.696 2077.96,765.734 2080.06,765.772 2082.16,765.81 2084.26,765.847 2086.35,765.884 2088.45,765.922 2090.55,765.959 2092.65,765.995 2094.75,766.032 2096.84,766.068 2098.94,766.105 2101.04,766.141 2103.14,766.176 2105.23,766.212 2107.33,766.248 2109.43,766.283 2111.53,766.318 2113.62,766.353 2115.72,766.388 2117.82,766.423 2119.92,766.457 2122.01,766.491 2124.11,766.526 2126.21,766.56 2128.31,766.593 2130.41,766.627 2132.5,766.66 2134.6,766.694 2136.7,766.727 2138.8,766.76 2140.89,766.793 2142.99,766.825 2145.09,766.858 2147.19,766.89 2149.28,766.922 2151.38,766.954 2153.48,766.986 2155.58,767.018 2157.67,767.049 2159.77,767.08 2161.87,767.112 2163.97,767.143 2166.07,767.174 2168.16,767.204 2170.26,767.235 2172.36,767.265 2174.46,767.296 2176.55,767.326 2178.65,767.356 2180.75,767.385 2182.85,767.415 2184.94,767.445 2187.04,767.474 2189.14,767.503 2191.24,767.532 2193.33,767.561 2195.43,767.59 2197.53,767.619 2199.63,767.647 2201.73,767.675 2203.82,767.704 2205.92,767.732 2208.02,767.76 2210.12,767.787 2212.21,767.815 2214.31,767.843 2216.41,767.87 2218.51,767.897 2220.6,767.924 2222.7,767.951 2224.8,767.978 2226.9,768.005 2228.99,768.031 2231.09,768.058 2233.19,768.084 2235.29,768.11 2237.39,768.136 2239.48,768.162 2241.58,768.188 2243.68,768.214 2245.78,768.239 2247.87,768.265 2249.97,768.29 2252.07,768.315 2254.17,768.34 2256.26,768.365 2258.36,768.39 2260.46,768.414 2262.56,768.439 2264.65,768.463 2266.75,768.487 2268.85,768.512 2270.95,768.536 2273.05,768.559 2275.14,768.583 2277.24,768.607 2279.34,768.63 2281.44,768.654 2283.53,768.677 2285.63,768.7 2287.73,768.724 2289.83,768.746 2291.92,768.769 2294.02,768.792 2296.12,768.815 2298.22,768.837 2300.31,768.86 2302.41,768.882 2304.51,768.904 2306.61,768.926 2308.71,768.948 2310.8,768.97 2312.9,768.992 2315,769.013 2317.1,769.035 2319.19,769.056 2321.29,769.078 2323.39,769.099 2325.49,769.12 2327.58,769.141 2329.68,769.162 2331.78,769.183 2333.88,769.203 2335.97,769.224 2338.07,769.244 2340.17,769.265 2342.27,769.285 2344.37,769.305 2346.46,769.325 2348.56,769.345 2350.66,769.365 2352.76,769.385 "></polyline>
<polyline clip-path="url(#clip732)" style="stroke:#e26f46; stroke-linecap:round; stroke-linejoin:round; stroke-width:8; stroke-opacity:1; fill:none" points="257.204,1358.19 259.302,1355.27 261.399,1352.37 263.497,1349.48 265.595,1346.6 267.692,1343.74 269.79,1340.89 271.888,1338.06 273.985,1335.24 276.083,1332.43 278.181,1329.64 280.278,1326.86 282.376,1324.1 284.473,1321.35 286.571,1318.62 288.669,1315.89 290.766,1313.18 292.864,1310.49 294.962,1307.81 297.059,1305.14 299.157,1302.48 301.255,1299.84 303.352,1297.21 305.45,1294.6 307.548,1292 309.645,1289.41 311.743,1286.83 313.841,1284.27 315.938,1281.71 318.036,1279.18 320.134,1276.65 322.231,1274.14 324.329,1271.64 326.426,1269.15 328.524,1266.67 330.622,1264.21 332.719,1261.76 334.817,1259.32 336.915,1256.9 339.012,1254.48 341.11,1252.08 343.208,1249.69 345.305,1247.31 347.403,1244.95 349.501,1242.59 351.598,1240.25 353.696,1237.92 355.794,1235.6 357.891,1233.29 359.989,1230.99 362.087,1228.71 364.184,1226.43 366.282,1224.17 368.379,1221.92 370.477,1219.68 372.575,1217.45 374.672,1215.24 376.77,1213.03 378.868,1210.83 380.965,1208.65 383.063,1206.48 385.161,1204.31 387.258,1202.16 389.356,1200.02 391.454,1197.89 393.551,1195.77 395.649,1193.66 397.747,1191.56 399.844,1189.48 401.942,1187.4 404.039,1185.33 406.137,1183.27 408.235,1181.23 410.332,1179.19 412.43,1177.17 414.528,1175.15 416.625,1173.14 418.723,1171.15 420.821,1169.16 422.918,1167.18 425.016,1165.22 427.114,1163.26 429.211,1161.31 431.309,1159.38 433.407,1157.45 435.504,1155.53 437.602,1153.62 439.7,1151.73 441.797,1149.84 443.895,1147.96 445.992,1146.09 448.09,1144.23 450.188,1142.37 452.285,1140.53 454.383,1138.7 456.481,1136.87 458.578,1135.06 460.676,1133.25 462.774,1131.46 464.871,1129.67 466.969,1127.89 469.067,1126.12 471.164,1124.36 473.262,1122.6 475.36,1120.86 477.457,1119.13 479.555,1117.4 481.653,1115.68 483.75,1113.97 485.848,1112.27 487.945,1110.58 490.043,1108.9 492.141,1107.22 494.238,1105.55 496.336,1103.9 498.434,1102.24 500.531,1100.6 502.629,1098.97 504.727,1097.34 506.824,1095.73 508.922,1094.12 511.02,1092.51 513.117,1090.92 515.215,1089.34 517.313,1087.76 519.41,1086.19 521.508,1084.63 523.606,1083.07 525.703,1081.53 527.801,1079.99 529.898,1078.46 531.996,1076.93 534.094,1075.42 536.191,1073.91 538.289,1072.41 540.387,1070.91 542.484,1069.43 544.582,1067.95 546.68,1066.48 548.777,1065.02 550.875,1063.56 552.973,1062.11 555.07,1060.67 557.168,1059.23 559.266,1057.81 561.363,1056.39 563.461,1054.97 565.559,1053.57 567.656,1052.17 569.754,1050.78 571.851,1049.39 573.949,1048.01 576.047,1046.64 578.144,1045.28 580.242,1043.92 582.34,1042.57 584.437,1041.22 586.535,1039.89 588.633,1038.56 590.73,1037.23 592.828,1035.91 594.926,1034.6 597.023,1033.3 599.121,1032 601.219,1030.71 603.316,1029.42 605.414,1028.15 607.511,1026.87 609.609,1025.61 611.707,1024.35 613.804,1023.09 615.902,1021.85 618,1020.61 620.097,1019.37 622.195,1018.14 624.293,1016.92 626.39,1015.71 628.488,1014.5 630.586,1013.29 632.683,1012.09 634.781,1010.9 636.879,1009.72 638.976,1008.54 641.074,1007.36 643.172,1006.19 645.269,1005.03 647.367,1003.87 649.464,1002.72 651.562,1001.58 653.66,1000.44 655.757,999.304 657.855,998.175 659.953,997.053 662.05,995.936 664.148,994.825 666.246,993.719 668.343,992.618 670.441,991.524 672.539,990.434 674.636,989.35 676.734,988.272 678.832,987.199 680.929,986.131 683.027,985.069 685.125,984.011 687.222,982.96 689.32,981.913 691.417,980.872 693.515,979.835 695.613,978.804 697.71,977.779 699.808,976.758 701.906,975.742 704.003,974.731 706.101,973.726 708.199,972.725 710.296,971.73 712.394,970.739 714.492,969.754 716.589,968.773 718.687,967.797 720.785,966.826 722.882,965.86 724.98,964.899 727.078,963.942 729.175,962.991 731.273,962.044 733.37,961.102 735.468,960.164 737.566,959.231 739.663,958.303 741.761,957.38 743.859,956.461 745.956,955.546 748.054,954.637 750.152,953.731 752.249,952.831 754.347,951.934 756.445,951.043 758.542,950.155 760.64,949.273 762.738,948.394 764.835,947.52 766.933,946.651 769.031,945.785 771.128,944.924 773.226,944.068 775.323,943.215 777.421,942.367 779.519,941.523 781.616,940.683 783.714,939.848 785.812,939.017 787.909,938.189 790.007,937.366 792.105,936.547 794.202,935.732 796.3,934.922 798.398,934.115 800.495,933.312 802.593,932.514 804.691,931.719 806.788,930.928 808.886,930.141 810.984,929.358 813.081,928.579 815.179,927.804 817.276,927.033 819.374,926.266 821.472,925.502 823.569,924.743 825.667,923.987 827.765,923.235 829.862,922.486 831.96,921.742 834.058,921.001 836.155,920.263 838.253,919.53 840.351,918.8 842.448,918.074 844.546,917.351 846.644,916.632 848.741,915.917 850.839,915.205 852.936,914.496 855.034,913.792 857.132,913.09 859.229,912.393 861.327,911.698 863.425,911.007 865.522,910.32 867.62,909.636 869.718,908.956 871.815,908.278 873.913,907.605 876.011,906.934 878.108,906.267 880.206,905.603 882.304,904.943 884.401,904.286 886.499,903.632 888.597,902.981 890.694,902.334 892.792,901.69 894.889,901.049 896.987,900.411 899.085,899.777 901.182,899.145 903.28,898.517 905.378,897.892 907.475,897.27 909.573,896.651 911.671,896.036 913.768,895.423 915.866,894.813 917.964,894.207 920.061,893.603 922.159,893.003 924.257,892.405 926.354,891.811 928.452,891.219 930.55,890.63 932.647,890.045 934.745,889.462 936.842,888.882 938.94,888.305 941.038,887.731 943.135,887.16 945.233,886.592 947.331,886.026 949.428,885.464 951.526,884.904 953.624,884.347 955.721,883.792 957.819,883.241 959.917,882.692 962.014,882.146 964.112,881.603 966.21,881.062 968.307,880.524 970.405,879.989 972.503,879.457 974.6,878.927 976.698,878.4 978.795,877.875 980.893,877.353 982.991,876.834 985.088,876.317 987.186,875.803 989.284,875.291 991.381,874.782 993.479,874.276 995.577,873.772 997.674,873.271 999.772,872.772 1001.87,872.275 1003.97,871.781 1006.06,871.29 1008.16,870.801 1010.26,870.314 1012.36,869.83 1014.46,869.348 1016.55,868.869 1018.65,868.392 1020.75,867.917 1022.85,867.445 1024.94,866.975 1027.04,866.508 1029.14,866.042 1031.24,865.58 1033.33,865.119 1035.43,864.661 1037.53,864.205 1039.63,863.751 1041.72,863.3 1043.82,862.851 1045.92,862.404 1048.02,861.959 1050.12,861.516 1052.21,861.076 1054.31,860.638 1056.41,860.202 1058.51,859.768 1060.6,859.337 1062.7,858.908 1064.8,858.48 1066.9,858.055 1068.99,857.632 1071.09,857.211 1073.19,856.792 1075.29,856.376 1077.38,855.961 1079.48,855.549 1081.58,855.138 1083.68,854.73 1085.78,854.323 1087.87,853.919 1089.97,853.516 1092.07,853.116 1094.17,852.718 1096.26,852.321 1098.36,851.927 1100.46,851.534 1102.56,851.144 1104.65,850.755 1106.75,850.369 1108.85,849.984 1110.95,849.601 1113.05,849.22 1115.14,848.841 1117.24,848.464 1119.34,848.089 1121.44,847.716 1123.53,847.344 1125.63,846.975 1127.73,846.607 1129.83,846.241 1131.92,845.877 1134.02,845.515 1136.12,845.154 1138.22,844.796 1140.31,844.439 1142.41,844.084 1144.51,843.731 1146.61,843.379 1148.71,843.029 1150.8,842.681 1152.9,842.335 1155,841.99 1157.1,841.648 1159.19,841.306 1161.29,840.967 1163.39,840.629 1165.49,840.293 1167.58,839.959 1169.68,839.626 1171.78,839.295 1173.88,838.966 1175.97,838.638 1178.07,838.312 1180.17,837.988 1182.27,837.665 1184.37,837.344 1186.46,837.024 1188.56,836.706 1190.66,836.39 1192.76,836.075 1194.85,835.762 1196.95,835.45 1199.05,835.14 1201.15,834.831 1203.24,834.524 1205.34,834.219 1207.44,833.915 1209.54,833.612 1211.63,833.311 1213.73,833.012 1215.83,832.714 1217.93,832.417 1220.03,832.123 1222.12,831.829 1224.22,831.537 1226.32,831.246 1228.42,830.957 1230.51,830.67 1232.61,830.383 1234.71,830.098 1236.81,829.815 1238.9,829.533 1241,829.253 1243.1,828.973 1245.2,828.696 1247.29,828.419 1249.39,828.144 1251.49,827.871 1253.59,827.598 1255.69,827.327 1257.78,827.058 1259.88,826.79 1261.98,826.523 1264.08,826.257 1266.17,825.993 1268.27,825.73 1270.37,825.468 1272.47,825.208 1274.56,824.949 1276.66,824.691 1278.76,824.435 1280.86,824.18 1282.95,823.926 1285.05,823.673 1287.15,823.422 1289.25,823.172 1291.35,822.923 1293.44,822.675 1295.54,822.429 1297.64,822.184 1299.74,821.94 1301.83,821.697 1303.93,821.456 1306.03,821.215 1308.13,820.976 1310.22,820.738 1312.32,820.502 1314.42,820.266 1316.52,820.032 1318.61,819.799 1320.71,819.567 1322.81,819.336 1324.91,819.106 1327.01,818.877 1329.1,818.65 1331.2,818.424 1333.3,818.198 1335.4,817.974 1337.49,817.751 1339.59,817.53 1341.69,817.309 1343.79,817.089 1345.88,816.871 1347.98,816.653 1350.08,816.437 1352.18,816.222 1354.27,816.007 1356.37,815.794 1358.47,815.582 1360.57,815.371 1362.67,815.161 1364.76,814.952 1366.86,814.745 1368.96,814.538 1371.06,814.332 1373.15,814.127 1375.25,813.923 1377.35,813.721 1379.45,813.519 1381.54,813.318 1383.64,813.119 1385.74,812.92 1387.84,812.722 1389.93,812.526 1392.03,812.33 1394.13,812.135 1396.23,811.941 1398.33,811.749 1400.42,811.557 1402.52,811.366 1404.62,811.176 1406.72,810.987 1408.81,810.799 1410.91,810.612 1413.01,810.426 1415.11,810.241 1417.2,810.056 1419.3,809.873 1421.4,809.69 1423.5,809.509 1425.59,809.328 1427.69,809.148 1429.79,808.97 1431.89,808.792 1433.99,808.615 1436.08,808.439 1438.18,808.263 1440.28,808.089 1442.38,807.915 1444.47,807.743 1446.57,807.571 1448.67,807.4 1450.77,807.23 1452.86,807.061 1454.96,806.892 1457.06,806.725 1459.16,806.558 1461.25,806.392 1463.35,806.227 1465.45,806.063 1467.55,805.899 1469.65,805.737 1471.74,805.575 1473.84,805.414 1475.94,805.254 1478.04,805.094 1480.13,804.936 1482.23,804.778 1484.33,804.621 1486.43,804.465 1488.52,804.309 1490.62,804.155 1492.72,804.001 1494.82,803.848 1496.91,803.695 1499.01,803.544 1501.11,803.393 1503.21,803.243 1505.31,803.094 1507.4,802.945 1509.5,802.797 1511.6,802.65 1513.7,802.504 1515.79,802.358 1517.89,802.213 1519.99,802.069 1522.09,801.925 1524.18,801.783 1526.28,801.641 1528.38,801.499 1530.48,801.359 1532.57,801.219 1534.67,801.079 1536.77,800.941 1538.87,800.803 1540.97,800.666 1543.06,800.529 1545.16,800.394 1547.26,800.258 1549.36,800.124 1551.45,799.99 1553.55,799.857 1555.65,799.725 1557.75,799.593 1559.84,799.462 1561.94,799.331 1564.04,799.201 1566.14,799.072 1568.23,798.943 1570.33,798.816 1572.43,798.688 1574.53,798.562 1576.63,798.436 1578.72,798.31 1580.82,798.185 1582.92,798.061 1585.02,797.938 1587.11,797.815 1589.21,797.693 1591.31,797.571 1593.41,797.45 1595.5,797.329 1597.6,797.21 1599.7,797.09 1601.8,796.972 1603.9,796.854 1605.99,796.736 1608.09,796.619 1610.19,796.503 1612.29,796.387 1614.38,796.272 1616.48,796.157 1618.58,796.043 1620.68,795.93 1622.77,795.817 1624.87,795.705 1626.97,795.593 1629.07,795.482 1631.16,795.371 1633.26,795.261 1635.36,795.152 1637.46,795.043 1639.56,794.934 1641.65,794.826 1643.75,794.719 1645.85,794.612 1647.95,794.506 1650.04,794.4 1652.14,794.295 1654.24,794.19 1656.34,794.086 1658.43,793.982 1660.53,793.879 1662.63,793.777 1664.73,793.674 1666.82,793.573 1668.92,793.472 1671.02,793.371 1673.12,793.271 1675.22,793.172 1677.31,793.073 1679.41,792.974 1681.51,792.876 1683.61,792.778 1685.7,792.681 1687.8,792.585 1689.9,792.488 1692,792.393 1694.09,792.298 1696.19,792.203 1698.29,792.109 1700.39,792.015 1702.48,791.922 1704.58,791.829 1706.68,791.736 1708.78,791.645 1710.88,791.553 1712.97,791.462 1715.07,791.372 1717.17,791.282 1719.27,791.192 1721.36,791.103 1723.46,791.014 1725.56,790.926 1727.66,790.838 1729.75,790.75 1731.85,790.664 1733.95,790.577 1736.05,790.491 1738.14,790.405 1740.24,790.32 1742.34,790.235 1744.44,790.151 1746.54,790.067 1748.63,789.983 1750.73,789.9 1752.83,789.817 1754.93,789.735 1757.02,789.653 1759.12,789.572 1761.22,789.491 1763.32,789.41 1765.41,789.33 1767.51,789.25 1769.61,789.17 1771.71,789.091 1773.8,789.012 1775.9,788.934 1778,788.856 1780.1,788.779 1782.2,788.702 1784.29,788.625 1786.39,788.548 1788.49,788.472 1790.59,788.397 1792.68,788.322 1794.78,788.247 1796.88,788.172 1798.98,788.098 1801.07,788.024 1803.17,787.951 1805.27,787.878 1807.37,787.805 1809.46,787.733 1811.56,787.661 1813.66,787.59 1815.76,787.518 1817.86,787.448 1819.95,787.377 1822.05,787.307 1824.15,787.237 1826.25,787.168 1828.34,787.098 1830.44,787.03 1832.54,786.961 1834.64,786.893 1836.73,786.825 1838.83,786.758 1840.93,786.691 1843.03,786.624 1845.12,786.558 1847.22,786.492 1849.32,786.426 1851.42,786.361 1853.52,786.295 1855.61,786.231 1857.71,786.166 1859.81,786.102 1861.91,786.038 1864,785.975 1866.1,785.912 1868.2,785.849 1870.3,785.786 1872.39,785.724 1874.49,785.662 1876.59,785.6 1878.69,785.539 1880.78,785.478 1882.88,785.418 1884.98,785.357 1887.08,785.297 1889.18,785.237 1891.27,785.178 1893.37,785.119 1895.47,785.06 1897.57,785.001 1899.66,784.943 1901.76,784.885 1903.86,784.827 1905.96,784.77 1908.05,784.713 1910.15,784.656 1912.25,784.599 1914.35,784.543 1916.44,784.487 1918.54,784.431 1920.64,784.376 1922.74,784.32 1924.84,784.266 1926.93,784.211 1929.03,784.157 1931.13,784.103 1933.23,784.049 1935.32,783.995 1937.42,783.942 1939.52,783.889 1941.62,783.836 1943.71,783.784 1945.81,783.732 1947.91,783.68 1950.01,783.628 1952.1,783.576 1954.2,783.525 1956.3,783.474 1958.4,783.424 1960.5,783.373 1962.59,783.323 1964.69,783.273 1966.79,783.224 1968.89,783.174 1970.98,783.125 1973.08,783.076 1975.18,783.027 1977.28,782.979 1979.37,782.931 1981.47,782.883 1983.57,782.835 1985.67,782.788 1987.76,782.741 1989.86,782.694 1991.96,782.647 1994.06,782.6 1996.16,782.554 1998.25,782.508 2000.35,782.462 2002.45,782.417 2004.55,782.371 2006.64,782.326 2008.74,782.281 2010.84,782.236 2012.94,782.192 2015.03,782.148 2017.13,782.104 2019.23,782.06 2021.33,782.016 2023.42,781.973 2025.52,781.93 2027.62,781.887 2029.72,781.844 2031.82,781.802 2033.91,781.759 2036.01,781.717 2038.11,781.675 2040.21,781.634 2042.3,781.592 2044.4,781.551 2046.5,781.51 2048.6,781.469 2050.69,781.428 2052.79,781.388 2054.89,781.348 2056.99,781.308 2059.08,781.268 2061.18,781.228 2063.28,781.189 2065.38,781.15 2067.48,781.11 2069.57,781.072 2071.67,781.033 2073.77,780.994 2075.87,780.956 2077.96,780.918 2080.06,780.88 2082.16,780.842 2084.26,780.805 2086.35,780.768 2088.45,780.73 2090.55,780.693 2092.65,780.657 2094.75,780.62 2096.84,780.584 2098.94,780.547 2101.04,780.511 2103.14,780.475 2105.23,780.44 2107.33,780.404 2109.43,780.369 2111.53,780.334 2113.62,780.299 2115.72,780.264 2117.82,780.229 2119.92,780.195 2122.01,780.16 2124.11,780.126 2126.21,780.092 2128.31,780.059 2130.41,780.025 2132.5,779.992 2134.6,779.958 2136.7,779.925 2138.8,779.892 2140.89,779.859 2142.99,779.827 2145.09,779.794 2147.19,779.762 2149.28,779.73 2151.38,779.698 2153.48,779.666 2155.58,779.634 2157.67,779.603 2159.77,779.572 2161.87,779.54 2163.97,779.509 2166.07,779.478 2168.16,779.448 2170.26,779.417 2172.36,779.387 2174.46,779.356 2176.55,779.326 2178.65,779.296 2180.75,779.267 2182.85,779.237 2184.94,779.207 2187.04,779.178 2189.14,779.149 2191.24,779.12 2193.33,779.091 2195.43,779.062 2197.53,779.033 2199.63,779.005 2201.73,778.977 2203.82,778.948 2205.92,778.92 2208.02,778.892 2210.12,778.865 2212.21,778.837 2214.31,778.809 2216.41,778.782 2218.51,778.755 2220.6,778.728 2222.7,778.701 2224.8,778.674 2226.9,778.647 2228.99,778.621 2231.09,778.594 2233.19,778.568 2235.29,778.542 2237.39,778.516 2239.48,778.49 2241.58,778.464 2243.68,778.438 2245.78,778.413 2247.87,778.387 2249.97,778.362 2252.07,778.337 2254.17,778.312 2256.26,778.287 2258.36,778.262 2260.46,778.238 2262.56,778.213 2264.65,778.189 2266.75,778.165 2268.85,778.14 2270.95,778.116 2273.05,778.093 2275.14,778.069 2277.24,778.045 2279.34,778.021 2281.44,777.998 2283.53,777.975 2285.63,777.952 2287.73,777.928 2289.83,777.905 2291.92,777.883 2294.02,777.86 2296.12,777.837 2298.22,777.815 2300.31,777.792 2302.41,777.77 2304.51,777.748 2306.61,777.726 2308.71,777.704 2310.8,777.682 2312.9,777.66 2315,777.639 2317.1,777.617 2319.19,777.596 2321.29,777.574 2323.39,777.553 2325.49,777.532 2327.58,777.511 2329.68,777.49 2331.78,777.469 2333.88,777.449 2335.97,777.428 2338.07,777.408 2340.17,777.387 2342.27,777.367 2344.37,777.347 2346.46,777.327 2348.56,777.307 2350.66,777.287 2352.76,777.267 "></polyline>
<path clip-path="url(#clip730)" d="M1931.59 322.316 L2282.9 322.316 L2282.9 166.796 L1931.59 166.796  Z" fill="#ffffff" fill-rule="evenodd" fill-opacity="1"></path>
<polyline clip-path="url(#clip730)" style="stroke:#000000; stroke-linecap:round; stroke-linejoin:round; stroke-width:4; stroke-opacity:1; fill:none" points="1931.59,322.316 2282.9,322.316 2282.9,166.796 1931.59,166.796 1931.59,322.316 "></polyline>
<polyline clip-path="url(#clip730)" style="stroke:#009af9; stroke-linecap:round; stroke-linejoin:round; stroke-width:8; stroke-opacity:1; fill:none" points="1954.87,218.636 2094.58,218.636 "></polyline>
<path clip-path="url(#clip730)" d="M2117.86 201.356 L2122.54 201.356 L2122.54 215.962 L2138.05 201.356 L2144.07 201.356 L2126.91 217.467 L2145.29 235.916 L2139.13 235.916 L2122.54 219.272 L2122.54 235.916 L2117.86 235.916 L2117.86 201.356 Z" fill="#000000" fill-rule="nonzero" fill-opacity="1"></path><path clip-path="url(#clip730)" d="M2148.76 209.99 L2153.02 209.99 L2153.02 235.916 L2148.76 235.916 L2148.76 209.99 M2148.76 199.897 L2153.02 199.897 L2153.02 205.291 L2148.76 205.291 L2148.76 199.897 Z" fill="#000000" fill-rule="nonzero" fill-opacity="1"></path><path clip-path="url(#clip730)" d="M2161.77 199.897 L2166.06 199.897 L2166.06 221.17 L2178.76 209.99 L2184.2 209.99 L2170.45 222.119 L2184.78 235.916 L2179.23 235.916 L2166.06 223.254 L2166.06 235.916 L2161.77 235.916 L2161.77 199.897 Z" fill="#000000" fill-rule="nonzero" fill-opacity="1"></path><path clip-path="url(#clip730)" d="M2189.39 209.99 L2193.65 209.99 L2193.65 235.916 L2189.39 235.916 L2189.39 209.99 M2189.39 199.897 L2193.65 199.897 L2193.65 205.291 L2189.39 205.291 L2189.39 199.897 Z" fill="#000000" fill-rule="nonzero" fill-opacity="1"></path><polyline clip-path="url(#clip730)" style="stroke:#e26f46; stroke-linecap:round; stroke-linejoin:round; stroke-width:8; stroke-opacity:1; fill:none" points="1954.87,270.476 2094.58,270.476 "></polyline>
<path clip-path="url(#clip730)" d="M2122.54 271.251 L2122.54 283.913 L2130.04 283.913 Q2133.81 283.913 2135.62 282.362 Q2137.44 280.788 2137.44 277.571 Q2137.44 274.33 2135.62 272.802 Q2133.81 271.251 2130.04 271.251 L2122.54 271.251 M2122.54 257.038 L2122.54 267.455 L2129.46 267.455 Q2132.88 267.455 2134.55 266.182 Q2136.24 264.885 2136.24 262.247 Q2136.24 259.631 2134.55 258.335 Q2132.88 257.038 2129.46 257.038 L2122.54 257.038 M2117.86 253.196 L2129.81 253.196 Q2135.15 253.196 2138.05 255.418 Q2140.94 257.64 2140.94 261.737 Q2140.94 264.909 2139.46 266.784 Q2137.98 268.659 2135.11 269.122 Q2138.56 269.862 2140.45 272.223 Q2142.38 274.561 2142.38 278.08 Q2142.38 282.709 2139.23 285.233 Q2136.08 287.756 2130.27 287.756 L2117.86 287.756 L2117.86 253.196 Z" fill="#000000" fill-rule="nonzero" fill-opacity="1"></path><path clip-path="url(#clip730)" d="M2160.25 264.816 Q2156.82 264.816 2154.83 267.501 Q2152.84 270.163 2152.84 274.816 Q2152.84 279.469 2154.81 282.154 Q2156.8 284.816 2160.25 284.816 Q2163.65 284.816 2165.64 282.131 Q2167.63 279.446 2167.63 274.816 Q2167.63 270.21 2165.64 267.524 Q2163.65 264.816 2160.25 264.816 M2160.25 261.205 Q2165.8 261.205 2168.97 264.816 Q2172.14 268.427 2172.14 274.816 Q2172.14 281.182 2168.97 284.816 Q2165.8 288.427 2160.25 288.427 Q2154.67 288.427 2151.5 284.816 Q2148.35 281.182 2148.35 274.816 Q2148.35 268.427 2151.5 264.816 Q2154.67 261.205 2160.25 261.205 Z" fill="#000000" fill-rule="nonzero" fill-opacity="1"></path><path clip-path="url(#clip730)" d="M2178.76 277.524 L2178.76 261.83 L2183.02 261.83 L2183.02 277.362 Q2183.02 281.043 2184.46 282.895 Q2185.89 284.723 2188.76 284.723 Q2192.21 284.723 2194.2 282.524 Q2196.22 280.325 2196.22 276.529 L2196.22 261.83 L2200.48 261.83 L2200.48 287.756 L2196.22 287.756 L2196.22 283.774 Q2194.67 286.135 2192.61 287.293 Q2190.57 288.427 2187.86 288.427 Q2183.39 288.427 2181.08 285.649 Q2178.76 282.871 2178.76 277.524 M2189.48 261.205 L2189.48 261.205 Z" fill="#000000" fill-rule="nonzero" fill-opacity="1"></path><path clip-path="url(#clip730)" d="M2227.86 274.816 Q2227.86 270.117 2225.92 267.455 Q2224 264.77 2220.62 264.77 Q2217.24 264.77 2215.29 267.455 Q2213.37 270.117 2213.37 274.816 Q2213.37 279.515 2215.29 282.2 Q2217.24 284.862 2220.62 284.862 Q2224 284.862 2225.92 282.2 Q2227.86 279.515 2227.86 274.816 M2213.37 265.765 Q2214.71 263.45 2216.75 262.339 Q2218.81 261.205 2221.66 261.205 Q2226.38 261.205 2229.32 264.955 Q2232.28 268.705 2232.28 274.816 Q2232.28 280.927 2229.32 284.677 Q2226.38 288.427 2221.66 288.427 Q2218.81 288.427 2216.75 287.316 Q2214.71 286.182 2213.37 283.867 L2213.37 287.756 L2209.09 287.756 L2209.09 251.737 L2213.37 251.737 L2213.37 265.765 Z" fill="#000000" fill-rule="nonzero" fill-opacity="1"></path><path clip-path="url(#clip730)" d="M2251.12 274.723 Q2245.96 274.723 2243.97 275.904 Q2241.98 277.084 2241.98 279.932 Q2241.98 282.2 2243.46 283.543 Q2244.97 284.862 2247.54 284.862 Q2251.08 284.862 2253.21 282.362 Q2255.36 279.839 2255.36 275.672 L2255.36 274.723 L2251.12 274.723 M2259.62 272.964 L2259.62 287.756 L2255.36 287.756 L2255.36 283.821 Q2253.9 286.182 2251.73 287.316 Q2249.55 288.427 2246.4 288.427 Q2242.42 288.427 2240.06 286.205 Q2237.72 283.959 2237.72 280.209 Q2237.72 275.834 2240.64 273.612 Q2243.58 271.39 2249.39 271.39 L2255.36 271.39 L2255.36 270.973 Q2255.36 268.034 2253.42 266.436 Q2251.5 264.816 2248 264.816 Q2245.78 264.816 2243.67 265.348 Q2241.56 265.881 2239.62 266.946 L2239.62 263.01 Q2241.96 262.108 2244.16 261.668 Q2246.36 261.205 2248.44 261.205 Q2254.06 261.205 2256.84 264.122 Q2259.62 267.038 2259.62 272.964 Z" fill="#000000" fill-rule="nonzero" fill-opacity="1"></path></svg>