<svg width="130pt" height="169pt" viewBox="0.00 0.00 130.13 169.48" xmlns="http://www.w3.org/2000/svg" xmlns:xlink="http://www.w3.org/1999/xlink">
<g id="graph0" class="graph" transform="scale(1 1) rotate(0) translate(4 165.48)">
<title>G</title>
<polygon fill="white" stroke="none" points="-4,4 -4,-165.48 126.13,-165.48 126.13,4 -4,4"></polygon>
<!-- n1 -->
<g id="node1" class="node">
<title>n1</title>
<ellipse fill="none" stroke="black" cx="27" cy="-143.48" rx="27" ry="18"></ellipse>
<text text-anchor="middle" x="27" y="-138.43" font-family="Times,serif" font-size="14.00">Face</text>
</g>
<!-- n2 -->
<g id="node2" class="node">
<title>n2</title>
<ellipse fill="none" stroke="black" cx="71.02" cy="-86.15" rx="27" ry="18"></ellipse>
<text text-anchor="middle" x="71.02" y="-81.1" font-family="Times,serif" font-size="14.00">Edge</text>
</g>
<!-- n1&#45;&gt;n2 -->
<g id="edge1" class="edge">
<title>n1-&gt;n2</title>
<path fill="none" stroke="black" d="M53.52,-138.94C61.26,-132.9 68.36,-123.94 72.61,-114.89"></path>
<polygon fill="black" stroke="black" points="75.92,-116.04 75.77,-105.45 69.28,-113.82 75.92,-116.04"></polygon>
<text text-anchor="middle" x="71.69" y="-130.12" font-family="Times,serif" font-size="14.00">top</text>
</g>
<!-- n1&#45;&gt;n2 -->
<g id="edge2" class="edge">
<title>n1-&gt;n2</title>
<path fill="none" stroke="black" d="M21.77,-125.62C23.42,-116.65 29.09,-106.52 36.32,-98.41"></path>
<polygon fill="black" stroke="black" points="38.68,-100.99 43.57,-91.59 33.89,-95.9 38.68,-100.99"></polygon>
<text text-anchor="middle" x="16.29" y="-98.71" font-family="Times,serif" font-size="14.00">right</text>
</g>
<!-- n1&#45;&gt;n2 -->
<g id="edge3" class="edge">
<title>n1-&gt;n2</title>
<path fill="none" stroke="black" d="M33.19,-125.7C36.62,-120.18 40.99,-114.03 45.56,-108.26"></path>
<polygon fill="black" stroke="black" points="48.08,-110.7 51.82,-100.79 42.72,-106.21 48.08,-110.7"></polygon>
<text text-anchor="middle" x="49.13" y="-103.68" font-family="Times,serif" font-size="14.00">bottom</text>
</g>
<!-- n1&#45;&gt;n2 -->
<g id="edge4" class="edge">
<title>n1-&gt;n2</title>
<path fill="none" stroke="black" d="M45.42,-129.79C49.81,-124.84 54.38,-119.1 58.45,-113.43"></path>
<polygon fill="black" stroke="black" points="61.2,-115.6 63.88,-105.35 55.4,-111.7 61.2,-115.6"></polygon>
<text text-anchor="middle" x="60.94" y="-124.81" font-family="Times,serif" font-size="14.00">left</text>
</g>
<!-- n3 -->
<g id="node3" class="node">
<title>n3</title>
<ellipse fill="none" stroke="black" cx="95.13" cy="-18" rx="27" ry="18"></ellipse>
<text text-anchor="middle" x="95.13" y="-12.95" font-family="Times,serif" font-size="14.00">Vertex</text>
</g>
<!-- n2&#45;&gt;n3 -->
<g id="edge5" class="edge">
<title>n2-&gt;n3</title>
<path fill="none" stroke="black" d="M83.19,-69.91C86.29,-63.14 89.34,-55.06 91.78,-47.32"></path>
<polygon fill="black" stroke="black" points="95.1,-48.44 94.43,-37.86 88.36,-46.55 95.1,-48.44"></polygon>
<text text-anchor="middle" x="95.36" y="-45.32" font-family="Times,serif" font-size="14.00">src</text>
</g>
<!-- n2&#45;&gt;n3 -->
<g id="edge6" class="edge">
<title>n2-&gt;n3</title>
<path fill="none" stroke="black" d="M71.31,-67.7C73.03,-60.59 75.67,-52.34 78.62,-44.62"></path>
<polygon fill="black" stroke="black" points="81.75,-46.22 82.37,-35.64 75.29,-43.52 81.75,-46.22"></polygon>
<text text-anchor="middle" x="67.84" y="-42.86" font-family="Times,serif" font-size="14.00">tgt</text>
</g>
</g>
</svg>