<svg xmlns="http://www.w3.org/2000/svg" xmlns:xlink="http://www.w3.org/1999/xlink" width="600" height="400" viewBox="0 0 2400 1600">
<defs>
  <clipPath id="clip850">
    <rect x="0" y="0" width="2400" height="1600"></rect>
  </clipPath>
</defs>
<path clip-path="url(#clip850)" d="M0 1600 L2400 1600 L2400 0 L0 0  Z" fill="#ffffff" fill-rule="evenodd" fill-opacity="1"></path>
<defs>
  <clipPath id="clip851">
    <rect x="480" y="0" width="1681" height="1600"></rect>
  </clipPath>
</defs>
<path clip-path="url(#clip850)" d="M210.746 1423.18 L2352.76 1423.18 L2352.76 123.472 L210.746 123.472  Z" fill="#ffffff" fill-rule="evenodd" fill-opacity="1"></path>
<defs>
  <clipPath id="clip852">
    <rect x="210" y="123" width="2143" height="1301"></rect>
  </clipPath>
</defs>
<polyline clip-path="url(#clip852)" style="stroke:#000000; stroke-linecap:round; stroke-linejoin:round; stroke-width:2; stroke-opacity:0.1; fill:none" points="210.746,1423.18 210.746,123.472 "></polyline>
<polyline clip-path="url(#clip852)" style="stroke:#000000; stroke-linecap:round; stroke-linejoin:round; stroke-width:2; stroke-opacity:0.1; fill:none" points="639.148,1423.18 639.148,123.472 "></polyline>
<polyline clip-path="url(#clip852)" style="stroke:#000000; stroke-linecap:round; stroke-linejoin:round; stroke-width:2; stroke-opacity:0.1; fill:none" points="1067.55,1423.18 1067.55,123.472 "></polyline>
<polyline clip-path="url(#clip852)" style="stroke:#000000; stroke-linecap:round; stroke-linejoin:round; stroke-width:2; stroke-opacity:0.1; fill:none" points="1495.95,1423.18 1495.95,123.472 "></polyline>
<polyline clip-path="url(#clip852)" style="stroke:#000000; stroke-linecap:round; stroke-linejoin:round; stroke-width:2; stroke-opacity:0.1; fill:none" points="1924.35,1423.18 1924.35,123.472 "></polyline>
<polyline clip-path="url(#clip852)" style="stroke:#000000; stroke-linecap:round; stroke-linejoin:round; stroke-width:2; stroke-opacity:0.1; fill:none" points="2352.76,1423.18 2352.76,123.472 "></polyline>
<polyline clip-path="url(#clip850)" style="stroke:#000000; stroke-linecap:round; stroke-linejoin:round; stroke-width:4; stroke-opacity:1; fill:none" points="210.746,1423.18 2352.76,1423.18 "></polyline>
<polyline clip-path="url(#clip850)" style="stroke:#000000; stroke-linecap:round; stroke-linejoin:round; stroke-width:4; stroke-opacity:1; fill:none" points="210.746,1423.18 210.746,1404.28 "></polyline>
<polyline clip-path="url(#clip850)" style="stroke:#000000; stroke-linecap:round; stroke-linejoin:round; stroke-width:4; stroke-opacity:1; fill:none" points="639.148,1423.18 639.148,1404.28 "></polyline>
<polyline clip-path="url(#clip850)" style="stroke:#000000; stroke-linecap:round; stroke-linejoin:round; stroke-width:4; stroke-opacity:1; fill:none" points="1067.55,1423.18 1067.55,1404.28 "></polyline>
<polyline clip-path="url(#clip850)" style="stroke:#000000; stroke-linecap:round; stroke-linejoin:round; stroke-width:4; stroke-opacity:1; fill:none" points="1495.95,1423.18 1495.95,1404.28 "></polyline>
<polyline clip-path="url(#clip850)" style="stroke:#000000; stroke-linecap:round; stroke-linejoin:round; stroke-width:4; stroke-opacity:1; fill:none" points="1924.35,1423.18 1924.35,1404.28 "></polyline>
<polyline clip-path="url(#clip850)" style="stroke:#000000; stroke-linecap:round; stroke-linejoin:round; stroke-width:4; stroke-opacity:1; fill:none" points="2352.76,1423.18 2352.76,1404.28 "></polyline>
<path clip-path="url(#clip850)" d="M210.746 1454.1 Q207.135 1454.1 205.306 1457.66 Q203.501 1461.2 203.501 1468.33 Q203.501 1475.44 205.306 1479.01 Q207.135 1482.55 210.746 1482.55 Q214.38 1482.55 216.186 1479.01 Q218.014 1475.44 218.014 1468.33 Q218.014 1461.2 216.186 1457.66 Q214.38 1454.1 210.746 1454.1 M210.746 1450.39 Q216.556 1450.39 219.612 1455 Q222.69 1459.58 222.69 1468.33 Q222.69 1477.06 219.612 1481.67 Q216.556 1486.25 210.746 1486.25 Q204.936 1486.25 201.857 1481.67 Q198.802 1477.06 198.802 1468.33 Q198.802 1459.58 201.857 1455 Q204.936 1450.39 210.746 1450.39 Z" fill="#000000" fill-rule="nonzero" fill-opacity="1"></path><path clip-path="url(#clip850)" d="M617.921 1481.64 L634.241 1481.64 L634.241 1485.58 L612.296 1485.58 L612.296 1481.64 Q614.958 1478.89 619.542 1474.26 Q624.148 1469.61 625.329 1468.27 Q627.574 1465.74 628.454 1464.01 Q629.356 1462.25 629.356 1460.56 Q629.356 1457.8 627.412 1456.07 Q625.491 1454.33 622.389 1454.33 Q620.19 1454.33 617.736 1455.09 Q615.305 1455.86 612.528 1457.41 L612.528 1452.69 Q615.352 1451.55 617.805 1450.97 Q620.259 1450.39 622.296 1450.39 Q627.667 1450.39 630.861 1453.08 Q634.055 1455.77 634.055 1460.26 Q634.055 1462.39 633.245 1464.31 Q632.458 1466.2 630.352 1468.8 Q629.773 1469.47 626.671 1472.69 Q623.569 1475.88 617.921 1481.64 Z" fill="#000000" fill-rule="nonzero" fill-opacity="1"></path><path clip-path="url(#clip850)" d="M654.055 1454.1 Q650.444 1454.1 648.615 1457.66 Q646.81 1461.2 646.81 1468.33 Q646.81 1475.44 648.615 1479.01 Q650.444 1482.55 654.055 1482.55 Q657.69 1482.55 659.495 1479.01 Q661.324 1475.44 661.324 1468.33 Q661.324 1461.2 659.495 1457.66 Q657.69 1454.1 654.055 1454.1 M654.055 1450.39 Q659.865 1450.39 662.921 1455 Q666 1459.58 666 1468.33 Q666 1477.06 662.921 1481.67 Q659.865 1486.25 654.055 1486.25 Q648.245 1486.25 645.166 1481.67 Q642.111 1477.06 642.111 1468.33 Q642.111 1459.58 645.166 1455 Q648.245 1450.39 654.055 1450.39 Z" fill="#000000" fill-rule="nonzero" fill-opacity="1"></path><path clip-path="url(#clip850)" d="M1055.72 1455.09 L1043.92 1473.54 L1055.72 1473.54 L1055.72 1455.09 M1054.49 1451.02 L1060.37 1451.02 L1060.37 1473.54 L1065.3 1473.54 L1065.3 1477.43 L1060.37 1477.43 L1060.37 1485.58 L1055.72 1485.58 L1055.72 1477.43 L1040.12 1477.43 L1040.12 1472.92 L1054.49 1451.02 Z" fill="#000000" fill-rule="nonzero" fill-opacity="1"></path><path clip-path="url(#clip850)" d="M1083.04 1454.1 Q1079.42 1454.1 1077.6 1457.66 Q1075.79 1461.2 1075.79 1468.33 Q1075.79 1475.44 1077.6 1479.01 Q1079.42 1482.55 1083.04 1482.55 Q1086.67 1482.55 1088.48 1479.01 Q1090.3 1475.44 1090.3 1468.33 Q1090.3 1461.2 1088.48 1457.66 Q1086.67 1454.1 1083.04 1454.1 M1083.04 1450.39 Q1088.85 1450.39 1091.9 1455 Q1094.98 1459.58 1094.98 1468.33 Q1094.98 1477.06 1091.9 1481.67 Q1088.85 1486.25 1083.04 1486.25 Q1077.23 1486.25 1074.15 1481.67 Q1071.09 1477.06 1071.09 1468.33 Q1071.09 1459.58 1074.15 1455 Q1077.23 1450.39 1083.04 1450.39 Z" fill="#000000" fill-rule="nonzero" fill-opacity="1"></path><path clip-path="url(#clip850)" d="M1481.36 1466.44 Q1478.21 1466.44 1476.36 1468.59 Q1474.53 1470.74 1474.53 1474.49 Q1474.53 1478.22 1476.36 1480.39 Q1478.21 1482.55 1481.36 1482.55 Q1484.51 1482.55 1486.33 1480.39 Q1488.19 1478.22 1488.19 1474.49 Q1488.19 1470.74 1486.33 1468.59 Q1484.51 1466.44 1481.36 1466.44 M1490.64 1451.78 L1490.64 1456.04 Q1488.88 1455.21 1487.07 1454.77 Q1485.29 1454.33 1483.53 1454.33 Q1478.9 1454.33 1476.45 1457.45 Q1474.02 1460.58 1473.67 1466.9 Q1475.04 1464.89 1477.1 1463.82 Q1479.16 1462.73 1481.63 1462.73 Q1486.84 1462.73 1489.85 1465.9 Q1492.88 1469.05 1492.88 1474.49 Q1492.88 1479.82 1489.74 1483.03 Q1486.59 1486.25 1481.36 1486.25 Q1475.36 1486.25 1472.19 1481.67 Q1469.02 1477.06 1469.02 1468.33 Q1469.02 1460.14 1472.91 1455.28 Q1476.8 1450.39 1483.35 1450.39 Q1485.11 1450.39 1486.89 1450.74 Q1488.7 1451.09 1490.64 1451.78 Z" fill="#000000" fill-rule="nonzero" fill-opacity="1"></path><path clip-path="url(#clip850)" d="M1510.94 1454.1 Q1507.33 1454.1 1505.5 1457.66 Q1503.69 1461.2 1503.69 1468.33 Q1503.69 1475.44 1505.5 1479.01 Q1507.33 1482.55 1510.94 1482.55 Q1514.57 1482.55 1516.38 1479.01 Q1518.21 1475.44 1518.21 1468.33 Q1518.21 1461.2 1516.38 1457.66 Q1514.57 1454.1 1510.94 1454.1 M1510.94 1450.39 Q1516.75 1450.39 1519.81 1455 Q1522.88 1459.58 1522.88 1468.33 Q1522.88 1477.06 1519.81 1481.67 Q1516.75 1486.25 1510.94 1486.25 Q1505.13 1486.25 1502.05 1481.67 Q1499 1477.06 1499 1468.33 Q1499 1459.58 1502.05 1455 Q1505.13 1450.39 1510.94 1450.39 Z" fill="#000000" fill-rule="nonzero" fill-opacity="1"></path><path clip-path="url(#clip850)" d="M1909.23 1469.17 Q1905.89 1469.17 1903.97 1470.95 Q1902.07 1472.73 1902.07 1475.86 Q1902.07 1478.98 1903.97 1480.77 Q1905.89 1482.55 1909.23 1482.55 Q1912.56 1482.55 1914.48 1480.77 Q1916.4 1478.96 1916.4 1475.86 Q1916.4 1472.73 1914.48 1470.95 Q1912.58 1469.17 1909.23 1469.17 M1904.55 1467.18 Q1901.54 1466.44 1899.85 1464.38 Q1898.19 1462.32 1898.19 1459.35 Q1898.19 1455.21 1901.12 1452.8 Q1904.09 1450.39 1909.23 1450.39 Q1914.39 1450.39 1917.33 1452.8 Q1920.27 1455.21 1920.27 1459.35 Q1920.27 1462.32 1918.58 1464.38 Q1916.91 1466.44 1913.93 1467.18 Q1917.31 1467.96 1919.18 1470.26 Q1921.08 1472.55 1921.08 1475.86 Q1921.08 1480.88 1918 1483.57 Q1914.94 1486.25 1909.23 1486.25 Q1903.51 1486.25 1900.43 1483.57 Q1897.37 1480.88 1897.37 1475.86 Q1897.37 1472.55 1899.27 1470.26 Q1901.17 1467.96 1904.55 1467.18 M1902.84 1459.79 Q1902.84 1462.48 1904.5 1463.98 Q1906.19 1465.49 1909.23 1465.49 Q1912.24 1465.49 1913.93 1463.98 Q1915.64 1462.48 1915.64 1459.79 Q1915.64 1457.11 1913.93 1455.6 Q1912.24 1454.1 1909.23 1454.1 Q1906.19 1454.1 1904.5 1455.6 Q1902.84 1457.11 1902.84 1459.79 Z" fill="#000000" fill-rule="nonzero" fill-opacity="1"></path><path clip-path="url(#clip850)" d="M1939.39 1454.1 Q1935.78 1454.1 1933.95 1457.66 Q1932.14 1461.2 1932.14 1468.33 Q1932.14 1475.44 1933.95 1479.01 Q1935.78 1482.55 1939.39 1482.55 Q1943.02 1482.55 1944.83 1479.01 Q1946.66 1475.44 1946.66 1468.33 Q1946.66 1461.2 1944.83 1457.66 Q1943.02 1454.1 1939.39 1454.1 M1939.39 1450.39 Q1945.2 1450.39 1948.25 1455 Q1951.33 1459.58 1951.33 1468.33 Q1951.33 1477.06 1948.25 1481.67 Q1945.2 1486.25 1939.39 1486.25 Q1933.58 1486.25 1930.5 1481.67 Q1927.44 1477.06 1927.44 1468.33 Q1927.44 1459.58 1930.5 1455 Q1933.58 1450.39 1939.39 1450.39 Z" fill="#000000" fill-rule="nonzero" fill-opacity="1"></path><path clip-path="url(#clip850)" d="M2312.36 1481.64 L2320 1481.64 L2320 1455.28 L2311.69 1456.95 L2311.69 1452.69 L2319.96 1451.02 L2324.63 1451.02 L2324.63 1481.64 L2332.27 1481.64 L2332.27 1485.58 L2312.36 1485.58 L2312.36 1481.64 Z" fill="#000000" fill-rule="nonzero" fill-opacity="1"></path><path clip-path="url(#clip850)" d="M2351.71 1454.1 Q2348.1 1454.1 2346.27 1457.66 Q2344.47 1461.2 2344.47 1468.33 Q2344.47 1475.44 2346.27 1479.01 Q2348.1 1482.55 2351.71 1482.55 Q2355.35 1482.55 2357.15 1479.01 Q2358.98 1475.44 2358.98 1468.33 Q2358.98 1461.2 2357.15 1457.66 Q2355.35 1454.1 2351.71 1454.1 M2351.71 1450.39 Q2357.52 1450.39 2360.58 1455 Q2363.66 1459.58 2363.66 1468.33 Q2363.66 1477.06 2360.58 1481.67 Q2357.52 1486.25 2351.71 1486.25 Q2345.9 1486.25 2342.83 1481.67 Q2339.77 1477.06 2339.77 1468.33 Q2339.77 1459.58 2342.83 1455 Q2345.9 1450.39 2351.71 1450.39 Z" fill="#000000" fill-rule="nonzero" fill-opacity="1"></path><path clip-path="url(#clip850)" d="M2381.88 1454.1 Q2378.27 1454.1 2376.44 1457.66 Q2374.63 1461.2 2374.63 1468.33 Q2374.63 1475.44 2376.44 1479.01 Q2378.27 1482.55 2381.88 1482.55 Q2385.51 1482.55 2387.32 1479.01 Q2389.14 1475.44 2389.14 1468.33 Q2389.14 1461.2 2387.32 1457.66 Q2385.51 1454.1 2381.88 1454.1 M2381.88 1450.39 Q2387.69 1450.39 2390.74 1455 Q2393.82 1459.58 2393.82 1468.33 Q2393.82 1477.06 2390.74 1481.67 Q2387.69 1486.25 2381.88 1486.25 Q2376.07 1486.25 2372.99 1481.67 Q2369.93 1477.06 2369.93 1468.33 Q2369.93 1459.58 2372.99 1455 Q2376.07 1450.39 2381.88 1450.39 Z" fill="#000000" fill-rule="nonzero" fill-opacity="1"></path><path clip-path="url(#clip850)" d="M1024.75 1520.52 L1064.95 1520.52 L1064.95 1525.93 L1048.08 1525.93 L1048.08 1568.04 L1041.62 1568.04 L1041.62 1525.93 L1024.75 1525.93 L1024.75 1520.52 Z" fill="#000000" fill-rule="nonzero" fill-opacity="1"></path><path clip-path="url(#clip850)" d="M1068.9 1532.4 L1074.75 1532.4 L1074.75 1568.04 L1068.9 1568.04 L1068.9 1532.4 M1068.9 1518.52 L1074.75 1518.52 L1074.75 1525.93 L1068.9 1525.93 L1068.9 1518.52 Z" fill="#000000" fill-rule="nonzero" fill-opacity="1"></path><path clip-path="url(#clip850)" d="M1114.76 1539.24 Q1116.96 1535.29 1120.01 1533.41 Q1123.07 1531.54 1127.21 1531.54 Q1132.78 1531.54 1135.8 1535.45 Q1138.82 1539.33 1138.82 1546.53 L1138.82 1568.04 L1132.94 1568.04 L1132.94 1546.72 Q1132.94 1541.59 1131.12 1539.11 Q1129.31 1536.63 1125.58 1536.63 Q1121.03 1536.63 1118.39 1539.65 Q1115.75 1542.68 1115.75 1547.9 L1115.75 1568.04 L1109.86 1568.04 L1109.86 1546.72 Q1109.86 1541.56 1108.05 1539.11 Q1106.23 1536.63 1102.44 1536.63 Q1097.96 1536.63 1095.32 1539.68 Q1092.67 1542.71 1092.67 1547.9 L1092.67 1568.04 L1086.79 1568.04 L1086.79 1532.4 L1092.67 1532.4 L1092.67 1537.93 Q1094.68 1534.66 1097.48 1533.1 Q1100.28 1531.54 1104.13 1531.54 Q1108.01 1531.54 1110.72 1533.51 Q1113.46 1535.48 1114.76 1539.24 Z" fill="#000000" fill-rule="nonzero" fill-opacity="1"></path><path clip-path="url(#clip850)" d="M1181 1548.76 L1181 1551.62 L1154.07 1551.62 Q1154.45 1557.67 1157.7 1560.85 Q1160.98 1564 1166.8 1564 Q1170.18 1564 1173.33 1563.17 Q1176.51 1562.35 1179.63 1560.69 L1179.63 1566.23 Q1176.48 1567.57 1173.17 1568.27 Q1169.86 1568.97 1166.45 1568.97 Q1157.92 1568.97 1152.92 1564 Q1147.96 1559.04 1147.96 1550.57 Q1147.96 1541.82 1152.67 1536.69 Q1157.41 1531.54 1165.43 1531.54 Q1172.63 1531.54 1176.8 1536.18 Q1181 1540.8 1181 1548.76 M1175.14 1547.04 Q1175.08 1542.23 1172.44 1539.37 Q1169.83 1536.5 1165.5 1536.5 Q1160.6 1536.5 1157.64 1539.27 Q1154.71 1542.04 1154.26 1547.07 L1175.14 1547.04 Z" fill="#000000" fill-rule="nonzero" fill-opacity="1"></path><path clip-path="url(#clip850)" d="M1211.33 1532.4 L1217.19 1532.4 L1217.19 1568.04 L1211.33 1568.04 L1211.33 1532.4 M1211.33 1518.52 L1217.19 1518.52 L1217.19 1525.93 L1211.33 1525.93 L1211.33 1518.52 Z" fill="#000000" fill-rule="nonzero" fill-opacity="1"></path><path clip-path="url(#clip850)" d="M1259.07 1546.53 L1259.07 1568.04 L1253.22 1568.04 L1253.22 1546.72 Q1253.22 1541.66 1251.24 1539.14 Q1249.27 1536.63 1245.32 1536.63 Q1240.58 1536.63 1237.84 1539.65 Q1235.11 1542.68 1235.11 1547.9 L1235.11 1568.04 L1229.22 1568.04 L1229.22 1532.4 L1235.11 1532.4 L1235.11 1537.93 Q1237.21 1534.72 1240.04 1533.13 Q1242.9 1531.54 1246.63 1531.54 Q1252.77 1531.54 1255.92 1535.36 Q1259.07 1539.14 1259.07 1546.53 Z" fill="#000000" fill-rule="nonzero" fill-opacity="1"></path><path clip-path="url(#clip850)" d="M1291.73 1520.52 L1301.31 1520.52 L1313.44 1552.86 L1325.63 1520.52 L1335.21 1520.52 L1335.21 1568.04 L1328.94 1568.04 L1328.94 1526.32 L1316.68 1558.91 L1310.22 1558.91 L1297.97 1526.32 L1297.97 1568.04 L1291.73 1568.04 L1291.73 1520.52 Z" fill="#000000" fill-rule="nonzero" fill-opacity="1"></path><path clip-path="url(#clip850)" d="M1347.72 1532.4 L1353.57 1532.4 L1353.57 1568.04 L1347.72 1568.04 L1347.72 1532.4 M1347.72 1518.52 L1353.57 1518.52 L1353.57 1525.93 L1347.72 1525.93 L1347.72 1518.52 Z" fill="#000000" fill-rule="nonzero" fill-opacity="1"></path><path clip-path="url(#clip850)" d="M1395.46 1546.53 L1395.46 1568.04 L1389.6 1568.04 L1389.6 1546.72 Q1389.6 1541.66 1387.63 1539.14 Q1385.66 1536.63 1381.71 1536.63 Q1376.97 1536.63 1374.23 1539.65 Q1371.49 1542.68 1371.49 1547.9 L1371.49 1568.04 L1365.6 1568.04 L1365.6 1532.4 L1371.49 1532.4 L1371.49 1537.93 Q1373.59 1534.72 1376.42 1533.13 Q1379.29 1531.54 1383.01 1531.54 Q1389.16 1531.54 1392.31 1535.36 Q1395.46 1539.14 1395.46 1546.53 Z" fill="#000000" fill-rule="nonzero" fill-opacity="1"></path><path clip-path="url(#clip850)" d="M1406.53 1553.98 L1406.53 1532.4 L1412.39 1532.4 L1412.39 1553.75 Q1412.39 1558.81 1414.36 1561.36 Q1416.34 1563.87 1420.28 1563.87 Q1425.03 1563.87 1427.76 1560.85 Q1430.53 1557.83 1430.53 1552.61 L1430.53 1532.4 L1436.39 1532.4 L1436.39 1568.04 L1430.53 1568.04 L1430.53 1562.57 Q1428.4 1565.82 1425.57 1567.41 Q1422.77 1568.97 1419.04 1568.97 Q1412.9 1568.97 1409.72 1565.15 Q1406.53 1561.33 1406.53 1553.98 M1421.27 1531.54 L1421.27 1531.54 Z" fill="#000000" fill-rule="nonzero" fill-opacity="1"></path><path clip-path="url(#clip850)" d="M1454.25 1522.27 L1454.25 1532.4 L1466.31 1532.4 L1466.31 1536.95 L1454.25 1536.95 L1454.25 1556.3 Q1454.25 1560.66 1455.42 1561.9 Q1456.63 1563.14 1460.29 1563.14 L1466.31 1563.14 L1466.31 1568.04 L1460.29 1568.04 Q1453.51 1568.04 1450.94 1565.53 Q1448.36 1562.98 1448.36 1556.3 L1448.36 1536.95 L1444.06 1536.95 L1444.06 1532.4 L1448.36 1532.4 L1448.36 1522.27 L1454.25 1522.27 Z" fill="#000000" fill-rule="nonzero" fill-opacity="1"></path><path clip-path="url(#clip850)" d="M1504.5 1548.76 L1504.5 1551.62 L1477.58 1551.62 Q1477.96 1557.67 1481.2 1560.85 Q1484.48 1564 1490.31 1564 Q1493.68 1564 1496.83 1563.17 Q1500.02 1562.35 1503.13 1560.69 L1503.13 1566.23 Q1499.98 1567.57 1496.67 1568.27 Q1493.36 1568.97 1489.96 1568.97 Q1481.43 1568.97 1476.43 1564 Q1471.46 1559.04 1471.46 1550.57 Q1471.46 1541.82 1476.18 1536.69 Q1480.92 1531.54 1488.94 1531.54 Q1496.13 1531.54 1500.3 1536.18 Q1504.5 1540.8 1504.5 1548.76 M1498.65 1547.04 Q1498.58 1542.23 1495.94 1539.37 Q1493.33 1536.5 1489 1536.5 Q1484.1 1536.5 1481.14 1539.27 Q1478.21 1542.04 1477.77 1547.07 L1498.65 1547.04 Z" fill="#000000" fill-rule="nonzero" fill-opacity="1"></path><path clip-path="url(#clip850)" d="M1536.84 1533.45 L1536.84 1538.98 Q1534.36 1537.71 1531.68 1537.07 Q1529.01 1536.44 1526.15 1536.44 Q1521.79 1536.44 1519.59 1537.77 Q1517.43 1539.11 1517.43 1541.79 Q1517.43 1543.82 1518.98 1545 Q1520.54 1546.15 1525.26 1547.2 L1527.26 1547.64 Q1533.5 1548.98 1536.11 1551.43 Q1538.75 1553.85 1538.75 1558.21 Q1538.75 1563.17 1534.8 1566.07 Q1530.89 1568.97 1524.01 1568.97 Q1521.15 1568.97 1518.03 1568.39 Q1514.94 1567.85 1511.51 1566.74 L1511.51 1560.69 Q1514.75 1562.38 1517.9 1563.24 Q1521.05 1564.07 1524.14 1564.07 Q1528.28 1564.07 1530.51 1562.66 Q1532.73 1561.23 1532.73 1558.65 Q1532.73 1556.27 1531.11 1554.99 Q1529.52 1553.72 1524.08 1552.54 L1522.04 1552.07 Q1516.6 1550.92 1514.18 1548.56 Q1511.76 1546.18 1511.76 1542.04 Q1511.76 1537.01 1515.32 1534.27 Q1518.89 1531.54 1525.45 1531.54 Q1528.69 1531.54 1531.56 1532.01 Q1534.42 1532.49 1536.84 1533.45 Z" fill="#000000" fill-rule="nonzero" fill-opacity="1"></path><polyline clip-path="url(#clip852)" style="stroke:#000000; stroke-linecap:round; stroke-linejoin:round; stroke-width:2; stroke-opacity:0.1; fill:none" points="210.746,1237.39 2352.76,1237.39 "></polyline>
<polyline clip-path="url(#clip852)" style="stroke:#000000; stroke-linecap:round; stroke-linejoin:round; stroke-width:2; stroke-opacity:0.1; fill:none" points="210.746,1051.14 2352.76,1051.14 "></polyline>
<polyline clip-path="url(#clip852)" style="stroke:#000000; stroke-linecap:round; stroke-linejoin:round; stroke-width:2; stroke-opacity:0.1; fill:none" points="210.746,864.892 2352.76,864.892 "></polyline>
<polyline clip-path="url(#clip852)" style="stroke:#000000; stroke-linecap:round; stroke-linejoin:round; stroke-width:2; stroke-opacity:0.1; fill:none" points="210.746,678.64 2352.76,678.64 "></polyline>
<polyline clip-path="url(#clip852)" style="stroke:#000000; stroke-linecap:round; stroke-linejoin:round; stroke-width:2; stroke-opacity:0.1; fill:none" points="210.746,492.389 2352.76,492.389 "></polyline>
<polyline clip-path="url(#clip852)" style="stroke:#000000; stroke-linecap:round; stroke-linejoin:round; stroke-width:2; stroke-opacity:0.1; fill:none" points="210.746,306.137 2352.76,306.137 "></polyline>
<polyline clip-path="url(#clip850)" style="stroke:#000000; stroke-linecap:round; stroke-linejoin:round; stroke-width:4; stroke-opacity:1; fill:none" points="210.746,1423.18 210.746,123.472 "></polyline>
<polyline clip-path="url(#clip850)" style="stroke:#000000; stroke-linecap:round; stroke-linejoin:round; stroke-width:4; stroke-opacity:1; fill:none" points="210.746,1237.39 229.644,1237.39 "></polyline>
<polyline clip-path="url(#clip850)" style="stroke:#000000; stroke-linecap:round; stroke-linejoin:round; stroke-width:4; stroke-opacity:1; fill:none" points="210.746,1051.14 229.644,1051.14 "></polyline>
<polyline clip-path="url(#clip850)" style="stroke:#000000; stroke-linecap:round; stroke-linejoin:round; stroke-width:4; stroke-opacity:1; fill:none" points="210.746,864.892 229.644,864.892 "></polyline>
<polyline clip-path="url(#clip850)" style="stroke:#000000; stroke-linecap:round; stroke-linejoin:round; stroke-width:4; stroke-opacity:1; fill:none" points="210.746,678.64 229.644,678.64 "></polyline>
<polyline clip-path="url(#clip850)" style="stroke:#000000; stroke-linecap:round; stroke-linejoin:round; stroke-width:4; stroke-opacity:1; fill:none" points="210.746,492.389 229.644,492.389 "></polyline>
<polyline clip-path="url(#clip850)" style="stroke:#000000; stroke-linecap:round; stroke-linejoin:round; stroke-width:4; stroke-opacity:1; fill:none" points="210.746,306.137 229.644,306.137 "></polyline>
<path clip-path="url(#clip850)" d="M114.631 1237.85 L144.306 1237.85 L144.306 1241.78 L114.631 1241.78 L114.631 1237.85 Z" fill="#000000" fill-rule="nonzero" fill-opacity="1"></path><path clip-path="url(#clip850)" d="M158.427 1250.74 L174.746 1250.74 L174.746 1254.67 L152.802 1254.67 L152.802 1250.74 Q155.464 1247.98 160.047 1243.36 Q164.653 1238.7 165.834 1237.36 Q168.079 1234.84 168.959 1233.1 Q169.862 1231.34 169.862 1229.65 Q169.862 1226.9 167.917 1225.16 Q165.996 1223.42 162.894 1223.42 Q160.695 1223.42 158.241 1224.19 Q155.811 1224.95 153.033 1226.5 L153.033 1221.78 Q155.857 1220.65 158.311 1220.07 Q160.765 1219.49 162.802 1219.49 Q168.172 1219.49 171.366 1222.17 Q174.561 1224.86 174.561 1229.35 Q174.561 1231.48 173.751 1233.4 Q172.964 1235.3 170.857 1237.89 Q170.278 1238.56 167.177 1241.78 Q164.075 1244.98 158.427 1250.74 Z" fill="#000000" fill-rule="nonzero" fill-opacity="1"></path><path clip-path="url(#clip850)" d="M114.26 1051.59 L143.936 1051.59 L143.936 1055.53 L114.26 1055.53 L114.26 1051.59 Z" fill="#000000" fill-rule="nonzero" fill-opacity="1"></path><path clip-path="url(#clip850)" d="M154.839 1064.49 L162.477 1064.49 L162.477 1038.12 L154.167 1039.79 L154.167 1035.53 L162.431 1033.86 L167.107 1033.86 L167.107 1064.49 L174.746 1064.49 L174.746 1068.42 L154.839 1068.42 L154.839 1064.49 Z" fill="#000000" fill-rule="nonzero" fill-opacity="1"></path><path clip-path="url(#clip850)" d="M162.802 850.69 Q159.19 850.69 157.362 854.255 Q155.556 857.797 155.556 864.926 Q155.556 872.033 157.362 875.598 Q159.19 879.139 162.802 879.139 Q166.436 879.139 168.241 875.598 Q170.07 872.033 170.07 864.926 Q170.07 857.797 168.241 854.255 Q166.436 850.69 162.802 850.69 M162.802 846.987 Q168.612 846.987 171.667 851.593 Q174.746 856.176 174.746 864.926 Q174.746 873.653 171.667 878.26 Q168.612 882.843 162.802 882.843 Q156.991 882.843 153.913 878.26 Q150.857 873.653 150.857 864.926 Q150.857 856.176 153.913 851.593 Q156.991 846.987 162.802 846.987 Z" fill="#000000" fill-rule="nonzero" fill-opacity="1"></path><path clip-path="url(#clip850)" d="M154.839 691.985 L162.477 691.985 L162.477 665.62 L154.167 667.286 L154.167 663.027 L162.431 661.36 L167.107 661.36 L167.107 691.985 L174.746 691.985 L174.746 695.92 L154.839 695.92 L154.839 691.985 Z" fill="#000000" fill-rule="nonzero" fill-opacity="1"></path><path clip-path="url(#clip850)" d="M158.427 505.734 L174.746 505.734 L174.746 509.669 L152.802 509.669 L152.802 505.734 Q155.464 502.979 160.047 498.35 Q164.653 493.697 165.834 492.354 Q168.079 489.831 168.959 488.095 Q169.862 486.336 169.862 484.646 Q169.862 481.891 167.917 480.155 Q165.996 478.419 162.894 478.419 Q160.695 478.419 158.241 479.183 Q155.811 479.947 153.033 481.498 L153.033 476.776 Q155.857 475.641 158.311 475.063 Q160.765 474.484 162.802 474.484 Q168.172 474.484 171.366 477.169 Q174.561 479.854 174.561 484.345 Q174.561 486.475 173.751 488.396 Q172.964 490.294 170.857 492.887 Q170.278 493.558 167.177 496.775 Q164.075 499.97 158.427 505.734 Z" fill="#000000" fill-rule="nonzero" fill-opacity="1"></path><path clip-path="url(#clip850)" d="M167.616 304.783 Q170.973 305.501 172.848 307.769 Q174.746 310.038 174.746 313.371 Q174.746 318.487 171.227 321.288 Q167.709 324.089 161.227 324.089 Q159.052 324.089 156.737 323.649 Q154.445 323.232 151.991 322.376 L151.991 317.862 Q153.936 318.996 156.251 319.575 Q158.565 320.154 161.089 320.154 Q165.487 320.154 167.778 318.418 Q170.093 316.681 170.093 313.371 Q170.093 310.316 167.94 308.603 Q165.811 306.867 161.991 306.867 L157.964 306.867 L157.964 303.024 L162.177 303.024 Q165.626 303.024 167.454 301.658 Q169.283 300.269 169.283 297.677 Q169.283 295.015 167.385 293.603 Q165.51 292.168 161.991 292.168 Q160.07 292.168 157.871 292.584 Q155.672 293.001 153.033 293.881 L153.033 289.714 Q155.695 288.973 158.01 288.603 Q160.348 288.232 162.408 288.232 Q167.732 288.232 170.834 290.663 Q173.936 293.07 173.936 297.191 Q173.936 300.061 172.292 302.052 Q170.649 304.019 167.616 304.783 Z" fill="#000000" fill-rule="nonzero" fill-opacity="1"></path><path clip-path="url(#clip850)" d="M16.4842 943.625 L16.4842 934.044 L48.8219 921.917 L16.4842 909.727 L16.4842 900.147 L64.0042 900.147 L64.0042 906.417 L22.277 906.417 L54.8694 918.671 L54.8694 925.132 L22.277 937.386 L64.0042 937.386 L64.0042 943.625 L16.4842 943.625 Z" fill="#000000" fill-rule="nonzero" fill-opacity="1"></path><path clip-path="url(#clip850)" d="M32.4621 873.825 Q32.4621 878.535 36.1542 881.272 Q39.8145 884.01 46.212 884.01 Q52.6095 884.01 56.3017 881.304 Q59.9619 878.567 59.9619 873.825 Q59.9619 869.146 56.2698 866.409 Q52.5777 863.671 46.212 863.671 Q39.8781 863.671 36.186 866.409 Q32.4621 869.146 32.4621 873.825 M27.4968 873.825 Q27.4968 866.186 32.4621 861.825 Q37.4273 857.465 46.212 857.465 Q54.9649 857.465 59.9619 861.825 Q64.9272 866.186 64.9272 873.825 Q64.9272 881.495 59.9619 885.856 Q54.9649 890.184 46.212 890.184 Q37.4273 890.184 32.4621 885.856 Q27.4968 881.495 27.4968 873.825 Z" fill="#000000" fill-rule="nonzero" fill-opacity="1"></path><path clip-path="url(#clip850)" d="M32.4621 833.943 Q32.4621 838.654 36.1542 841.391 Q39.8145 844.129 46.212 844.129 Q52.6095 844.129 56.3017 841.423 Q59.9619 838.686 59.9619 833.943 Q59.9619 829.265 56.2698 826.527 Q52.5777 823.79 46.212 823.79 Q39.8781 823.79 36.186 826.527 Q32.4621 829.265 32.4621 833.943 M27.4968 833.943 Q27.4968 826.305 32.4621 821.944 Q37.4273 817.584 46.212 817.584 Q54.9649 817.584 59.9619 821.944 Q64.9272 826.305 64.9272 833.943 Q64.9272 841.614 59.9619 845.975 Q54.9649 850.303 46.212 850.303 Q37.4273 850.303 32.4621 845.975 Q27.4968 841.614 27.4968 833.943 Z" fill="#000000" fill-rule="nonzero" fill-opacity="1"></path><path clip-path="url(#clip850)" d="M33.7671 784.418 L14.479 784.418 L14.479 778.562 L64.0042 778.562 L64.0042 784.418 L58.657 784.418 Q61.8398 786.264 63.3994 789.097 Q64.9272 791.898 64.9272 795.845 Q64.9272 802.306 59.771 806.38 Q54.6147 810.422 46.212 810.422 Q37.8093 810.422 32.6531 806.38 Q27.4968 802.306 27.4968 795.845 Q27.4968 791.898 29.0564 789.097 Q30.5842 786.264 33.7671 784.418 M46.212 804.375 Q52.6732 804.375 56.3653 801.733 Q60.0256 799.059 60.0256 794.412 Q60.0256 789.765 56.3653 787.092 Q52.6732 784.418 46.212 784.418 Q39.7508 784.418 36.0905 787.092 Q32.3984 789.765 32.3984 794.412 Q32.3984 799.059 36.0905 801.733 Q39.7508 804.375 46.212 804.375 Z" fill="#000000" fill-rule="nonzero" fill-opacity="1"></path><path clip-path="url(#clip850)" d="M14.479 745.778 L14.479 739.922 L64.0042 739.922 L64.0042 745.778 L14.479 745.778 Z" fill="#000000" fill-rule="nonzero" fill-opacity="1"></path><path clip-path="url(#clip850)" d="M44.7161 697.176 L47.5806 697.176 L47.5806 724.103 Q53.6281 723.721 56.8109 720.475 Q59.9619 717.196 59.9619 711.372 Q59.9619 707.998 59.1344 704.847 Q58.3069 701.664 56.6518 698.545 L62.1899 698.545 Q63.5267 701.696 64.227 705.006 Q64.9272 708.316 64.9272 711.722 Q64.9272 720.252 59.9619 725.249 Q54.9967 730.214 46.5303 730.214 Q37.7774 730.214 32.6531 725.504 Q27.4968 720.761 27.4968 712.74 Q27.4968 705.547 32.1438 701.378 Q36.7589 697.176 44.7161 697.176 M42.9973 703.033 Q38.1912 703.096 35.3266 705.738 Q32.4621 708.348 32.4621 712.677 Q32.4621 717.578 35.2312 720.538 Q38.0002 723.467 43.0292 723.912 L42.9973 703.033 Z" fill="#000000" fill-rule="nonzero" fill-opacity="1"></path><path clip-path="url(#clip850)" d="M28.3562 691.765 L28.3562 685.559 L58.275 674.419 L28.3562 663.279 L28.3562 657.072 L64.0042 670.44 L64.0042 678.397 L28.3562 691.765 Z" fill="#000000" fill-rule="nonzero" fill-opacity="1"></path><path clip-path="url(#clip850)" d="M44.7161 618.496 L47.5806 618.496 L47.5806 645.423 Q53.6281 645.041 56.8109 641.795 Q59.9619 638.516 59.9619 632.692 Q59.9619 629.318 59.1344 626.167 Q58.3069 622.984 56.6518 619.865 L62.1899 619.865 Q63.5267 623.016 64.227 626.326 Q64.9272 629.636 64.9272 633.042 Q64.9272 641.572 59.9619 646.569 Q54.9967 651.534 46.5303 651.534 Q37.7774 651.534 32.6531 646.823 Q27.4968 642.081 27.4968 634.06 Q27.4968 626.867 32.1438 622.697 Q36.7589 618.496 44.7161 618.496 M42.9973 624.353 Q38.1912 624.416 35.3266 627.058 Q32.4621 629.668 32.4621 633.997 Q32.4621 638.898 35.2312 641.858 Q38.0002 644.786 43.0292 645.232 L42.9973 624.353 Z" fill="#000000" fill-rule="nonzero" fill-opacity="1"></path><path clip-path="url(#clip850)" d="M14.479 608.884 L14.479 603.027 L64.0042 603.027 L64.0042 608.884 L14.479 608.884 Z" fill="#000000" fill-rule="nonzero" fill-opacity="1"></path><path clip-path="url(#clip850)" d="M640.189 12.096 L691.352 12.096 L691.352 18.9825 L669.882 18.9825 L669.882 72.576 L661.659 72.576 L661.659 18.9825 L640.189 18.9825 L640.189 12.096 Z" fill="#000000" fill-rule="nonzero" fill-opacity="1"></path><path clip-path="url(#clip850)" d="M705.814 49.7694 Q696.78 49.7694 693.296 51.8354 Q689.813 53.9013 689.813 58.8839 Q689.813 62.8538 692.405 65.2034 Q695.038 67.5124 699.535 67.5124 Q705.733 67.5124 709.459 63.1374 Q713.227 58.7219 713.227 51.4303 L713.227 49.7694 L705.814 49.7694 M720.68 46.6907 L720.68 72.576 L713.227 72.576 L713.227 65.6895 Q710.675 69.8214 706.867 71.8063 Q703.059 73.7508 697.55 73.7508 Q690.582 73.7508 686.45 69.8619 Q682.359 65.9325 682.359 59.3701 Q682.359 51.7138 687.463 47.825 Q692.608 43.9361 702.775 43.9361 L713.227 43.9361 L713.227 43.2069 Q713.227 38.0623 709.824 35.2672 Q706.462 32.4315 700.345 32.4315 Q696.456 32.4315 692.77 33.3632 Q689.083 34.295 685.681 36.1584 L685.681 29.2718 Q689.772 27.692 693.62 26.9223 Q697.469 26.1121 701.115 26.1121 Q710.958 26.1121 715.819 31.2163 Q720.68 36.3204 720.68 46.6907 Z" fill="#000000" fill-rule="nonzero" fill-opacity="1"></path><path clip-path="url(#clip850)" d="M736.033 9.54393 L743.487 9.54393 L743.487 72.576 L736.033 72.576 L736.033 9.54393 Z" fill="#000000" fill-rule="nonzero" fill-opacity="1"></path><path clip-path="url(#clip850)" d="M758.799 9.54393 L766.294 9.54393 L766.294 46.7717 L788.533 27.2059 L798.053 27.2059 L773.99 48.4326 L799.065 72.576 L789.343 72.576 L766.294 50.4176 L766.294 72.576 L758.799 72.576 L758.799 9.54393 Z" fill="#000000" fill-rule="nonzero" fill-opacity="1"></path><path clip-path="url(#clip850)" d="M807.127 27.2059 L814.58 27.2059 L814.58 72.576 L807.127 72.576 L807.127 27.2059 M807.127 9.54393 L814.58 9.54393 L814.58 18.9825 L807.127 18.9825 L807.127 9.54393 Z" fill="#000000" fill-rule="nonzero" fill-opacity="1"></path><path clip-path="url(#clip850)" d="M867.89 45.1919 L867.89 72.576 L860.437 72.576 L860.437 45.4349 Q860.437 38.994 857.925 35.7938 Q855.414 32.5936 850.39 32.5936 Q844.355 32.5936 840.871 36.4419 Q837.387 40.2903 837.387 46.9338 L837.387 72.576 L829.893 72.576 L829.893 27.2059 L837.387 27.2059 L837.387 34.2544 Q840.061 30.163 843.666 28.1376 Q847.312 26.1121 852.051 26.1121 Q859.87 26.1121 863.88 30.9732 Q867.89 35.7938 867.89 45.1919 Z" fill="#000000" fill-rule="nonzero" fill-opacity="1"></path><path clip-path="url(#clip850)" d="M912.612 49.3643 Q912.612 41.2625 909.25 36.8065 Q905.928 32.3505 899.892 32.3505 Q893.897 32.3505 890.535 36.8065 Q887.213 41.2625 887.213 49.3643 Q887.213 57.4256 890.535 61.8816 Q893.897 66.3376 899.892 66.3376 Q905.928 66.3376 909.25 61.8816 Q912.612 57.4256 912.612 49.3643 M920.066 66.9452 Q920.066 78.5308 914.921 84.1616 Q909.777 89.8329 899.163 89.8329 Q895.234 89.8329 891.75 89.2252 Q888.266 88.6581 884.985 87.4428 L884.985 80.1917 Q888.266 81.9741 891.467 82.8248 Q894.667 83.6755 897.989 83.6755 Q905.321 83.6755 908.966 79.8271 Q912.612 76.0193 912.612 68.282 L912.612 64.5957 Q910.303 68.6061 906.698 70.5911 Q903.093 72.576 898.07 72.576 Q889.725 72.576 884.621 66.2161 Q879.516 59.8562 879.516 49.3643 Q879.516 38.832 884.621 32.472 Q889.725 26.1121 898.07 26.1121 Q903.093 26.1121 906.698 28.0971 Q910.303 30.082 912.612 34.0924 L912.612 27.2059 L920.066 27.2059 L920.066 66.9452 Z" fill="#000000" fill-rule="nonzero" fill-opacity="1"></path><path clip-path="url(#clip850)" d="M962.114 12.096 L996.871 12.096 L996.871 18.9825 L970.297 18.9825 L970.297 36.8065 L994.279 36.8065 L994.279 43.6931 L970.297 43.6931 L970.297 72.576 L962.114 72.576 L962.114 12.096 Z" fill="#000000" fill-rule="nonzero" fill-opacity="1"></path><path clip-path="url(#clip850)" d="M1029.76 34.1734 Q1028.51 33.4443 1027.01 33.1202 Q1025.55 32.7556 1023.77 32.7556 Q1017.45 32.7556 1014.05 36.8875 Q1010.68 40.9789 1010.68 48.6757 L1010.68 72.576 L1003.19 72.576 L1003.19 27.2059 L1010.68 27.2059 L1010.68 34.2544 Q1013.03 30.1225 1016.8 28.1376 Q1020.57 26.1121 1025.96 26.1121 Q1026.73 26.1121 1027.66 26.2337 Q1028.59 26.3147 1029.72 26.5172 L1029.76 34.1734 Z" fill="#000000" fill-rule="nonzero" fill-opacity="1"></path><path clip-path="url(#clip850)" d="M1037.58 27.2059 L1045.04 27.2059 L1045.04 72.576 L1037.58 72.576 L1037.58 27.2059 M1037.58 9.54393 L1045.04 9.54393 L1045.04 18.9825 L1037.58 18.9825 L1037.58 9.54393 Z" fill="#000000" fill-rule="nonzero" fill-opacity="1"></path><path clip-path="url(#clip850)" d="M1099.44 48.0275 L1099.44 51.6733 L1065.17 51.6733 Q1065.66 59.3701 1069.79 63.421 Q1073.96 67.4314 1081.37 67.4314 Q1085.67 67.4314 1089.68 66.3781 Q1093.73 65.3249 1097.7 63.2184 L1097.7 70.267 Q1093.69 71.9684 1089.47 72.8596 Q1085.26 73.7508 1080.93 73.7508 Q1070.07 73.7508 1063.71 67.4314 Q1057.39 61.1119 1057.39 50.3365 Q1057.39 39.1965 1063.39 32.6746 Q1069.42 26.1121 1079.63 26.1121 Q1088.79 26.1121 1094.09 32.0264 Q1099.44 37.9003 1099.44 48.0275 M1091.99 45.84 Q1091.91 39.7232 1088.54 36.0774 Q1085.22 32.4315 1079.71 32.4315 Q1073.47 32.4315 1069.71 35.9558 Q1065.98 39.4801 1065.41 45.8805 L1091.99 45.84 Z" fill="#000000" fill-rule="nonzero" fill-opacity="1"></path><path clip-path="url(#clip850)" d="M1149.39 45.1919 L1149.39 72.576 L1141.93 72.576 L1141.93 45.4349 Q1141.93 38.994 1139.42 35.7938 Q1136.91 32.5936 1131.89 32.5936 Q1125.85 32.5936 1122.37 36.4419 Q1118.88 40.2903 1118.88 46.9338 L1118.88 72.576 L1111.39 72.576 L1111.39 27.2059 L1118.88 27.2059 L1118.88 34.2544 Q1121.56 30.163 1125.16 28.1376 Q1128.81 26.1121 1133.55 26.1121 Q1141.37 26.1121 1145.38 30.9732 Q1149.39 35.7938 1149.39 45.1919 Z" fill="#000000" fill-rule="nonzero" fill-opacity="1"></path><path clip-path="url(#clip850)" d="M1194.11 34.0924 L1194.11 9.54393 L1201.56 9.54393 L1201.56 72.576 L1194.11 72.576 L1194.11 65.7705 Q1191.76 69.8214 1188.15 71.8063 Q1184.59 73.7508 1179.57 73.7508 Q1171.34 73.7508 1166.16 67.1883 Q1161.01 60.6258 1161.01 49.9314 Q1161.01 39.2371 1166.16 32.6746 Q1171.34 26.1121 1179.57 26.1121 Q1184.59 26.1121 1188.15 28.0971 Q1191.76 30.0415 1194.11 34.0924 M1168.71 49.9314 Q1168.71 58.1548 1172.07 62.8538 Q1175.48 67.5124 1181.39 67.5124 Q1187.3 67.5124 1190.71 62.8538 Q1194.11 58.1548 1194.11 49.9314 Q1194.11 41.7081 1190.71 37.0496 Q1187.3 32.3505 1181.39 32.3505 Q1175.48 32.3505 1172.07 37.0496 Q1168.71 41.7081 1168.71 49.9314 Z" fill="#000000" fill-rule="nonzero" fill-opacity="1"></path><path clip-path="url(#clip850)" d="M1245.84 28.5427 L1245.84 35.5912 Q1242.68 33.9709 1239.28 33.1607 Q1235.87 32.3505 1232.23 32.3505 Q1226.68 32.3505 1223.88 34.0519 Q1221.13 35.7533 1221.13 39.156 Q1221.13 41.7486 1223.11 43.2475 Q1225.1 44.7058 1231.09 46.0426 L1233.65 46.6097 Q1241.59 48.3111 1244.91 51.4303 Q1248.27 54.509 1248.27 60.0587 Q1248.27 66.3781 1243.25 70.0644 Q1238.26 73.7508 1229.51 73.7508 Q1225.87 73.7508 1221.9 73.0216 Q1217.97 72.3329 1213.59 70.9151 L1213.59 63.2184 Q1217.73 65.3654 1221.74 66.4591 Q1225.75 67.5124 1229.68 67.5124 Q1234.94 67.5124 1237.78 65.73 Q1240.61 63.9071 1240.61 60.6258 Q1240.61 57.5877 1238.55 55.9673 Q1236.52 54.3469 1229.6 52.8481 L1227 52.2405 Q1220.08 50.7821 1217 47.7845 Q1213.92 44.7463 1213.92 39.4801 Q1213.92 33.0797 1218.46 29.5959 Q1222.99 26.1121 1231.34 26.1121 Q1235.47 26.1121 1239.12 26.7198 Q1242.76 27.3274 1245.84 28.5427 Z" fill="#000000" fill-rule="nonzero" fill-opacity="1"></path><path clip-path="url(#clip850)" d="M1282.74 46.5287 L1304.58 46.5287 L1304.58 53.1722 L1282.74 53.1722 L1282.74 46.5287 Z" fill="#000000" fill-rule="nonzero" fill-opacity="1"></path><path clip-path="url(#clip850)" d="M1343.14 12.096 L1351.33 12.096 L1351.33 36.8875 L1381.06 36.8875 L1381.06 12.096 L1389.24 12.096 L1389.24 72.576 L1381.06 72.576 L1381.06 43.7741 L1351.33 43.7741 L1351.33 72.576 L1343.14 72.576 L1343.14 12.096 Z" fill="#000000" fill-rule="nonzero" fill-opacity="1"></path><path clip-path="url(#clip850)" d="M1425.82 49.7694 Q1416.79 49.7694 1413.3 51.8354 Q1409.82 53.9013 1409.82 58.8839 Q1409.82 62.8538 1412.41 65.2034 Q1415.05 67.5124 1419.54 67.5124 Q1425.74 67.5124 1429.47 63.1374 Q1433.23 58.7219 1433.23 51.4303 L1433.23 49.7694 L1425.82 49.7694 M1440.69 46.6907 L1440.69 72.576 L1433.23 72.576 L1433.23 65.6895 Q1430.68 69.8214 1426.87 71.8063 Q1423.07 73.7508 1417.56 73.7508 Q1410.59 73.7508 1406.46 69.8619 Q1402.37 65.9325 1402.37 59.3701 Q1402.37 51.7138 1407.47 47.825 Q1412.62 43.9361 1422.78 43.9361 L1433.23 43.9361 L1433.23 43.2069 Q1433.23 38.0623 1429.83 35.2672 Q1426.47 32.4315 1420.35 32.4315 Q1416.46 32.4315 1412.78 33.3632 Q1409.09 34.295 1405.69 36.1584 L1405.69 29.2718 Q1409.78 27.692 1413.63 26.9223 Q1417.48 26.1121 1421.12 26.1121 Q1430.97 26.1121 1435.83 31.2163 Q1440.69 36.3204 1440.69 46.6907 Z" fill="#000000" fill-rule="nonzero" fill-opacity="1"></path><path clip-path="url(#clip850)" d="M1463.25 65.7705 L1463.25 89.8329 L1455.76 89.8329 L1455.76 27.2059 L1463.25 27.2059 L1463.25 34.0924 Q1465.6 30.0415 1469.17 28.0971 Q1472.77 26.1121 1477.75 26.1121 Q1486.02 26.1121 1491.16 32.6746 Q1496.35 39.2371 1496.35 49.9314 Q1496.35 60.6258 1491.16 67.1883 Q1486.02 73.7508 1477.75 73.7508 Q1472.77 73.7508 1469.17 71.8063 Q1465.6 69.8214 1463.25 65.7705 M1488.61 49.9314 Q1488.61 41.7081 1485.21 37.0496 Q1481.85 32.3505 1475.93 32.3505 Q1470.02 32.3505 1466.61 37.0496 Q1463.25 41.7081 1463.25 49.9314 Q1463.25 58.1548 1466.61 62.8538 Q1470.02 67.5124 1475.93 67.5124 Q1481.85 67.5124 1485.21 62.8538 Q1488.61 58.1548 1488.61 49.9314 Z" fill="#000000" fill-rule="nonzero" fill-opacity="1"></path><path clip-path="url(#clip850)" d="M1515.91 65.7705 L1515.91 89.8329 L1508.42 89.8329 L1508.42 27.2059 L1515.91 27.2059 L1515.91 34.0924 Q1518.26 30.0415 1521.83 28.0971 Q1525.43 26.1121 1530.42 26.1121 Q1538.68 26.1121 1543.82 32.6746 Q1549.01 39.2371 1549.01 49.9314 Q1549.01 60.6258 1543.82 67.1883 Q1538.68 73.7508 1530.42 73.7508 Q1525.43 73.7508 1521.83 71.8063 Q1518.26 69.8214 1515.91 65.7705 M1541.27 49.9314 Q1541.27 41.7081 1537.87 37.0496 Q1534.51 32.3505 1528.59 32.3505 Q1522.68 32.3505 1519.28 37.0496 Q1515.91 41.7081 1515.91 49.9314 Q1515.91 58.1548 1519.28 62.8538 Q1522.68 67.5124 1528.59 67.5124 Q1534.51 67.5124 1537.87 62.8538 Q1541.27 58.1548 1541.27 49.9314 Z" fill="#000000" fill-rule="nonzero" fill-opacity="1"></path><path clip-path="url(#clip850)" d="M1580.24 76.7889 Q1577.08 84.8907 1574.08 87.3618 Q1571.09 89.8329 1566.06 89.8329 L1560.11 89.8329 L1560.11 83.5945 L1564.48 83.5945 Q1567.56 83.5945 1569.26 82.1361 Q1570.97 80.6778 1573.03 75.2496 L1574.37 71.8468 L1556.02 27.2059 L1563.92 27.2059 L1578.09 62.6918 L1592.27 27.2059 L1600.17 27.2059 L1580.24 76.7889 Z" fill="#000000" fill-rule="nonzero" fill-opacity="1"></path><path clip-path="url(#clip850)" d="M1637.16 12.096 L1671.91 12.096 L1671.91 18.9825 L1645.34 18.9825 L1645.34 36.8065 L1669.32 36.8065 L1669.32 43.6931 L1645.34 43.6931 L1645.34 72.576 L1637.16 72.576 L1637.16 12.096 Z" fill="#000000" fill-rule="nonzero" fill-opacity="1"></path><path clip-path="url(#clip850)" d="M1704.81 34.1734 Q1703.55 33.4443 1702.05 33.1202 Q1700.59 32.7556 1698.81 32.7556 Q1692.49 32.7556 1689.09 36.8875 Q1685.73 40.9789 1685.73 48.6757 L1685.73 72.576 L1678.23 72.576 L1678.23 27.2059 L1685.73 27.2059 L1685.73 34.2544 Q1688.08 30.1225 1691.84 28.1376 Q1695.61 26.1121 1701 26.1121 Q1701.77 26.1121 1702.7 26.2337 Q1703.63 26.3147 1704.77 26.5172 L1704.81 34.1734 Z" fill="#000000" fill-rule="nonzero" fill-opacity="1"></path><path clip-path="url(#clip850)" d="M1712.63 27.2059 L1720.08 27.2059 L1720.08 72.576 L1712.63 72.576 L1712.63 27.2059 M1712.63 9.54393 L1720.08 9.54393 L1720.08 18.9825 L1712.63 18.9825 L1712.63 9.54393 Z" fill="#000000" fill-rule="nonzero" fill-opacity="1"></path><path clip-path="url(#clip850)" d="M1774.48 48.0275 L1774.48 51.6733 L1740.21 51.6733 Q1740.7 59.3701 1744.83 63.421 Q1749 67.4314 1756.42 67.4314 Q1760.71 67.4314 1764.72 66.3781 Q1768.77 65.3249 1772.74 63.2184 L1772.74 70.267 Q1768.73 71.9684 1764.52 72.8596 Q1760.3 73.7508 1755.97 73.7508 Q1745.11 73.7508 1738.75 67.4314 Q1732.43 61.1119 1732.43 50.3365 Q1732.43 39.1965 1738.43 32.6746 Q1744.47 26.1121 1754.67 26.1121 Q1763.83 26.1121 1769.14 32.0264 Q1774.48 37.9003 1774.48 48.0275 M1767.03 45.84 Q1766.95 39.7232 1763.59 36.0774 Q1760.26 32.4315 1754.75 32.4315 Q1748.52 32.4315 1744.75 35.9558 Q1741.02 39.4801 1740.46 45.8805 L1767.03 45.84 Z" fill="#000000" fill-rule="nonzero" fill-opacity="1"></path><path clip-path="url(#clip850)" d="M1824.43 45.1919 L1824.43 72.576 L1816.98 72.576 L1816.98 45.4349 Q1816.98 38.994 1814.47 35.7938 Q1811.95 32.5936 1806.93 32.5936 Q1800.89 32.5936 1797.41 36.4419 Q1793.93 40.2903 1793.93 46.9338 L1793.93 72.576 L1786.43 72.576 L1786.43 27.2059 L1793.93 27.2059 L1793.93 34.2544 Q1796.6 30.163 1800.21 28.1376 Q1803.85 26.1121 1808.59 26.1121 Q1816.41 26.1121 1820.42 30.9732 Q1824.43 35.7938 1824.43 45.1919 Z" fill="#000000" fill-rule="nonzero" fill-opacity="1"></path><path clip-path="url(#clip850)" d="M1869.15 34.0924 L1869.15 9.54393 L1876.61 9.54393 L1876.61 72.576 L1869.15 72.576 L1869.15 65.7705 Q1866.8 69.8214 1863.2 71.8063 Q1859.63 73.7508 1854.61 73.7508 Q1846.39 73.7508 1841.2 67.1883 Q1836.06 60.6258 1836.06 49.9314 Q1836.06 39.2371 1841.2 32.6746 Q1846.39 26.1121 1854.61 26.1121 Q1859.63 26.1121 1863.2 28.0971 Q1866.8 30.0415 1869.15 34.0924 M1843.75 49.9314 Q1843.75 58.1548 1847.12 62.8538 Q1850.52 67.5124 1856.43 67.5124 Q1862.35 67.5124 1865.75 62.8538 Q1869.15 58.1548 1869.15 49.9314 Q1869.15 41.7081 1865.75 37.0496 Q1862.35 32.3505 1856.43 32.3505 Q1850.52 32.3505 1847.12 37.0496 Q1843.75 41.7081 1843.75 49.9314 Z" fill="#000000" fill-rule="nonzero" fill-opacity="1"></path><path clip-path="url(#clip850)" d="M1920.88 28.5427 L1920.88 35.5912 Q1917.72 33.9709 1914.32 33.1607 Q1910.92 32.3505 1907.27 32.3505 Q1901.72 32.3505 1898.93 34.0519 Q1896.17 35.7533 1896.17 39.156 Q1896.17 41.7486 1898.16 43.2475 Q1900.14 44.7058 1906.14 46.0426 L1908.69 46.6097 Q1916.63 48.3111 1919.95 51.4303 Q1923.31 54.509 1923.31 60.0587 Q1923.31 66.3781 1918.29 70.0644 Q1913.31 73.7508 1904.56 73.7508 Q1900.91 73.7508 1896.94 73.0216 Q1893.01 72.3329 1888.64 70.9151 L1888.64 63.2184 Q1892.77 65.3654 1896.78 66.4591 Q1900.79 67.5124 1904.72 67.5124 Q1909.99 67.5124 1912.82 65.73 Q1915.66 63.9071 1915.66 60.6258 Q1915.66 57.5877 1913.59 55.9673 Q1911.57 54.3469 1904.64 52.8481 L1902.05 52.2405 Q1895.12 50.7821 1892.04 47.7845 Q1888.96 44.7463 1888.96 39.4801 Q1888.96 33.0797 1893.5 29.5959 Q1898.04 26.1121 1906.38 26.1121 Q1910.51 26.1121 1914.16 26.7198 Q1917.8 27.3274 1920.88 28.5427 Z" fill="#000000" fill-rule="nonzero" fill-opacity="1"></path><polyline clip-path="url(#clip852)" style="stroke:#009af9; stroke-linecap:round; stroke-linejoin:round; stroke-width:8; stroke-opacity:1; fill:none" points="210.746,213.012 212.89,217.3 215.034,221.55 217.178,225.763 219.323,229.94 221.467,234.08 223.611,238.184 225.755,242.252 227.899,246.285 230.043,250.282 232.187,254.244 234.332,258.172 236.476,262.065 238.62,265.924 240.764,269.75 242.908,273.542 245.052,277.3 247.197,281.026 249.341,284.72 251.485,288.38 253.629,292.009 255.773,295.606 257.917,299.172 260.061,302.706 262.206,306.209 264.35,309.682 266.494,313.124 268.638,316.536 270.782,319.917 272.926,323.27 275.071,326.592 277.215,329.886 279.359,333.15 281.503,336.386 283.647,339.594 285.791,342.773 287.935,345.924 290.08,349.048 292.224,352.144 294.368,355.213 296.512,358.255 298.656,361.27 300.8,364.258 302.945,367.22 305.089,370.156 307.233,373.066 309.377,375.951 311.521,378.81 313.665,381.644 315.809,384.452 317.954,387.236 320.098,389.996 322.242,392.731 324.386,395.442 326.53,398.129 328.674,400.792 330.819,403.431 332.963,406.047 335.107,408.641 337.251,411.211 339.395,413.758 341.539,416.283 343.683,418.785 345.828,421.265 347.972,423.723 350.116,426.16 352.26,428.575 354.404,430.968 356.548,433.34 358.693,435.691 360.837,438.021 362.981,440.33 365.125,442.619 367.269,444.888 369.413,447.136 371.558,449.364 373.702,451.573 375.846,453.761 377.99,455.931 380.134,458.081 382.278,460.211 384.422,462.323 386.567,464.416 388.711,466.49 390.855,468.546 392.999,470.583 395.143,472.602 397.287,474.603 399.432,476.586 401.576,478.552 403.72,480.499 405.864,482.43 408.008,484.343 410.152,486.239 412.296,488.117 414.441,489.979 416.585,491.824 418.729,493.653 420.873,495.465 423.017,497.261 425.161,499.041 427.306,500.805 429.45,502.552 431.594,504.285 433.738,506.001 435.882,507.702 438.026,509.388 440.17,511.058 442.315,512.713 444.459,514.354 446.603,515.979 448.747,517.59 450.891,519.186 453.035,520.768 455.18,522.335 457.324,523.889 459.468,525.428 461.612,526.953 463.756,528.464 465.9,529.962 468.044,531.446 470.189,532.916 472.333,534.373 474.477,535.817 476.621,537.248 478.765,538.666 480.909,540.07 483.054,541.462 485.198,542.841 487.342,544.208 489.486,545.562 491.63,546.904 493.774,548.233 495.918,549.55 498.063,550.856 500.207,552.149 502.351,553.43 504.495,554.699 506.639,555.957 508.783,557.203 510.928,558.438 513.072,559.662 515.216,560.874 517.36,562.075 519.504,563.264 521.648,564.443 523.792,565.611 525.937,566.768 528.081,567.915 530.225,569.05 532.369,570.175 534.513,571.29 536.657,572.395 538.802,573.489 540.946,574.573 543.09,575.647 545.234,576.71 547.378,577.764 549.522,578.809 551.666,579.843 553.811,580.868 555.955,581.883 558.099,582.888 560.243,583.884 562.387,584.871 564.531,585.849 566.676,586.817 568.82,587.776 570.964,588.727 573.108,589.668 575.252,590.6 577.396,591.524 579.54,592.439 581.685,593.345 583.829,594.243 585.973,595.132 588.117,596.013 590.261,596.885 592.405,597.749 594.55,598.605 596.694,599.453 598.838,600.292 600.982,601.124 603.126,601.948 605.27,602.763 607.414,603.571 609.559,604.371 611.703,605.164 613.847,605.949 615.991,606.726 618.135,607.496 620.279,608.258 622.424,609.013 624.568,609.761 626.712,610.501 628.856,611.234 631,611.96 633.144,612.68 635.288,613.392 637.433,614.097 639.577,614.795 641.721,615.486 643.865,616.171 646.009,616.849 648.153,617.52 650.298,618.185 652.442,618.843 654.586,619.495 656.73,620.14 658.874,620.779 661.018,621.412 663.162,622.038 665.307,622.658 667.451,623.272 669.595,623.88 671.739,624.482 673.883,625.078 676.027,625.668 678.172,626.252 680.316,626.83 682.46,627.403 684.604,627.969 686.748,628.53 688.892,629.086 691.036,629.635 693.181,630.179 695.325,630.718 697.469,631.251 699.613,631.779 701.757,632.302 703.901,632.819 706.046,633.33 708.19,633.837 710.334,634.338 712.478,634.835 714.622,635.326 716.766,635.812 718.91,636.293 721.055,636.769 723.199,637.24 725.343,637.707 727.487,638.168 729.631,638.624 731.775,639.076 733.92,639.523 736.064,639.966 738.208,640.403 740.352,640.837 742.496,641.265 744.64,641.689 746.784,642.108 748.929,642.523 751.073,642.934 753.217,643.34 755.361,643.742 757.505,644.14 759.649,644.533 761.794,644.922 763.938,645.307 766.082,645.687 768.226,646.064 770.37,646.436 772.514,646.804 774.658,647.169 776.803,647.529 778.947,647.885 781.091,648.238 783.235,648.586 785.379,648.931 787.523,649.272 789.668,649.609 791.812,649.942 793.956,650.272 796.1,650.598 798.244,650.92 800.388,651.238 802.532,651.553 804.677,651.865 806.821,652.173 808.965,652.477 811.109,652.778 813.253,653.075 815.397,653.369 817.542,653.66 819.686,653.947 821.83,654.231 823.974,654.511 826.118,654.789 828.262,655.063 830.406,655.333 832.551,655.601 834.695,655.865 836.839,656.127 838.983,656.385 841.127,656.64 843.271,656.892 845.416,657.141 847.56,657.387 849.704,657.63 851.848,657.87 853.992,658.107 856.136,658.341 858.28,658.572 860.425,658.801 862.569,659.026 864.713,659.249 866.857,659.469 869.001,659.686 871.145,659.9 873.29,660.112 875.434,660.321 877.578,660.527 879.722,660.731 881.866,660.932 884.01,661.13 886.154,661.325 888.299,661.518 890.443,661.709 892.587,661.897 894.731,662.082 896.875,662.265 899.019,662.446 901.164,662.624 903.308,662.799 905.452,662.973 907.596,663.143 909.74,663.312 911.884,663.478 914.028,663.641 916.173,663.803 918.317,663.962 920.461,664.119 922.605,664.273 924.749,664.426 926.893,664.576 929.038,664.724 931.182,664.869 933.326,665.013 935.47,665.154 937.614,665.294 939.758,665.431 941.902,665.566 944.047,665.699 946.191,665.83 948.335,665.959 950.479,666.086 952.623,666.21 954.767,666.333 956.912,666.454 959.056,666.573 961.2,666.69 963.344,666.805 965.488,666.919 967.632,667.03 969.777,667.139 971.921,667.247 974.065,667.353 976.209,667.457 978.353,667.559 980.497,667.659 982.641,667.758 984.786,667.855 986.93,667.95 989.074,668.043 991.218,668.134 993.362,668.224 995.506,668.313 997.651,668.399 999.795,668.484 1001.94,668.567 1004.08,668.649 1006.23,668.729 1008.37,668.807 1010.52,668.884 1012.66,668.959 1014.8,669.033 1016.95,669.105 1019.09,669.175 1021.24,669.244 1023.38,669.312 1025.52,669.378 1027.67,669.442 1029.81,669.505 1031.96,669.566 1034.1,669.626 1036.25,669.685 1038.39,669.742 1040.53,669.798 1042.68,669.852 1044.82,669.905 1046.97,669.956 1049.11,670.006 1051.25,670.055 1053.4,670.102 1055.54,670.148 1057.69,670.193 1059.83,670.236 1061.98,670.278 1064.12,670.319 1066.26,670.358 1068.41,670.396 1070.55,670.433 1072.7,670.468 1074.84,670.503 1076.98,670.536 1079.13,670.567 1081.27,670.598 1083.42,670.627 1085.56,670.655 1087.7,670.682 1089.85,670.708 1091.99,670.732 1094.14,670.756 1096.28,670.778 1098.43,670.799 1100.57,670.819 1102.71,670.838 1104.86,670.855 1107,670.872 1109.15,670.887 1111.29,670.902 1113.43,670.915 1115.58,670.927 1117.72,670.938 1119.87,670.948 1122.01,670.957 1124.16,670.965 1126.3,670.972 1128.44,670.978 1130.59,670.983 1132.73,670.987 1134.88,670.99 1137.02,670.992 1139.16,670.992 1141.31,670.992 1143.45,670.991 1145.6,670.989 1147.74,670.986 1149.89,670.983 1152.03,670.978 1154.17,670.972 1156.32,670.965 1158.46,670.958 1160.61,670.949 1162.75,670.94 1164.89,670.93 1167.04,670.919 1169.18,670.907 1171.33,670.894 1173.47,670.88 1175.62,670.865 1177.76,670.85 1179.9,670.834 1182.05,670.817 1184.19,670.799 1186.34,670.78 1188.48,670.761 1190.62,670.74 1192.77,670.719 1194.91,670.697 1197.06,670.674 1199.2,670.651 1201.35,670.627 1203.49,670.602 1205.63,670.576 1207.78,670.549 1209.92,670.522 1212.07,670.494 1214.21,670.465 1216.35,670.435 1218.5,670.405 1220.64,670.374 1222.79,670.342 1224.93,670.31 1227.07,670.277 1229.22,670.243 1231.36,670.208 1233.51,670.173 1235.65,670.137 1237.8,670.1 1239.94,670.063 1242.08,670.025 1244.23,669.986 1246.37,669.947 1248.52,669.907 1250.66,669.866 1252.8,669.825 1254.95,669.783 1257.09,669.74 1259.24,669.697 1261.38,669.653 1263.53,669.608 1265.67,669.563 1267.81,669.518 1269.96,669.471 1272.1,669.424 1274.25,669.377 1276.39,669.328 1278.53,669.28 1280.68,669.23 1282.82,669.18 1284.97,669.13 1287.11,669.078 1289.26,669.027 1291.4,668.974 1293.54,668.922 1295.69,668.868 1297.83,668.814 1299.98,668.76 1302.12,668.705 1304.26,668.649 1306.41,668.593 1308.55,668.536 1310.7,668.479 1312.84,668.421 1314.99,668.363 1317.13,668.304 1319.27,668.245 1321.42,668.185 1323.56,668.125 1325.71,668.064 1327.85,668.003 1329.99,667.941 1332.14,667.878 1334.28,667.816 1336.43,667.752 1338.57,667.689 1340.72,667.624 1342.86,667.56 1345,667.495 1347.15,667.429 1349.29,667.363 1351.44,667.296 1353.58,667.229 1355.72,667.162 1357.87,667.094 1360.01,667.025 1362.16,666.957 1364.3,666.887 1366.45,666.818 1368.59,666.748 1370.73,666.677 1372.88,666.606 1375.02,666.535 1377.17,666.463 1379.31,666.391 1381.45,666.318 1383.6,666.245 1385.74,666.172 1387.89,666.098 1390.03,666.024 1392.17,665.949 1394.32,665.874 1396.46,665.799 1398.61,665.723 1400.75,665.647 1402.9,665.57 1405.04,665.493 1407.18,665.416 1409.33,665.338 1411.47,665.26 1413.62,665.182 1415.76,665.103 1417.9,665.024 1420.05,664.944 1422.19,664.865 1424.34,664.784 1426.48,664.704 1428.63,664.623 1430.77,664.542 1432.91,664.46 1435.06,664.378 1437.2,664.296 1439.35,664.213 1441.49,664.13 1443.63,664.047 1445.78,663.963 1447.92,663.879 1450.07,663.795 1452.21,663.71 1454.36,663.625 1456.5,663.54 1458.64,663.454 1460.79,663.368 1462.93,663.282 1465.08,663.195 1467.22,663.108 1469.36,663.021 1471.51,662.934 1473.65,662.846 1475.8,662.758 1477.94,662.669 1480.09,662.58 1482.23,662.491 1484.37,662.402 1486.52,662.312 1488.66,662.222 1490.81,662.132 1492.95,662.041 1495.09,661.95 1497.24,661.859 1499.38,661.768 1501.53,661.676 1503.67,661.584 1505.82,661.492 1507.96,661.399 1510.1,661.306 1512.25,661.213 1514.39,661.119 1516.54,661.026 1518.68,660.932 1520.82,660.838 1522.97,660.743 1525.11,660.648 1527.26,660.553 1529.4,660.458 1531.54,660.362 1533.69,660.266 1535.83,660.17 1537.98,660.074 1540.12,659.977 1542.27,659.88 1544.41,659.783 1546.55,659.686 1548.7,659.588 1550.84,659.49 1552.99,659.392 1555.13,659.294 1557.27,659.195 1559.42,659.096 1561.56,658.997 1563.71,658.898 1565.85,658.798 1568,658.698 1570.14,658.598 1572.28,658.498 1574.43,658.397 1576.57,658.297 1578.72,658.196 1580.86,658.095 1583,657.993 1585.15,657.891 1587.29,657.79 1589.44,657.687 1591.58,657.585 1593.73,657.483 1595.87,657.38 1598.01,657.277 1600.16,657.174 1602.3,657.07 1604.45,656.967 1606.59,656.863 1608.73,656.759 1610.88,656.654 1613.02,656.55 1615.17,656.445 1617.31,656.341 1619.46,656.235 1621.6,656.13 1623.74,656.025 1625.89,655.919 1628.03,655.813 1630.18,655.707 1632.32,655.601 1634.46,655.494 1636.61,655.388 1638.75,655.281 1640.9,655.174 1643.04,655.067 1645.19,654.959 1647.33,654.852 1649.47,654.744 1651.62,654.636 1653.76,654.528 1655.91,654.42 1658.05,654.311 1660.19,654.203 1662.34,654.094 1664.48,653.985 1666.63,653.876 1668.77,653.766 1670.91,653.657 1673.06,653.547 1675.2,653.437 1677.35,653.327 1679.49,653.217 1681.64,653.106 1683.78,652.996 1685.92,652.885 1688.07,652.774 1690.21,652.663 1692.36,652.552 1694.5,652.44 1696.64,652.328 1698.79,652.217 1700.93,652.105 1703.08,651.993 1705.22,651.88 1707.37,651.768 1709.51,651.655 1711.65,651.542 1713.8,651.429 1715.94,651.316 1718.09,651.203 1720.23,651.089 1722.37,650.976 1724.52,650.862 1726.66,650.748 1728.81,650.634 1730.95,650.52 1733.1,650.405 1735.24,650.291 1737.38,650.176 1739.53,650.061 1741.67,649.946 1743.82,649.831 1745.96,649.716 1748.1,649.6 1750.25,649.484 1752.39,649.369 1754.54,649.253 1756.68,649.136 1758.83,649.02 1760.97,648.904 1763.11,648.787 1765.26,648.67 1767.4,648.553 1769.55,648.436 1771.69,648.319 1773.83,648.202 1775.98,648.084 1778.12,647.967 1780.27,647.849 1782.41,647.731 1784.56,647.613 1786.7,647.495 1788.84,647.376 1790.99,647.258 1793.13,647.139 1795.28,647.02 1797.42,646.902 1799.56,646.782 1801.71,646.663 1803.85,646.544 1806,646.424 1808.14,646.305 1810.28,646.185 1812.43,646.065 1814.57,645.945 1816.72,645.825 1818.86,645.704 1821.01,645.584 1823.15,645.463 1825.29,645.343 1827.44,645.222 1829.58,645.101 1831.73,644.98 1833.87,644.858 1836.01,644.737 1838.16,644.615 1840.3,644.494 1842.45,644.372 1844.59,644.25 1846.74,644.128 1848.88,644.006 1851.02,643.883 1853.17,643.761 1855.31,643.638 1857.46,643.516 1859.6,643.393 1861.74,643.27 1863.89,643.147 1866.03,643.024 1868.18,642.9 1870.32,642.777 1872.47,642.653 1874.61,642.529 1876.75,642.406 1878.9,642.282 1881.04,642.158 1883.19,642.033 1885.33,641.909 1887.47,641.785 1889.62,641.66 1891.76,641.535 1893.91,641.41 1896.05,641.286 1898.2,641.16 1900.34,641.035 1902.48,640.91 1904.63,640.785 1906.77,640.659 1908.92,640.533 1911.06,640.408 1913.2,640.282 1915.35,640.156 1917.49,640.03 1919.64,639.904 1921.78,639.777 1923.93,639.651 1926.07,639.524 1928.21,639.398 1930.36,639.271 1932.5,639.144 1934.65,639.017 1936.79,638.89 1938.93,638.762 1941.08,638.635 1943.22,638.508 1945.37,638.38 1947.51,638.252 1949.65,638.125 1951.8,637.997 1953.94,637.869 1956.09,637.741 1958.23,637.613 1960.38,637.484 1962.52,637.356 1964.66,637.227 1966.81,637.099 1968.95,636.97 1971.1,636.841 1973.24,636.712 1975.38,636.583 1977.53,636.454 1979.67,636.325 1981.82,636.195 1983.96,636.066 1986.11,635.936 1988.25,635.806 1990.39,635.677 1992.54,635.547 1994.68,635.417 1996.83,635.287 1998.97,635.156 2001.11,635.026 2003.26,634.896 2005.4,634.765 2007.55,634.634 2009.69,634.504 2011.84,634.373 2013.98,634.242 2016.12,634.111 2018.27,633.979 2020.41,633.848 2022.56,633.717 2024.7,633.585 2026.84,633.454 2028.99,633.322 2031.13,633.19 2033.28,633.058 2035.42,632.926 2037.57,632.794 2039.71,632.662 2041.85,632.529 2044,632.397 2046.14,632.264 2048.29,632.132 2050.43,631.999 2052.57,631.866 2054.72,631.733 2056.86,631.6 2059.01,631.467 2061.15,631.334 2063.3,631.2 2065.44,631.067 2067.58,630.933 2069.73,630.8 2071.87,630.666 2074.02,630.532 2076.16,630.398 2078.3,630.264 2080.45,630.13 2082.59,629.995 2084.74,629.861 2086.88,629.726 2089.02,629.592 2091.17,629.457 2093.31,629.322 2095.46,629.187 2097.6,629.052 2099.75,628.917 2101.89,628.782 2104.03,628.647 2106.18,628.511 2108.32,628.376 2110.47,628.24 2112.61,628.104 2114.75,627.968 2116.9,627.832 2119.04,627.696 2121.19,627.56 2123.33,627.424 2125.48,627.288 2127.62,627.151 2129.76,627.015 2131.91,626.878 2134.05,626.741 2136.2,626.605 2138.34,626.468 2140.48,626.331 2142.63,626.194 2144.77,626.056 2146.92,625.919 2149.06,625.782 2151.21,625.644 2153.35,625.506 2155.49,625.369 2157.64,625.231 2159.78,625.093 2161.93,624.955 2164.07,624.817 2166.21,624.679 2168.36,624.54 2170.5,624.402 2172.65,624.263 2174.79,624.125 2176.94,623.986 2179.08,623.847 2181.22,623.708 2183.37,623.569 2185.51,623.43 2187.66,623.291 2189.8,623.152 2191.94,623.012 2194.09,622.873 2196.23,622.733 2198.38,622.594 2200.52,622.454 2202.67,622.314 2204.81,622.174 2206.95,622.034 2209.1,621.894 2211.24,621.754 2213.39,621.613 2215.53,621.473 2217.67,621.332 2219.82,621.192 2221.96,621.051 2224.11,620.91 2226.25,620.769 2228.39,620.628 2230.54,620.487 2232.68,620.346 2234.83,620.205 2236.97,620.063 2239.12,619.922 2241.26,619.78 2243.4,619.639 2245.55,619.497 2247.69,619.355 2249.84,619.213 2251.98,619.071 2254.12,618.929 2256.27,618.787 2258.41,618.644 2260.56,618.502 2262.7,618.359 2264.85,618.217 2266.99,618.074 2269.13,617.931 2271.28,617.788 2273.42,617.645 2275.57,617.502 2277.71,617.359 2279.85,617.216 2282,617.073 2284.14,616.929 2286.29,616.786 2288.43,616.642 2290.58,616.498 2292.72,616.354 2294.86,616.211 2297.01,616.067 2299.15,615.923 2301.3,615.778 2303.44,615.634 2305.58,615.49 2307.73,615.345 2309.87,615.201 2312.02,615.056 2314.16,614.912 2316.31,614.767 2318.45,614.622 2320.59,614.477 2322.74,614.332 2324.88,614.187 2327.03,614.041 2329.17,613.896 2331.31,613.751 2333.46,613.605 2335.6,613.459 2337.75,613.314 2339.89,613.168 2342.04,613.022 2344.18,612.876 2346.32,612.73 2348.47,612.584 2350.61,612.438 2352.76,612.291 "></polyline>
<polyline clip-path="url(#clip852)" style="stroke:#e26f46; stroke-linecap:round; stroke-linejoin:round; stroke-width:8; stroke-opacity:1; fill:none" points="210.746,1386.4 212.89,1378.34 215.034,1370.35 217.178,1362.42 219.323,1354.56 221.467,1346.77 223.611,1339.04 225.755,1331.37 227.899,1323.77 230.043,1316.23 232.187,1308.76 234.332,1301.34 236.476,1293.99 238.62,1286.7 240.764,1279.46 242.908,1272.29 245.052,1265.18 247.197,1258.12 249.341,1251.13 251.485,1244.19 253.629,1237.31 255.773,1230.48 257.917,1223.71 260.061,1217 262.206,1210.34 264.35,1203.74 266.494,1197.19 268.638,1190.7 270.782,1184.26 272.926,1177.87 275.071,1171.54 277.215,1165.25 279.359,1159.02 281.503,1152.84 283.647,1146.71 285.791,1140.63 287.935,1134.6 290.08,1128.62 292.224,1122.69 294.368,1116.81 296.512,1110.97 298.656,1105.19 300.8,1099.45 302.945,1093.76 305.089,1088.11 307.233,1082.51 309.377,1076.96 311.521,1071.45 313.665,1065.98 315.809,1060.56 317.954,1055.19 320.098,1049.86 322.242,1044.57 324.386,1039.33 326.53,1034.13 328.674,1028.97 330.819,1023.85 332.963,1018.77 335.107,1013.74 337.251,1008.74 339.395,1003.79 341.539,998.878 343.683,994.005 345.828,989.172 347.972,984.377 350.116,979.622 352.26,974.905 354.404,970.226 356.548,965.585 358.693,960.981 360.837,956.415 362.981,951.886 365.125,947.393 367.269,942.936 369.413,938.515 371.558,934.13 373.702,929.781 375.846,925.466 377.99,921.186 380.134,916.94 382.278,912.729 384.422,908.551 386.567,904.407 388.711,900.296 390.855,896.218 392.999,892.173 395.143,888.16 397.287,884.179 399.432,880.23 401.576,876.313 403.72,872.427 405.864,868.572 408.008,864.748 410.152,860.954 412.296,857.191 414.441,853.457 416.585,849.754 418.729,846.079 420.873,842.434 423.017,838.818 425.161,835.231 427.306,831.672 429.45,828.141 431.594,824.639 433.738,821.164 435.882,817.716 438.026,814.296 440.17,810.903 442.315,807.537 444.459,804.197 446.603,800.883 448.747,797.596 450.891,794.335 453.035,791.099 455.18,787.888 457.324,784.703 459.468,781.543 461.612,778.408 463.756,775.297 465.9,772.211 468.044,769.148 470.189,766.11 472.333,763.095 474.477,760.104 476.621,757.136 478.765,754.192 480.909,751.27 483.054,748.371 485.198,745.495 487.342,742.641 489.486,739.809 491.63,736.999 493.774,734.21 495.918,731.444 498.063,728.699 500.207,725.975 502.351,723.272 504.495,720.59 506.639,717.928 508.783,715.287 510.928,712.667 513.072,710.066 515.216,707.486 517.36,704.925 519.504,702.384 521.648,699.863 523.792,697.361 525.937,694.877 528.081,692.413 530.225,689.968 532.369,687.541 534.513,685.133 536.657,682.743 538.802,680.371 540.946,678.017 543.09,675.681 545.234,673.363 547.378,671.062 549.522,668.779 551.666,666.513 553.811,664.264 555.955,662.031 558.099,659.816 560.243,657.617 562.387,655.435 564.531,653.269 566.676,651.12 568.82,648.986 570.964,646.868 573.108,644.766 575.252,642.68 577.396,640.609 579.54,638.554 581.685,636.514 583.829,634.489 585.973,632.479 588.117,630.484 590.261,628.504 592.405,626.538 594.55,624.587 596.694,622.65 598.838,620.727 600.982,618.819 603.126,616.924 605.27,615.044 607.414,613.177 609.559,611.324 611.703,609.484 613.847,607.658 615.991,605.845 618.135,604.045 620.279,602.258 622.424,600.485 624.568,598.724 626.712,596.976 628.856,595.24 631,593.517 633.144,591.806 635.288,590.108 637.433,588.422 639.577,586.748 641.721,585.086 643.865,583.435 646.009,581.797 648.153,580.17 650.298,578.555 652.442,576.951 654.586,575.358 656.73,573.777 658.874,572.207 661.018,570.648 663.162,569.1 665.307,567.563 667.451,566.036 669.595,564.521 671.739,563.015 673.883,561.521 676.027,560.036 678.172,558.562 680.316,557.099 682.46,555.645 684.604,554.202 686.748,552.768 688.892,551.344 691.036,549.93 693.181,548.526 695.325,547.131 697.469,545.746 699.613,544.37 701.757,543.004 703.901,541.647 706.046,540.299 708.19,538.96 710.334,537.63 712.478,536.31 714.622,534.998 716.766,533.695 718.91,532.4 721.055,531.115 723.199,529.838 725.343,528.569 727.487,527.309 729.631,526.058 731.775,524.814 733.92,523.579 736.064,522.352 738.208,521.133 740.352,519.922 742.496,518.719 744.64,517.524 746.784,516.337 748.929,515.157 751.073,513.986 753.217,512.821 755.361,511.665 757.505,510.516 759.649,509.374 761.794,508.239 763.938,507.112 766.082,505.992 768.226,504.879 770.37,503.774 772.514,502.675 774.658,501.583 776.803,500.498 778.947,499.42 781.091,498.349 783.235,497.285 785.379,496.227 787.523,495.175 789.668,494.131 791.812,493.092 793.956,492.061 796.1,491.035 798.244,490.016 800.388,489.003 802.532,487.996 804.677,486.996 806.821,486.001 808.965,485.013 811.109,484.031 813.253,483.054 815.397,482.083 817.542,481.119 819.686,480.16 821.83,479.206 823.974,478.259 826.118,477.317 828.262,476.38 830.406,475.449 832.551,474.524 834.695,473.604 836.839,472.689 838.983,471.779 841.127,470.875 843.271,469.976 845.416,469.083 847.56,468.194 849.704,467.311 851.848,466.432 853.992,465.559 856.136,464.69 858.28,463.827 860.425,462.968 862.569,462.114 864.713,461.265 866.857,460.421 869.001,459.582 871.145,458.747 873.29,457.917 875.434,457.091 877.578,456.27 879.722,455.454 881.866,454.642 884.01,453.834 886.154,453.031 888.299,452.232 890.443,451.438 892.587,450.648 894.731,449.862 896.875,449.08 899.019,448.302 901.164,447.529 903.308,446.76 905.452,445.994 907.596,445.233 909.74,444.476 911.884,443.723 914.028,442.973 916.173,442.228 918.317,441.486 920.461,440.748 922.605,440.014 924.749,439.284 926.893,438.557 929.038,437.834 931.182,437.115 933.326,436.399 935.47,435.687 937.614,434.979 939.758,434.274 941.902,433.572 944.047,432.874 946.191,432.179 948.335,431.488 950.479,430.8 952.623,430.115 954.767,429.434 956.912,428.756 959.056,428.081 961.2,427.409 963.344,426.741 965.488,426.075 967.632,425.413 969.777,424.754 971.921,424.098 974.065,423.445 976.209,422.795 978.353,422.147 980.497,421.503 982.641,420.862 984.786,420.224 986.93,419.588 989.074,418.955 991.218,418.325 993.362,417.698 995.506,417.074 997.651,416.452 999.795,415.833 1001.94,415.217 1004.08,414.603 1006.23,413.992 1008.37,413.384 1010.52,412.778 1012.66,412.175 1014.8,411.574 1016.95,410.976 1019.09,410.381 1021.24,409.787 1023.38,409.197 1025.52,408.609 1027.67,408.023 1029.81,407.439 1031.96,406.858 1034.1,406.279 1036.25,405.703 1038.39,405.129 1040.53,404.557 1042.68,403.987 1044.82,403.42 1046.97,402.855 1049.11,402.292 1051.25,401.732 1053.4,401.173 1055.54,400.617 1057.69,400.063 1059.83,399.51 1061.98,398.96 1064.12,398.412 1066.26,397.867 1068.41,397.323 1070.55,396.781 1072.7,396.241 1074.84,395.703 1076.98,395.167 1079.13,394.633 1081.27,394.101 1083.42,393.571 1085.56,393.043 1087.7,392.517 1089.85,391.992 1091.99,391.469 1094.14,390.948 1096.28,390.429 1098.43,389.912 1100.57,389.396 1102.71,388.883 1104.86,388.371 1107,387.86 1109.15,387.352 1111.29,386.845 1113.43,386.339 1115.58,385.836 1117.72,385.334 1119.87,384.833 1122.01,384.334 1124.16,383.837 1126.3,383.342 1128.44,382.847 1130.59,382.355 1132.73,381.864 1134.88,381.374 1137.02,380.886 1139.16,380.4 1141.31,379.914 1143.45,379.431 1145.6,378.949 1147.74,378.468 1149.89,377.988 1152.03,377.51 1154.17,377.034 1156.32,376.558 1158.46,376.084 1160.61,375.612 1162.75,375.14 1164.89,374.67 1167.04,374.202 1169.18,373.734 1171.33,373.268 1173.47,372.803 1175.62,372.34 1177.76,371.877 1179.9,371.416 1182.05,370.956 1184.19,370.497 1186.34,370.039 1188.48,369.583 1190.62,369.128 1192.77,368.673 1194.91,368.22 1197.06,367.768 1199.2,367.318 1201.35,366.868 1203.49,366.419 1205.63,365.972 1207.78,365.525 1209.92,365.08 1212.07,364.635 1214.21,364.192 1216.35,363.75 1218.5,363.309 1220.64,362.868 1222.79,362.429 1224.93,361.991 1227.07,361.554 1229.22,361.117 1231.36,360.682 1233.51,360.248 1235.65,359.814 1237.8,359.382 1239.94,358.95 1242.08,358.52 1244.23,358.09 1246.37,357.661 1248.52,357.234 1250.66,356.807 1252.8,356.38 1254.95,355.955 1257.09,355.531 1259.24,355.107 1261.38,354.685 1263.53,354.263 1265.67,353.842 1267.81,353.421 1269.96,353.002 1272.1,352.583 1274.25,352.166 1276.39,351.749 1278.53,351.332 1280.68,350.917 1282.82,350.502 1284.97,350.088 1287.11,349.675 1289.26,349.262 1291.4,348.85 1293.54,348.439 1295.69,348.029 1297.83,347.619 1299.98,347.21 1302.12,346.802 1304.26,346.395 1306.41,345.988 1308.55,345.581 1310.7,345.176 1312.84,344.771 1314.99,344.366 1317.13,343.963 1319.27,343.56 1321.42,343.157 1323.56,342.755 1325.71,342.354 1327.85,341.954 1329.99,341.554 1332.14,341.154 1334.28,340.755 1336.43,340.357 1338.57,339.959 1340.72,339.562 1342.86,339.165 1345,338.769 1347.15,338.374 1349.29,337.979 1351.44,337.584 1353.58,337.19 1355.72,336.797 1357.87,336.404 1360.01,336.011 1362.16,335.619 1364.3,335.228 1366.45,334.836 1368.59,334.446 1370.73,334.056 1372.88,333.666 1375.02,333.277 1377.17,332.888 1379.31,332.5 1381.45,332.112 1383.6,331.724 1385.74,331.337 1387.89,330.951 1390.03,330.564 1392.17,330.179 1394.32,329.793 1396.46,329.408 1398.61,329.023 1400.75,328.639 1402.9,328.255 1405.04,327.872 1407.18,327.489 1409.33,327.106 1411.47,326.723 1413.62,326.341 1415.76,325.959 1417.9,325.578 1420.05,325.197 1422.19,324.816 1424.34,324.436 1426.48,324.056 1428.63,323.676 1430.77,323.297 1432.91,322.918 1435.06,322.539 1437.2,322.16 1439.35,321.782 1441.49,321.404 1443.63,321.027 1445.78,320.65 1447.92,320.273 1450.07,319.896 1452.21,319.52 1454.36,319.144 1456.5,318.768 1458.64,318.392 1460.79,318.017 1462.93,317.642 1465.08,317.267 1467.22,316.893 1469.36,316.518 1471.51,316.145 1473.65,315.771 1475.8,315.397 1477.94,315.024 1480.09,314.651 1482.23,314.278 1484.37,313.906 1486.52,313.533 1488.66,313.161 1490.81,312.789 1492.95,312.418 1495.09,312.046 1497.24,311.675 1499.38,311.304 1501.53,310.933 1503.67,310.563 1505.82,310.192 1507.96,309.822 1510.1,309.452 1512.25,309.082 1514.39,308.712 1516.54,308.343 1518.68,307.974 1520.82,307.605 1522.97,307.236 1525.11,306.867 1527.26,306.498 1529.4,306.13 1531.54,305.761 1533.69,305.393 1535.83,305.025 1537.98,304.657 1540.12,304.29 1542.27,303.922 1544.41,303.555 1546.55,303.187 1548.7,302.82 1550.84,302.453 1552.99,302.086 1555.13,301.719 1557.27,301.353 1559.42,300.986 1561.56,300.62 1563.71,300.253 1565.85,299.887 1568,299.521 1570.14,299.155 1572.28,298.789 1574.43,298.423 1576.57,298.058 1578.72,297.692 1580.86,297.326 1583,296.961 1585.15,296.595 1587.29,296.23 1589.44,295.865 1591.58,295.5 1593.73,295.135 1595.87,294.77 1598.01,294.405 1600.16,294.04 1602.3,293.675 1604.45,293.31 1606.59,292.946 1608.73,292.581 1610.88,292.216 1613.02,291.852 1615.17,291.487 1617.31,291.123 1619.46,290.759 1621.6,290.394 1623.74,290.03 1625.89,289.665 1628.03,289.301 1630.18,288.937 1632.32,288.573 1634.46,288.208 1636.61,287.844 1638.75,287.48 1640.9,287.116 1643.04,286.752 1645.19,286.388 1647.33,286.024 1649.47,285.659 1651.62,285.295 1653.76,284.931 1655.91,284.567 1658.05,284.203 1660.19,283.839 1662.34,283.475 1664.48,283.111 1666.63,282.746 1668.77,282.382 1670.91,282.018 1673.06,281.654 1675.2,281.29 1677.35,280.926 1679.49,280.561 1681.64,280.197 1683.78,279.833 1685.92,279.469 1688.07,279.104 1690.21,278.74 1692.36,278.376 1694.5,278.011 1696.64,277.647 1698.79,277.283 1700.93,276.918 1703.08,276.554 1705.22,276.189 1707.37,275.825 1709.51,275.46 1711.65,275.095 1713.8,274.731 1715.94,274.366 1718.09,274.001 1720.23,273.637 1722.37,273.272 1724.52,272.907 1726.66,272.542 1728.81,272.177 1730.95,271.812 1733.1,271.447 1735.24,271.082 1737.38,270.717 1739.53,270.352 1741.67,269.987 1743.82,269.622 1745.96,269.256 1748.1,268.891 1750.25,268.526 1752.39,268.16 1754.54,267.795 1756.68,267.429 1758.83,267.063 1760.97,266.698 1763.11,266.332 1765.26,265.966 1767.4,265.6 1769.55,265.234 1771.69,264.868 1773.83,264.502 1775.98,264.136 1778.12,263.769 1780.27,263.403 1782.41,263.037 1784.56,262.67 1786.7,262.304 1788.84,261.937 1790.99,261.57 1793.13,261.203 1795.28,260.836 1797.42,260.47 1799.56,260.102 1801.71,259.735 1803.85,259.368 1806,259.001 1808.14,258.633 1810.28,258.266 1812.43,257.898 1814.57,257.531 1816.72,257.163 1818.86,256.795 1821.01,256.427 1823.15,256.059 1825.29,255.691 1827.44,255.323 1829.58,254.954 1831.73,254.586 1833.87,254.217 1836.01,253.849 1838.16,253.48 1840.3,253.111 1842.45,252.742 1844.59,252.373 1846.74,252.004 1848.88,251.634 1851.02,251.265 1853.17,250.895 1855.31,250.526 1857.46,250.156 1859.6,249.786 1861.74,249.416 1863.89,249.046 1866.03,248.676 1868.18,248.305 1870.32,247.935 1872.47,247.564 1874.61,247.194 1876.75,246.823 1878.9,246.452 1881.04,246.081 1883.19,245.71 1885.33,245.338 1887.47,244.967 1889.62,244.595 1891.76,244.223 1893.91,243.852 1896.05,243.48 1898.2,243.107 1900.34,242.735 1902.48,242.363 1904.63,241.99 1906.77,241.618 1908.92,241.245 1911.06,240.872 1913.2,240.499 1915.35,240.125 1917.49,239.752 1919.64,239.379 1921.78,239.005 1923.93,238.631 1926.07,238.257 1928.21,237.883 1930.36,237.509 1932.5,237.134 1934.65,236.76 1936.79,236.385 1938.93,236.01 1941.08,235.635 1943.22,235.26 1945.37,234.884 1947.51,234.509 1949.65,234.133 1951.8,233.757 1953.94,233.381 1956.09,233.005 1958.23,232.629 1960.38,232.253 1962.52,231.876 1964.66,231.499 1966.81,231.122 1968.95,230.745 1971.1,230.368 1973.24,229.99 1975.38,229.613 1977.53,229.235 1979.67,228.857 1981.82,228.479 1983.96,228.101 1986.11,227.722 1988.25,227.344 1990.39,226.965 1992.54,226.586 1994.68,226.207 1996.83,225.828 1998.97,225.448 2001.11,225.069 2003.26,224.689 2005.4,224.309 2007.55,223.929 2009.69,223.549 2011.84,223.168 2013.98,222.788 2016.12,222.407 2018.27,222.026 2020.41,221.645 2022.56,221.264 2024.7,220.882 2026.84,220.501 2028.99,220.119 2031.13,219.737 2033.28,219.355 2035.42,218.973 2037.57,218.59 2039.71,218.207 2041.85,217.825 2044,217.442 2046.14,217.058 2048.29,216.675 2050.43,216.292 2052.57,215.908 2054.72,215.524 2056.86,215.14 2059.01,214.756 2061.15,214.371 2063.3,213.987 2065.44,213.602 2067.58,213.217 2069.73,212.832 2071.87,212.447 2074.02,212.061 2076.16,211.675 2078.3,211.29 2080.45,210.903 2082.59,210.517 2084.74,210.131 2086.88,209.744 2089.02,209.358 2091.17,208.971 2093.31,208.583 2095.46,208.196 2097.6,207.809 2099.75,207.421 2101.89,207.033 2104.03,206.645 2106.18,206.257 2108.32,205.868 2110.47,205.48 2112.61,205.091 2114.75,204.702 2116.9,204.313 2119.04,203.923 2121.19,203.534 2123.33,203.144 2125.48,202.754 2127.62,202.364 2129.76,201.974 2131.91,201.583 2134.05,201.192 2136.2,200.802 2138.34,200.41 2140.48,200.019 2142.63,199.628 2144.77,199.236 2146.92,198.844 2149.06,198.452 2151.21,198.06 2153.35,197.667 2155.49,197.275 2157.64,196.882 2159.78,196.489 2161.93,196.096 2164.07,195.702 2166.21,195.309 2168.36,194.915 2170.5,194.521 2172.65,194.126 2174.79,193.732 2176.94,193.337 2179.08,192.943 2181.22,192.547 2183.37,192.152 2185.51,191.757 2187.66,191.361 2189.8,190.965 2191.94,190.569 2194.09,190.173 2196.23,189.777 2198.38,189.38 2200.52,188.983 2202.67,188.586 2204.81,188.189 2206.95,187.791 2209.1,187.394 2211.24,186.996 2213.39,186.598 2215.53,186.199 2217.67,185.801 2219.82,185.402 2221.96,185.003 2224.11,184.604 2226.25,184.205 2228.39,183.805 2230.54,183.405 2232.68,183.005 2234.83,182.605 2236.97,182.205 2239.12,181.804 2241.26,181.403 2243.4,181.002 2245.55,180.601 2247.69,180.199 2249.84,179.798 2251.98,179.396 2254.12,178.994 2256.27,178.591 2258.41,178.189 2260.56,177.786 2262.7,177.383 2264.85,176.98 2266.99,176.576 2269.13,176.173 2271.28,175.769 2273.42,175.365 2275.57,174.961 2277.71,174.556 2279.85,174.151 2282,173.746 2284.14,173.341 2286.29,172.936 2288.43,172.53 2290.58,172.124 2292.72,171.718 2294.86,171.312 2297.01,170.905 2299.15,170.499 2301.3,170.092 2303.44,169.684 2305.58,169.277 2307.73,168.869 2309.87,168.461 2312.02,168.053 2314.16,167.645 2316.31,167.236 2318.45,166.828 2320.59,166.419 2322.74,166.009 2324.88,165.6 2327.03,165.19 2329.17,164.78 2331.31,164.37 2333.46,163.96 2335.6,163.549 2337.75,163.138 2339.89,162.727 2342.04,162.316 2344.18,161.905 2346.32,161.493 2348.47,161.081 2350.61,160.669 2352.76,160.256 "></polyline>
<path clip-path="url(#clip850)" d="M1925.4 1379.86 L2281.36 1379.86 L2281.36 1224.34 L1925.4 1224.34  Z" fill="#ffffff" fill-rule="evenodd" fill-opacity="1"></path>
<polyline clip-path="url(#clip850)" style="stroke:#000000; stroke-linecap:round; stroke-linejoin:round; stroke-width:4; stroke-opacity:1; fill:none" points="1925.4,1379.86 2281.36,1379.86 2281.36,1224.34 1925.4,1224.34 1925.4,1379.86 "></polyline>
<polyline clip-path="url(#clip850)" style="stroke:#009af9; stroke-linecap:round; stroke-linejoin:round; stroke-width:8; stroke-opacity:1; fill:none" points="1949.2,1276.18 2092,1276.18 "></polyline>
<path clip-path="url(#clip850)" d="M2115.8 1258.9 L2120.47 1258.9 L2120.47 1273.5 L2135.98 1258.9 L2142 1258.9 L2124.85 1275.01 L2143.23 1293.46 L2137.07 1293.46 L2120.47 1276.81 L2120.47 1293.46 L2115.8 1293.46 L2115.8 1258.9 Z" fill="#000000" fill-rule="nonzero" fill-opacity="1"></path><path clip-path="url(#clip850)" d="M2146.7 1267.53 L2150.96 1267.53 L2150.96 1293.46 L2146.7 1293.46 L2146.7 1267.53 M2146.7 1257.44 L2150.96 1257.44 L2150.96 1262.83 L2146.7 1262.83 L2146.7 1257.44 Z" fill="#000000" fill-rule="nonzero" fill-opacity="1"></path><path clip-path="url(#clip850)" d="M2159.71 1257.44 L2163.99 1257.44 L2163.99 1278.71 L2176.7 1267.53 L2182.14 1267.53 L2168.39 1279.66 L2182.72 1293.46 L2177.16 1293.46 L2163.99 1280.79 L2163.99 1293.46 L2159.71 1293.46 L2159.71 1257.44 Z" fill="#000000" fill-rule="nonzero" fill-opacity="1"></path><path clip-path="url(#clip850)" d="M2187.32 1267.53 L2191.58 1267.53 L2191.58 1293.46 L2187.32 1293.46 L2187.32 1267.53 M2187.32 1257.44 L2191.58 1257.44 L2191.58 1262.83 L2187.32 1262.83 L2187.32 1257.44 Z" fill="#000000" fill-rule="nonzero" fill-opacity="1"></path><polyline clip-path="url(#clip850)" style="stroke:#e26f46; stroke-linecap:round; stroke-linejoin:round; stroke-width:8; stroke-opacity:1; fill:none" points="1949.2,1328.02 2092,1328.02 "></polyline>
<path clip-path="url(#clip850)" d="M2120.47 1328.79 L2120.47 1341.45 L2127.97 1341.45 Q2131.75 1341.45 2133.55 1339.9 Q2135.38 1338.33 2135.38 1335.11 Q2135.38 1331.87 2133.55 1330.34 Q2131.75 1328.79 2127.97 1328.79 L2120.47 1328.79 M2120.47 1314.58 L2120.47 1325 L2127.39 1325 Q2130.82 1325 2132.49 1323.72 Q2134.18 1322.43 2134.18 1319.79 Q2134.18 1317.17 2132.49 1315.88 Q2130.82 1314.58 2127.39 1314.58 L2120.47 1314.58 M2115.8 1310.74 L2127.74 1310.74 Q2133.09 1310.74 2135.98 1312.96 Q2138.88 1315.18 2138.88 1319.28 Q2138.88 1322.45 2137.39 1324.32 Q2135.91 1326.2 2133.04 1326.66 Q2136.49 1327.4 2138.39 1329.76 Q2140.31 1332.1 2140.31 1335.62 Q2140.31 1340.25 2137.16 1342.77 Q2134.01 1345.3 2128.2 1345.3 L2115.8 1345.3 L2115.8 1310.74 Z" fill="#000000" fill-rule="nonzero" fill-opacity="1"></path><path clip-path="url(#clip850)" d="M2158.18 1322.36 Q2154.76 1322.36 2152.76 1325.04 Q2150.77 1327.7 2150.77 1332.36 Q2150.77 1337.01 2152.74 1339.69 Q2154.73 1342.36 2158.18 1342.36 Q2161.58 1342.36 2163.57 1339.67 Q2165.57 1336.99 2165.57 1332.36 Q2165.57 1327.75 2163.57 1325.06 Q2161.58 1322.36 2158.18 1322.36 M2158.18 1318.75 Q2163.74 1318.75 2166.91 1322.36 Q2170.08 1325.97 2170.08 1332.36 Q2170.08 1338.72 2166.91 1342.36 Q2163.74 1345.97 2158.18 1345.97 Q2152.6 1345.97 2149.43 1342.36 Q2146.28 1338.72 2146.28 1332.36 Q2146.28 1325.97 2149.43 1322.36 Q2152.6 1318.75 2158.18 1318.75 Z" fill="#000000" fill-rule="nonzero" fill-opacity="1"></path><path clip-path="url(#clip850)" d="M2176.7 1335.06 L2176.7 1319.37 L2180.96 1319.37 L2180.96 1334.9 Q2180.96 1338.58 2182.39 1340.44 Q2183.83 1342.26 2186.7 1342.26 Q2190.15 1342.26 2192.14 1340.06 Q2194.15 1337.87 2194.15 1334.07 L2194.15 1319.37 L2198.41 1319.37 L2198.41 1345.3 L2194.15 1345.3 L2194.15 1341.31 Q2192.6 1343.68 2190.54 1344.83 Q2188.5 1345.97 2185.8 1345.97 Q2181.33 1345.97 2179.01 1343.19 Q2176.7 1340.41 2176.7 1335.06 M2187.42 1318.75 L2187.42 1318.75 Z" fill="#000000" fill-rule="nonzero" fill-opacity="1"></path><path clip-path="url(#clip850)" d="M2225.8 1332.36 Q2225.8 1327.66 2223.85 1325 Q2221.93 1322.31 2218.55 1322.31 Q2215.17 1322.31 2213.23 1325 Q2211.31 1327.66 2211.31 1332.36 Q2211.31 1337.06 2213.23 1339.74 Q2215.17 1342.4 2218.55 1342.4 Q2221.93 1342.4 2223.85 1339.74 Q2225.8 1337.06 2225.8 1332.36 M2211.31 1323.31 Q2212.65 1320.99 2214.69 1319.88 Q2216.75 1318.75 2219.59 1318.75 Q2224.31 1318.75 2227.25 1322.5 Q2230.22 1326.25 2230.22 1332.36 Q2230.22 1338.47 2227.25 1342.22 Q2224.31 1345.97 2219.59 1345.97 Q2216.75 1345.97 2214.69 1344.86 Q2212.65 1343.72 2211.31 1341.41 L2211.31 1345.3 L2207.02 1345.3 L2207.02 1309.28 L2211.31 1309.28 L2211.31 1323.31 Z" fill="#000000" fill-rule="nonzero" fill-opacity="1"></path><path clip-path="url(#clip850)" d="M2249.06 1332.26 Q2243.9 1332.26 2241.91 1333.44 Q2239.92 1334.63 2239.92 1337.47 Q2239.92 1339.74 2241.4 1341.08 Q2242.9 1342.4 2245.47 1342.4 Q2249.01 1342.4 2251.14 1339.9 Q2253.3 1337.38 2253.3 1333.21 L2253.3 1332.26 L2249.06 1332.26 M2257.56 1330.5 L2257.56 1345.3 L2253.3 1345.3 L2253.3 1341.36 Q2251.84 1343.72 2249.66 1344.86 Q2247.49 1345.97 2244.34 1345.97 Q2240.36 1345.97 2238 1343.75 Q2235.66 1341.5 2235.66 1337.75 Q2235.66 1333.38 2238.57 1331.15 Q2241.51 1328.93 2247.32 1328.93 L2253.3 1328.93 L2253.3 1328.51 Q2253.3 1325.57 2251.35 1323.98 Q2249.43 1322.36 2245.94 1322.36 Q2243.71 1322.36 2241.61 1322.89 Q2239.5 1323.42 2237.56 1324.49 L2237.56 1320.55 Q2239.89 1319.65 2242.09 1319.21 Q2244.29 1318.75 2246.37 1318.75 Q2252 1318.75 2254.78 1321.66 Q2257.56 1324.58 2257.56 1330.5 Z" fill="#000000" fill-rule="nonzero" fill-opacity="1"></path></svg>